{"glyphs":{"0":{"ha":847,"x_min":76,"x_max":771,"o":"m 771 250 l 771 847 q 751 944 771 899 q 698 1024 732 990 q 618 1078 664 1058 q 521 1097 572 1097 l 326 1097 q 228 1078 274 1097 q 149 1024 183 1058 q 96 944 115 990 q 76 847 76 899 l 76 250 q 96 151 76 197 q 149 72 115 106 q 228 19 183 39 q 326 0 274 0 l 521 0 q 618 19 572 0 q 698 73 664 39 q 751 152 732 107 q 771 250 771 197 m 576 286 q 551 215 576 240 q 479 189 526 189 l 368 189 q 271 286 271 189 l 271 811 q 368 908 271 908 l 479 908 q 576 811 576 908 l 576 286 "},"1":{"ha":347,"x_min":76,"x_max":271,"o":"m 271 0 l 271 1097 l 76 1097 l 76 0 l 271 0 "},"2":{"ha":847,"x_min":76,"x_max":771,"o":"m 771 0 l 771 189 l 346 189 q 349 197 346 192 q 355 206 351 201 q 365 218 358 211 l 668 492 q 749 597 726 544 q 771 713 771 650 l 771 847 q 751 944 771 899 q 698 1024 732 990 q 618 1078 664 1058 q 521 1097 572 1097 l 326 1097 q 228 1078 274 1097 q 149 1026 183 1058 q 96 954 115 994 q 76 872 76 914 l 271 822 q 297 885 271 863 q 368 908 324 908 l 479 908 q 576 811 576 908 l 576 742 q 564 678 576 706 q 519 621 551 651 l 196 326 q 108 210 140 275 q 76 82 76 144 l 76 0 l 771 0 "},"3":{"ha":847,"x_min":76,"x_max":771,"o":"m 771 250 l 771 378 q 747 483 771 440 q 679 551 724 525 q 745 616 719 571 q 771 721 771 661 l 771 847 q 751 944 771 899 q 698 1024 732 990 q 618 1078 664 1058 q 521 1097 572 1097 l 326 1097 q 231 1079 274 1097 q 155 1031 188 1061 q 102 959 122 1000 q 76 874 82 918 l 271 824 q 296 882 271 856 q 368 908 321 908 l 479 908 q 576 811 576 908 l 576 740 q 479 643 576 643 l 375 643 l 375 454 l 479 454 q 576 357 576 454 l 576 286 q 479 189 576 189 l 368 189 q 295 213 319 189 q 271 272 271 236 l 76 224 q 100 138 81 178 q 153 67 119 97 q 230 18 186 36 q 326 0 274 0 l 521 0 q 619 19 574 0 q 699 73 665 39 q 751 152 732 107 q 771 250 771 197 "},"4":{"ha":847,"x_min":76,"x_max":771,"o":"m 771 233 l 771 422 l 660 422 l 660 1097 l 465 1097 l 76 415 l 76 233 l 465 233 l 465 0 l 660 0 l 660 233 l 771 233 m 465 422 l 296 422 l 465 732 l 465 422 "},"5":{"ha":847,"x_min":76,"x_max":771,"o":"m 771 250 l 771 422 q 751 519 771 474 q 698 599 732 565 q 618 653 664 633 q 521 672 572 672 l 303 672 l 344 908 l 753 908 l 753 1097 l 179 1097 l 76 492 l 264 433 q 290 469 271 454 q 346 483 310 483 l 479 483 q 576 386 576 483 l 576 286 q 479 189 576 189 l 368 189 q 297 205 319 189 q 271 251 275 221 l 76 200 q 157 56 92 113 q 326 0 222 0 l 521 0 q 618 19 572 0 q 698 73 664 39 q 751 152 732 107 q 771 250 771 197 "},"6":{"ha":847,"x_min":76,"x_max":771,"o":"m 771 250 l 771 393 q 751 490 771 444 q 698 570 732 536 q 618 624 664 604 q 521 643 572 643 l 271 643 l 271 811 q 368 908 271 908 l 479 908 q 550 885 526 908 q 576 821 574 861 l 769 869 q 746 956 765 915 q 694 1028 726 997 q 617 1078 661 1060 q 521 1097 572 1097 l 326 1097 q 228 1078 274 1097 q 149 1024 183 1058 q 96 944 115 990 q 76 847 76 899 l 76 250 q 96 151 76 197 q 149 72 115 106 q 228 19 183 39 q 326 0 274 0 l 521 0 q 618 19 572 0 q 698 73 664 39 q 751 152 732 107 q 771 250 771 197 m 576 286 q 479 189 576 189 l 368 189 q 271 286 271 189 l 271 357 q 368 454 271 454 l 479 454 q 576 357 576 454 l 576 286 "},"7":{"ha":847,"x_min":76,"x_max":771,"o":"m 771 1097 l 76 1097 l 76 908 l 561 908 l 197 0 l 406 0 l 771 918 l 771 1097 "},"8":{"ha":847,"x_min":76,"x_max":771,"o":"m 771 250 l 771 371 q 763 438 771 410 q 743 488 756 467 q 714 523 731 508 q 679 550 697 538 q 711 573 694 558 q 741 608 728 588 q 763 658 754 629 q 771 726 771 688 l 771 847 q 751 944 771 899 q 698 1024 732 990 q 618 1078 664 1058 q 521 1097 572 1097 l 326 1097 q 229 1078 275 1097 q 149 1024 183 1058 q 96 944 115 990 q 76 847 76 899 l 76 726 q 85 657 76 686 q 106 607 93 628 q 136 572 119 586 q 168 550 153 558 q 132 523 149 538 q 103 488 115 508 q 83 438 90 467 q 76 371 76 410 l 76 250 q 96 152 76 197 q 149 73 115 107 q 228 19 183 39 q 326 0 274 0 l 521 0 q 618 19 572 0 q 698 73 664 39 q 751 152 732 107 q 771 250 771 197 m 576 740 q 551 668 576 693 q 479 643 525 643 l 368 643 q 271 740 271 643 l 271 811 q 368 908 271 908 l 479 908 q 576 811 576 908 l 576 740 m 576 286 q 551 214 576 239 q 479 189 525 189 l 368 189 q 271 286 271 189 l 271 357 q 368 454 271 454 l 479 454 q 576 357 576 454 l 576 286 "},"9":{"ha":847,"x_min":76,"x_max":771,"o":"m 771 250 l 771 847 q 751 946 771 900 q 698 1025 732 992 q 618 1078 664 1058 q 521 1097 572 1097 l 326 1097 q 228 1078 274 1097 q 149 1024 183 1058 q 96 944 115 990 q 76 847 76 899 l 76 704 q 96 606 76 651 q 149 527 115 561 q 228 474 183 493 q 326 454 274 454 l 576 454 l 576 286 q 479 189 576 189 l 368 189 q 297 213 321 189 q 271 276 274 236 l 78 228 q 101 140 82 182 q 153 67 121 99 q 230 18 186 36 q 326 0 274 0 l 521 0 q 618 19 572 0 q 698 73 664 39 q 751 152 732 107 q 771 250 771 197 m 576 740 q 479 643 576 643 l 368 643 q 271 740 271 643 l 271 811 q 368 908 271 908 l 479 908 q 576 811 576 908 l 576 740 "},"\u0000":{"ha":0,"x_min":0,"x_max":0,"o":""},"\r":{"ha":1389,"x_min":0,"x_max":0,"o":""}," ":{"ha":458,"x_min":0,"x_max":0,"o":""},"Ð":{"ha":847,"x_min":76,"x_max":771,"o":"m 771 250 l 771 847 q 751 944 771 899 q 698 1024 732 990 q 618 1078 664 1058 q 521 1097 572 1097 l 76 1097 l 76 908 l 132 908 l 132 643 l 76 643 l 76 454 l 132 454 l 132 189 l 76 189 l 76 0 l 521 0 q 618 19 572 0 q 698 73 664 39 q 751 152 732 107 q 771 250 771 197 m 576 286 q 479 189 576 189 l 326 189 l 326 454 l 438 454 l 438 643 l 326 643 l 326 908 l 479 908 q 576 811 576 908 l 576 286 "},"ð":{"ha":715,"x_min":69,"x_max":646,"o":"m 646 194 l 646 624 q 633 694 646 661 q 600 753 621 726 l 456 940 l 532 960 l 499 1100 l 360 1065 l 336 1097 l 121 1097 l 179 1021 l 106 1003 l 140 863 l 275 896 l 333 819 l 264 819 q 187 805 222 819 q 125 765 151 790 q 84 703 99 739 q 69 625 69 667 l 69 194 q 84 117 69 153 q 125 55 99 81 q 187 15 151 29 q 264 0 222 0 l 451 0 q 528 15 493 0 q 590 55 564 29 q 631 117 617 81 q 646 194 646 153 m 465 246 q 396 175 465 175 l 319 175 q 250 246 250 175 l 250 574 q 319 644 250 644 l 396 644 q 465 574 465 644 l 465 246 "},"Ł":{"ha":847,"x_min":0,"x_max":771,"o":"m 771 0 l 771 189 l 271 189 l 271 478 l 421 515 l 382 669 l 271 643 l 271 1097 l 76 1097 l 76 594 l 0 576 l 35 419 l 76 429 l 76 0 l 771 0 "},"ł":{"ha":333,"x_min":0,"x_max":354,"o":"m 354 497 l 315 651 l 257 638 l 257 1097 l 76 1097 l 76 593 l 0 575 l 35 418 l 76 428 l 76 0 l 257 0 l 257 474 l 354 497 "},"Š":{"ha":847,"x_min":76,"x_max":771,"o":"m 650 1342 l 508 1376 l 425 1283 l 340 1375 l 199 1340 l 357 1167 l 493 1167 l 650 1342 m 771 250 l 771 357 q 720 499 771 443 q 589 586 669 554 l 328 690 q 281 727 292 704 q 271 797 271 750 l 271 811 q 368 908 271 908 l 479 908 q 550 885 526 908 q 576 821 574 861 l 771 869 q 747 955 767 914 q 694 1028 726 996 q 617 1078 661 1060 q 521 1097 574 1097 l 326 1097 q 228 1078 274 1097 q 149 1024 183 1058 q 96 944 115 990 q 76 847 76 899 l 76 765 q 92 674 76 714 q 133 602 107 633 q 192 549 160 571 q 261 514 225 528 l 514 413 q 563 378 550 397 q 576 324 576 360 l 576 286 q 479 189 576 189 l 368 189 q 297 213 321 189 q 271 279 274 236 l 76 231 q 102 140 82 182 q 155 67 122 99 q 231 18 188 36 q 326 0 274 0 l 521 0 q 618 19 572 0 q 698 73 664 39 q 751 152 732 107 q 771 250 771 197 "},"š":{"ha":715,"x_min":69,"x_max":646,"o":"m 583 1064 l 442 1099 l 357 1006 l 274 1097 l 132 1063 l 289 889 l 425 889 l 583 1064 m 646 194 l 646 249 q 634 323 646 290 q 603 381 622 356 q 558 422 583 406 q 504 449 532 439 l 289 528 q 258 548 265 536 q 250 579 250 560 l 250 588 q 267 629 250 614 q 319 644 283 644 l 396 644 q 465 582 461 644 l 646 628 q 631 705 646 669 q 591 765 617 740 q 530 805 565 790 q 453 819 494 819 l 263 819 q 185 805 221 819 q 124 764 150 790 q 84 702 99 738 q 69 625 69 667 l 69 569 q 83 496 69 529 q 117 438 96 463 q 165 395 139 413 q 217 368 192 378 l 421 293 q 456 272 446 283 q 465 244 465 260 l 465 239 q 396 175 465 175 l 321 175 q 269 190 285 175 q 250 238 253 206 l 69 192 q 85 115 69 150 q 126 54 100 79 q 187 15 151 29 q 264 0 222 0 l 453 0 q 530 15 494 0 q 591 55 565 29 q 631 117 617 81 q 646 194 646 153 "},"Ý":{"ha":847,"x_min":76,"x_max":771,"o":"m 586 1322 l 476 1440 l 300 1225 l 374 1151 l 586 1322 m 771 1031 l 771 1097 l 576 1097 l 576 1054 q 572 1010 576 1033 q 558 964 568 986 l 424 650 l 289 964 q 275 1009 279 985 q 271 1054 271 1033 l 271 1097 l 76 1097 l 76 1032 q 84 960 76 996 q 111 883 92 924 l 326 404 l 326 0 l 521 0 l 521 404 l 736 883 q 771 1031 771 961 "},"ý":{"ha":694,"x_min":28,"x_max":667,"o":"m 513 1044 l 404 1161 l 226 946 l 300 874 l 513 1044 m 667 819 l 482 819 l 358 346 q 355 335 357 342 q 346 329 353 329 q 338 335 340 329 q 333 346 335 342 l 213 819 l 28 819 l 258 0 l 250 -31 q 157 -103 229 -103 l 101 -103 l 101 -278 l 176 -278 q 251 -267 215 -278 q 318 -235 288 -257 q 372 -180 349 -214 q 408 -99 396 -146 l 667 819 "},"\t":{"ha":1389,"x_min":0,"x_max":0,"o":""},"\n":{"ha":1389,"x_min":0,"x_max":0,"o":""},"Þ":{"ha":847,"x_min":76,"x_max":771,"o":"m 771 478 l 771 621 q 751 718 771 672 q 698 798 732 764 q 618 851 664 832 q 521 871 572 871 l 271 871 l 271 1097 l 76 1097 l 76 0 l 271 0 l 271 228 l 521 228 q 618 247 572 228 q 698 301 664 267 q 751 380 732 335 q 771 478 771 425 m 576 514 q 479 417 576 417 l 271 417 l 271 682 l 479 682 q 576 585 576 682 l 576 514 "},"þ":{"ha":726,"x_min":69,"x_max":657,"o":"m 657 194 l 657 625 q 642 703 657 667 q 602 765 628 739 q 541 805 576 790 q 464 819 506 819 l 368 819 q 303 808 336 819 q 250 774 269 796 l 250 1097 l 69 1097 l 69 819 l 69 -278 l 250 -278 l 250 50 q 301 15 267 29 q 368 0 336 0 l 464 0 q 541 15 506 0 q 602 55 576 29 q 642 117 628 81 q 657 194 657 153 m 476 246 q 407 176 476 176 l 319 176 q 250 246 250 176 l 250 574 q 319 644 250 644 l 407 644 q 476 574 476 644 l 476 246 "},"Ž":{"ha":847,"x_min":76,"x_max":771,"o":"m 660 1340 l 518 1375 l 435 1283 l 350 1374 l 208 1339 l 367 1167 l 503 1167 l 660 1340 m 771 0 l 771 189 l 306 189 l 771 917 l 771 1097 l 76 1099 l 76 910 l 543 910 l 76 181 l 76 0 l 771 0 "},"ž":{"ha":711,"x_min":69,"x_max":642,"o":"m 589 1064 l 447 1099 l 363 1006 l 279 1097 l 138 1063 l 294 889 l 431 889 l 589 1064 m 642 0 l 642 175 l 300 175 l 642 681 l 642 819 l 69 819 l 69 644 l 413 644 l 69 139 l 69 0 l 642 0 "},"\u0010":{"ha":1389,"x_min":0,"x_max":0,"o":""},"\u0011":{"ha":1389,"x_min":0,"x_max":0,"o":""},"\u0012":{"ha":1389,"x_min":0,"x_max":0,"o":""},"\u0013":{"ha":1389,"x_min":0,"x_max":0,"o":""},"\u0014":{"ha":1389,"x_min":0,"x_max":0,"o":""},"½":{"ha":1113,"x_min":69,"x_max":1043,"o":"m 1043 0 l 1043 146 l 818 146 q 832 164 818 151 l 978 300 q 1028 368 1014 333 q 1043 444 1043 403 l 1043 525 q 1031 590 1043 560 q 996 642 1018 619 q 944 678 974 665 q 882 692 915 692 l 768 692 q 705 678 735 692 q 653 642 675 665 q 619 590 632 619 q 606 528 606 561 l 751 489 q 762 533 751 521 q 792 546 772 546 l 857 546 q 899 503 899 546 l 899 461 q 893 430 899 443 q 871 401 888 417 l 681 224 q 626 149 646 192 q 606 65 606 107 l 606 0 l 1043 0 m 675 1099 l 515 1099 l 183 0 l 343 0 l 675 1099 m 219 406 l 219 1097 l 69 1097 l 69 406 l 219 406 "},"¼":{"ha":1029,"x_min":69,"x_max":960,"o":"m 960 140 l 960 286 l 896 286 l 896 692 l 757 692 l 522 269 l 522 140 l 750 140 l 750 0 l 896 0 l 896 140 l 960 140 m 675 1099 l 515 1099 l 183 0 l 343 0 l 675 1099 m 219 406 l 219 1097 l 69 1097 l 69 406 l 219 406 m 750 286 l 685 286 l 750 407 l 750 286 "},"¹":{"ha":289,"x_min":69,"x_max":219,"o":"m 219 406 l 219 1097 l 69 1097 l 69 406 l 219 406 "},"¾":{"ha":1283,"x_min":69,"x_max":1214,"o":"m 1214 140 l 1214 286 l 1149 286 l 1149 692 l 1011 692 l 776 269 l 776 140 l 1004 140 l 1004 0 l 1149 0 l 1149 140 l 1214 140 m 929 1099 l 769 1099 l 438 0 l 597 0 l 929 1099 m 508 572 l 508 649 q 467 753 508 715 q 497 797 486 769 q 508 856 508 824 l 508 931 q 496 996 508 965 q 461 1049 483 1026 q 410 1084 439 1071 q 347 1097 381 1097 l 233 1097 q 122 1051 167 1097 q 69 935 78 1006 l 215 896 q 257 951 215 951 l 322 951 q 364 910 364 951 l 364 867 q 322 824 364 824 l 246 824 l 246 679 l 322 679 q 364 636 364 679 l 364 594 q 322 551 364 551 l 257 551 q 224 564 233 551 q 215 606 215 576 l 69 568 q 83 510 71 539 q 115 458 94 482 q 163 420 135 435 q 225 406 190 406 l 347 406 q 410 419 381 406 q 462 455 440 432 q 496 508 483 478 q 508 572 508 538 m 1004 286 l 939 286 l 1004 407 l 1004 286 "},"³":{"ha":578,"x_min":69,"x_max":508,"o":"m 508 572 l 508 649 q 467 753 508 715 q 497 797 486 769 q 508 856 508 824 l 508 931 q 496 996 508 965 q 461 1049 483 1026 q 410 1084 439 1071 q 347 1097 381 1097 l 233 1097 q 122 1051 167 1097 q 69 935 78 1006 l 215 896 q 257 951 215 951 l 322 951 q 364 910 364 951 l 364 867 q 322 824 364 824 l 246 824 l 246 679 l 322 679 q 364 636 364 679 l 364 594 q 322 551 364 551 l 257 551 q 224 564 233 551 q 215 606 215 576 l 69 568 q 83 510 71 539 q 115 458 94 482 q 163 420 135 435 q 225 406 190 406 l 347 406 q 410 419 381 406 q 462 455 440 432 q 496 508 483 478 q 508 572 508 538 "},"²":{"ha":576,"x_min":69,"x_max":507,"o":"m 507 406 l 507 551 l 282 551 q 296 569 281 556 l 442 706 q 492 774 478 739 q 507 850 507 810 l 507 931 q 494 996 507 965 q 460 1049 482 1026 q 408 1084 438 1071 q 344 1097 378 1097 l 232 1097 q 169 1084 199 1097 q 117 1048 139 1071 q 82 996 94 1025 q 69 933 69 967 l 214 896 q 225 940 214 928 q 256 951 236 951 l 321 951 q 363 910 363 951 l 363 868 q 356 835 363 849 q 333 807 350 822 l 144 631 q 90 556 110 599 q 69 471 69 513 l 69 406 l 507 406 "},"¦":{"ha":611,"x_min":229,"x_max":382,"o":"m 382 643 l 382 1194 l 229 1194 l 229 643 l 382 643 m 382 -97 l 382 454 l 229 454 l 229 -97 l 382 -97 "},"−":{"ha":736,"x_min":76,"x_max":660,"o":"m 660 454 l 660 643 l 76 643 l 76 454 l 660 454 "},"×":{"ha":744,"x_min":90,"x_max":654,"o":"m 654 397 l 503 549 l 654 700 l 522 831 l 372 679 l 221 831 l 90 700 l 242 549 l 90 397 l 221 267 l 372 418 l 522 267 l 654 397 "},"\u001e":{"ha":1389,"x_min":0,"x_max":0,"o":""},"\u001f":{"ha":1389,"x_min":0,"x_max":0,"o":""},"!":{"ha":347,"x_min":76,"x_max":271,"o":"m 271 286 l 271 1097 l 76 1097 l 76 286 l 271 286 m 271 0 l 271 189 l 76 189 l 76 0 l 271 0 "},"\"":{"ha":542,"x_min":63,"x_max":479,"o":"m 479 1181 l 299 1181 l 333 833 l 444 833 l 479 1181 m 243 1181 l 63 1181 l 97 833 l 208 833 l 243 1181 "},"#":{"ha":904,"x_min":42,"x_max":863,"o":"m 863 825 l 747 825 l 778 992 l 601 992 l 571 825 l 431 825 l 461 993 l 285 993 l 254 825 l 140 825 l 111 658 l 225 658 l 186 438 l 71 438 l 42 271 l 157 271 l 128 104 l 304 104 l 333 271 l 474 271 l 444 103 l 621 103 l 650 271 l 767 271 l 796 438 l 679 438 l 718 658 l 833 658 l 863 825 m 542 658 l 503 438 l 363 438 l 401 658 l 542 658 "},"$":{"ha":819,"x_min":76,"x_max":743,"o":"m 743 778 q 718 866 739 825 q 665 937 697 907 q 592 983 633 967 q 503 1000 550 1000 l 490 1000 l 490 1097 l 332 1097 l 332 1000 l 318 1000 q 224 981 268 1000 q 147 930 179 963 q 95 853 114 897 q 76 758 76 808 l 76 707 q 126 556 76 617 q 254 464 175 496 l 494 368 q 540 338 528 354 q 553 285 553 321 q 533 212 553 238 q 463 186 513 186 l 357 186 q 293 207 319 186 q 268 269 267 228 l 76 222 q 153 61 92 122 q 318 0 215 0 l 332 0 l 332 -99 l 490 -99 l 490 0 l 503 0 q 597 19 553 0 q 673 70 640 38 q 724 147 706 103 q 743 242 743 192 l 743 317 q 730 394 743 360 q 693 456 717 429 q 638 503 669 483 q 568 539 606 524 l 319 638 q 278 670 288 651 q 268 725 268 689 q 357 814 268 814 l 463 814 q 526 793 500 814 q 553 731 553 772 l 743 778 "},"%":{"ha":1385,"x_min":69,"x_max":1315,"o":"m 1315 174 l 1315 518 q 1302 586 1315 554 q 1265 642 1289 618 q 1210 679 1242 665 q 1143 693 1179 693 l 1035 693 q 967 679 999 693 q 913 642 936 665 q 877 586 890 618 q 864 518 864 554 l 864 174 q 877 106 864 138 q 913 50 890 74 q 967 13 936 26 q 1035 -1 999 -1 l 1143 -1 q 1210 13 1179 -1 q 1265 50 1242 26 q 1302 106 1289 74 q 1315 174 1315 138 m 935 1099 l 775 1099 l 443 0 l 603 0 l 935 1099 m 521 578 l 521 922 q 508 990 521 958 q 471 1046 494 1022 q 416 1083 447 1069 q 350 1097 385 1097 l 240 1097 q 174 1083 204 1097 q 119 1046 143 1069 q 83 990 96 1022 q 69 922 69 958 l 69 579 q 83 510 69 542 q 119 454 96 478 q 174 417 143 431 q 240 404 204 404 l 350 404 q 416 418 385 404 q 471 456 447 432 q 508 510 494 479 q 521 578 521 542 m 1165 197 q 1117 147 1165 147 l 1061 147 q 1013 197 1013 147 l 1013 494 q 1061 544 1013 544 l 1117 544 q 1165 494 1165 544 l 1165 197 m 372 601 q 324 553 372 553 l 267 553 q 218 601 218 553 l 218 899 q 267 949 218 949 l 324 949 q 372 899 372 949 l 372 601 "},"&":{"ha":864,"x_min":76,"x_max":801,"o":"m 801 0 l 801 189 q 715 275 715 189 l 715 454 l 801 454 l 801 643 l 715 643 l 715 713 l 521 713 l 521 643 l 396 643 q 299 740 299 643 q 299 800 299 769 q 306 854 299 831 q 334 893 314 878 q 396 908 354 908 l 424 908 q 491 886 461 908 q 521 824 521 864 l 715 874 q 688 962 710 921 q 632 1033 665 1003 q 556 1080 599 1063 q 465 1097 513 1097 l 354 1097 q 256 1078 301 1097 q 177 1024 211 1058 q 124 944 143 990 q 104 847 104 899 l 104 721 q 126 623 104 671 q 196 551 149 575 q 108 483 139 526 q 76 378 76 440 l 76 250 q 96 151 76 197 q 149 72 115 106 q 228 19 182 39 q 326 0 274 0 l 479 0 q 516 3 496 0 q 555 13 536 6 q 590 31 574 19 q 617 57 607 42 q 651 23 629 35 q 700 6 674 11 q 753 1 726 1 q 801 0 779 0 m 521 454 l 521 272 q 492 209 521 229 q 424 189 464 189 q 367 190 394 189 q 318 199 339 190 q 284 227 297 207 q 271 286 271 247 l 271 357 q 368 454 271 454 l 521 454 "},"'":{"ha":306,"x_min":63,"x_max":243,"o":"m 243 1181 l 63 1181 l 97 833 l 208 833 l 243 1181 "},"(":{"ha":528,"x_min":76,"x_max":451,"o":"m 451 -58 q 376 76 410 1 q 317 231 342 151 q 280 392 293 311 q 267 547 267 474 q 280 701 267 619 q 317 863 293 783 q 376 1018 342 943 q 451 1153 410 1093 l 290 1193 q 199 1043 239 1118 q 131 889 158 968 q 90 725 104 810 q 76 547 76 640 q 90 369 76 453 q 131 206 104 285 q 199 53 158 128 q 290 -97 239 -22 l 451 -58 "},")":{"ha":528,"x_min":76,"x_max":451,"o":"m 451 547 q 438 725 451 640 q 397 889 424 810 q 329 1043 369 968 q 238 1193 289 1118 l 76 1153 q 152 1018 118 1093 q 210 863 186 943 q 248 701 235 783 q 261 547 261 619 q 248 392 261 474 q 210 231 235 311 q 152 76 186 151 q 76 -58 118 1 l 238 -97 q 329 53 289 -22 q 397 206 369 128 q 438 369 424 285 q 451 547 451 453 "},"*":{"ha":500,"x_min":42,"x_max":458,"o":"m 458 811 l 346 882 l 458 951 l 414 1028 l 297 965 l 293 1097 l 206 1097 l 201 965 l 85 1028 l 42 951 l 153 882 l 42 811 l 85 736 l 200 797 l 206 665 l 293 665 l 299 796 l 414 736 l 458 811 "},"+":{"ha":736,"x_min":76,"x_max":660,"o":"m 660 457 l 660 640 l 463 640 l 463 840 l 274 840 l 274 640 l 76 640 l 76 457 l 274 457 l 274 257 l 463 257 l 463 457 l 660 457 "},",":{"ha":347,"x_min":0,"x_max":271,"o":"m 271 146 l 93 215 l 0 -158 l 110 -201 l 271 146 "},"-":{"ha":444,"x_min":28,"x_max":417,"o":"m 417 382 l 417 571 l 28 571 l 28 382 l 417 382 "},".":{"ha":347,"x_min":76,"x_max":271,"o":"m 271 0 l 271 189 l 76 189 l 76 0 l 271 0 "},"/":{"ha":551,"x_min":0,"x_max":551,"o":"m 551 1194 l 392 1194 l 0 -97 l 160 -97 l 551 1194 "},":":{"ha":347,"x_min":76,"x_max":271,"o":"m 271 454 l 271 643 l 76 643 l 76 454 l 271 454 m 271 0 l 271 189 l 76 189 l 76 0 l 271 0 "},";":{"ha":347,"x_min":0,"x_max":271,"o":"m 271 454 l 271 643 l 76 643 l 76 454 l 271 454 m 271 146 l 93 215 l 0 -158 l 110 -201 l 271 146 "},"<":{"ha":875,"x_min":90,"x_max":785,"o":"m 785 157 l 785 368 l 324 546 l 785 724 l 785 936 l 90 647 l 90 447 l 785 157 "},"=":{"ha":736,"x_min":76,"x_max":660,"o":"m 660 643 l 660 829 l 76 829 l 76 643 l 660 643 m 660 265 l 660 454 l 76 454 l 76 265 l 660 265 "},">":{"ha":875,"x_min":90,"x_max":785,"o":"m 785 447 l 785 647 l 90 936 l 90 724 l 551 546 l 90 368 l 90 157 l 785 447 "},"?":{"ha":806,"x_min":63,"x_max":729,"o":"m 729 763 l 729 847 q 710 944 729 899 q 656 1024 690 990 q 576 1078 622 1058 q 479 1097 531 1097 l 313 1097 q 215 1078 260 1097 q 138 1029 171 1060 q 85 958 104 999 q 63 874 65 917 l 257 824 q 283 883 260 858 q 354 908 306 908 l 438 908 q 535 811 535 908 l 535 794 q 486 690 535 735 l 304 525 q 251 449 272 496 q 231 354 231 403 l 231 286 l 425 286 l 425 313 q 435 368 425 346 q 471 414 444 390 l 646 572 q 706 656 682 604 q 729 763 729 707 m 425 0 l 425 189 l 231 189 l 231 0 l 425 0 "},"@":{"ha":1411,"x_min":49,"x_max":1363,"o":"m 1338 413 q 1332 676 1363 553 q 1228 890 1301 799 q 1047 1033 1156 981 q 810 1085 939 1085 q 560 1035 682 1085 q 339 898 439 986 q 169 689 239 810 q 74 426 99 568 q 76 162 49 286 q 172 -56 103 38 q 348 -204 242 -150 q 588 -258 454 -258 q 758 -235 679 -258 q 903 -178 836 -211 l 849 -68 q 740 -108 800 -92 q 611 -124 681 -124 q 418 -81 501 -124 q 283 34 335 -39 q 212 204 231 107 q 213 413 193 301 q 287 622 232 524 q 421 792 342 719 q 598 908 500 865 q 800 950 696 950 q 987 908 904 950 q 1123 792 1069 865 q 1197 622 1176 719 q 1199 413 1218 524 q 1182 343 1192 381 q 1158 276 1172 306 q 1134 231 1147 253 q 1103 191 1121 208 q 1065 163 1086 174 q 1015 151 1043 151 q 948 178 961 151 q 946 269 935 206 l 1008 628 q 978 765 1022 711 q 850 819 935 819 l 679 819 q 531 772 593 819 q 454 640 469 724 l 453 629 l 611 588 q 638 633 619 618 q 696 649 657 649 l 764 649 q 824 575 838 649 l 811 500 l 615 500 q 535 485 574 500 q 467 444 497 471 q 417 383 438 418 q 389 307 396 349 l 368 194 q 369 117 361 153 q 399 56 378 82 q 453 15 421 29 q 528 0 486 0 l 628 0 q 728 23 686 0 q 806 86 771 46 q 858 24 822 47 q 960 0 893 0 l 981 0 q 1144 51 1072 0 q 1260 179 1217 103 q 1283 228 1272 200 q 1305 288 1294 257 q 1324 351 1315 319 q 1338 413 1332 383 m 781 329 l 765 244 q 738 189 758 206 q 679 172 718 172 l 614 172 q 561 189 576 172 q 553 244 546 206 l 556 256 q 642 329 568 329 l 781 329 "},"A":{"ha":847,"x_min":76,"x_max":771,"o":"m 771 0 l 518 1097 l 329 1097 l 76 0 l 278 0 l 314 182 l 533 182 l 569 0 l 771 0 m 497 371 l 350 371 l 410 681 q 414 694 411 686 q 424 703 417 703 q 433 694 431 703 q 438 681 436 686 l 497 371 "},"B":{"ha":847,"x_min":76,"x_max":771,"o":"m 771 250 l 771 368 q 761 446 771 415 q 738 497 751 476 q 708 529 724 517 q 678 550 692 542 q 706 569 690 557 q 737 603 722 582 q 761 655 751 624 q 771 732 771 686 l 771 847 q 751 944 771 899 q 698 1024 732 990 q 618 1078 664 1058 q 521 1097 572 1097 l 76 1097 l 76 908 l 132 908 l 132 189 l 76 189 l 76 0 l 521 0 q 618 19 572 0 q 698 73 664 39 q 751 152 732 107 q 771 250 771 197 m 576 739 q 479 642 576 642 l 326 642 l 326 908 l 479 908 q 576 811 576 908 l 576 739 m 576 286 q 551 215 576 240 q 479 189 526 189 l 326 189 l 326 453 l 479 453 q 576 356 576 453 l 576 286 "},"C":{"ha":847,"x_min":76,"x_max":771,"o":"m 771 226 l 576 275 q 551 212 576 235 q 479 189 525 189 l 368 189 q 271 286 271 189 l 271 811 q 368 908 271 908 l 479 908 q 551 882 526 908 q 576 819 576 856 l 771 868 q 747 956 767 914 q 694 1028 726 997 q 617 1078 661 1060 q 521 1097 572 1097 l 326 1097 q 228 1078 274 1097 q 149 1024 183 1058 q 96 944 115 990 q 76 847 76 899 l 76 250 q 96 152 76 197 q 149 73 115 107 q 228 19 183 39 q 326 0 274 0 l 521 0 q 617 19 572 0 q 694 69 661 38 q 747 141 726 100 q 771 226 767 182 "},"D":{"ha":847,"x_min":76,"x_max":771,"o":"m 771 250 l 771 847 q 751 944 771 899 q 698 1024 732 990 q 618 1078 664 1058 q 521 1097 572 1097 l 76 1097 l 76 908 l 132 908 l 132 189 l 76 189 l 76 0 l 521 0 q 618 19 572 0 q 698 73 664 39 q 751 152 732 107 q 771 250 771 197 m 576 286 q 479 189 576 189 l 326 189 l 326 908 l 479 908 q 576 811 576 908 l 576 286 "},"E":{"ha":847,"x_min":76,"x_max":771,"o":"m 771 0 l 771 189 l 271 189 l 271 454 l 632 454 l 632 643 l 271 643 l 271 908 l 771 908 l 771 1097 l 76 1097 l 76 0 l 771 0 "},"F":{"ha":847,"x_min":76,"x_max":771,"o":"m 771 908 l 771 1097 l 76 1097 l 76 0 l 271 0 l 271 454 l 632 454 l 632 643 l 271 643 l 271 908 l 771 908 "},"G":{"ha":847,"x_min":76,"x_max":771,"o":"m 771 250 l 771 579 l 438 579 l 438 390 l 576 390 l 576 286 q 479 189 576 189 l 368 189 q 271 286 271 189 l 271 811 q 368 908 271 908 l 479 908 q 551 883 526 908 q 576 824 576 857 l 771 872 q 744 960 764 919 q 691 1032 724 1001 q 615 1080 658 1063 q 521 1097 572 1097 l 326 1097 q 228 1078 274 1097 q 149 1024 183 1058 q 96 944 115 990 q 76 847 76 899 l 76 250 q 96 152 76 197 q 149 73 115 107 q 228 19 183 39 q 326 0 274 0 l 521 0 q 618 19 572 0 q 698 73 664 39 q 751 152 732 107 q 771 250 771 197 "},"H":{"ha":847,"x_min":76,"x_max":771,"o":"m 771 0 l 771 1097 l 576 1097 l 576 643 l 271 643 l 271 1097 l 76 1097 l 76 0 l 271 0 l 271 454 l 576 454 l 576 0 l 771 0 "},"I":{"ha":347,"x_min":76,"x_max":271,"o":"m 271 0 l 271 1097 l 76 1097 l 76 0 l 271 0 "},"J":{"ha":847,"x_min":76,"x_max":771,"o":"m 771 250 l 771 1097 l 576 1097 l 576 286 q 479 189 576 189 l 368 189 q 296 214 321 189 q 271 275 271 239 l 76 226 q 103 137 82 178 q 156 65 124 96 q 233 17 189 35 q 326 0 276 0 l 521 0 q 618 19 572 0 q 698 73 664 39 q 751 152 732 107 q 771 250 771 197 "},"K":{"ha":847,"x_min":76,"x_max":771,"o":"m 771 0 l 771 74 q 764 133 771 107 q 733 199 757 160 l 492 610 l 711 882 q 758 960 744 924 q 771 1038 771 997 l 771 1097 l 576 1097 l 576 1060 q 570 1012 576 1031 q 542 965 564 993 l 271 628 l 271 1097 l 76 1097 l 76 0 l 271 0 l 271 347 l 357 457 l 556 119 q 572 80 567 100 q 576 40 576 60 l 576 0 l 771 0 "},"L":{"ha":847,"x_min":76,"x_max":771,"o":"m 771 0 l 771 189 l 271 189 l 271 1097 l 76 1097 l 76 0 l 771 0 "},"M":{"ha":847,"x_min":76,"x_max":771,"o":"m 771 0 l 771 1097 l 590 1097 l 436 667 q 431 656 435 664 q 424 649 428 649 q 416 656 419 649 q 411 667 413 664 l 257 1097 l 76 1097 l 76 0 l 271 0 l 271 521 q 272 531 271 525 q 279 538 274 538 q 288 532 285 538 q 292 524 290 526 l 408 210 q 414 199 411 204 q 424 194 417 194 q 433 199 431 194 q 439 210 436 204 l 556 525 q 560 534 557 528 q 568 540 564 540 q 575 533 574 540 q 576 522 576 525 l 576 0 l 771 0 "},"N":{"ha":847,"x_min":76,"x_max":771,"o":"m 771 0 l 771 1097 l 576 1097 l 576 456 l 260 1097 l 76 1097 l 76 0 l 271 0 l 271 639 l 589 0 l 771 0 "},"O":{"ha":847,"x_min":76,"x_max":771,"o":"m 771 250 l 771 847 q 751 944 771 899 q 698 1024 732 990 q 618 1078 664 1058 q 521 1097 572 1097 l 326 1097 q 228 1078 274 1097 q 149 1024 183 1058 q 96 944 115 990 q 76 847 76 899 l 76 250 q 96 151 76 197 q 149 72 115 106 q 228 19 183 39 q 326 0 274 0 l 521 0 q 618 19 572 0 q 698 73 664 39 q 751 152 732 107 q 771 250 771 197 m 576 286 q 551 215 576 240 q 479 189 526 189 l 368 189 q 271 286 271 189 l 271 811 q 368 908 271 908 l 479 908 q 576 811 576 908 l 576 286 "},"P":{"ha":847,"x_min":76,"x_max":771,"o":"m 771 704 l 771 847 q 751 944 771 899 q 698 1024 732 990 q 618 1078 664 1058 q 521 1097 572 1097 l 76 1097 l 76 0 l 271 0 l 271 454 l 521 454 q 618 474 572 454 q 698 527 664 493 q 751 606 732 561 q 771 704 771 651 m 576 740 q 479 643 576 643 l 271 643 l 271 908 l 479 908 q 576 811 576 908 l 576 740 "},"Q":{"ha":847,"x_min":76,"x_max":771,"o":"m 771 -28 l 699 76 q 749 144 726 100 q 771 250 771 188 l 771 847 q 751 946 771 900 q 698 1025 732 992 q 618 1078 664 1058 q 521 1097 572 1097 l 326 1097 q 228 1078 274 1097 q 149 1024 182 1058 q 96 944 115 990 q 76 847 76 899 l 76 250 q 96 152 76 197 q 149 73 115 107 q 228 19 183 39 q 326 0 274 0 l 518 0 q 556 4 540 0 l 578 -28 l 771 -28 m 576 278 q 564 274 576 257 l 508 357 l 314 357 l 429 189 l 368 189 q 271 286 271 189 l 271 811 q 368 908 271 908 l 479 908 q 576 811 576 908 l 576 278 "},"R":{"ha":847,"x_min":76,"x_max":771,"o":"m 771 0 l 601 457 q 726 539 681 476 q 771 706 771 601 l 771 847 q 751 944 771 899 q 698 1024 732 990 q 618 1078 664 1058 q 521 1097 572 1097 l 76 1097 l 76 0 l 271 0 l 271 454 l 396 454 l 563 0 l 771 0 m 576 740 q 479 643 576 643 l 271 643 l 271 908 l 479 908 q 551 883 525 908 q 576 811 576 858 l 576 740 "},"S":{"ha":847,"x_min":76,"x_max":771,"o":"m 771 250 l 771 357 q 720 499 771 443 q 589 586 669 554 l 328 690 q 281 727 292 704 q 271 797 271 750 l 271 811 q 368 908 271 908 l 479 908 q 550 885 526 908 q 576 821 574 861 l 771 869 q 747 955 767 914 q 694 1028 726 996 q 617 1078 661 1060 q 521 1097 574 1097 l 326 1097 q 228 1078 274 1097 q 149 1024 183 1058 q 96 944 115 990 q 76 847 76 899 l 76 765 q 92 674 76 714 q 133 602 107 633 q 192 549 160 571 q 261 514 225 528 l 514 413 q 563 378 550 397 q 576 324 576 360 l 576 286 q 479 189 576 189 l 368 189 q 297 213 321 189 q 271 279 274 236 l 76 231 q 102 140 82 182 q 155 67 122 99 q 231 18 188 36 q 326 0 274 0 l 521 0 q 618 19 572 0 q 698 73 664 39 q 751 152 732 107 q 771 250 771 197 "},"T":{"ha":847,"x_min":76,"x_max":771,"o":"m 771 908 l 771 1097 l 76 1097 l 76 908 l 326 908 l 326 0 l 521 0 l 521 908 l 771 908 "},"U":{"ha":847,"x_min":76,"x_max":771,"o":"m 771 250 l 771 1097 l 576 1097 l 576 286 q 479 189 576 189 l 368 189 q 271 286 271 189 l 271 1097 l 76 1097 l 76 250 q 96 152 76 197 q 149 73 115 107 q 228 19 182 39 q 326 0 274 0 l 521 0 q 618 19 572 0 q 698 73 664 39 q 751 152 732 107 q 771 250 771 197 "},"V":{"ha":847,"x_min":76,"x_max":771,"o":"m 771 1097 l 569 1097 l 438 476 q 433 463 436 472 q 424 454 431 454 q 414 463 417 454 q 410 476 411 472 l 278 1097 l 76 1097 l 331 0 l 517 0 l 771 1097 "},"W":{"ha":849,"x_min":76,"x_max":772,"o":"m 772 1097 l 576 1097 l 546 563 q 544 553 546 558 q 538 547 543 547 q 529 553 532 547 q 525 563 526 558 l 440 881 q 435 891 439 886 q 425 896 432 896 q 415 891 418 896 q 410 881 411 886 l 324 563 q 319 553 322 558 q 311 547 317 547 q 304 553 306 547 q 303 563 303 558 l 272 1097 l 76 1097 l 139 0 l 321 0 l 411 329 q 415 340 413 335 q 425 344 418 344 q 435 340 432 344 q 439 329 438 335 l 528 0 l 711 0 l 772 1097 "},"X":{"ha":847,"x_min":76,"x_max":771,"o":"m 771 0 l 771 64 q 763 136 771 100 q 738 203 756 172 l 533 550 l 738 896 q 763 963 756 926 q 771 1035 771 999 l 771 1097 l 576 1097 l 576 1058 q 572 1016 576 1038 q 557 975 568 994 l 424 742 l 293 972 q 276 1015 282 993 q 271 1058 271 1038 l 271 1097 l 76 1097 l 76 1035 q 85 963 76 999 q 111 896 93 926 l 315 549 l 111 203 q 85 136 93 172 q 76 64 76 100 l 76 0 l 271 0 l 271 40 q 276 83 271 61 q 293 126 282 106 l 424 360 l 557 124 q 572 83 568 104 q 576 40 576 61 l 576 0 l 771 0 "},"Y":{"ha":847,"x_min":76,"x_max":771,"o":"m 771 1031 l 771 1097 l 576 1097 l 576 1054 q 572 1010 576 1033 q 558 964 568 986 l 424 650 l 289 964 q 275 1009 279 985 q 271 1054 271 1033 l 271 1097 l 76 1097 l 76 1032 q 84 960 76 996 q 111 883 92 924 l 326 404 l 326 0 l 521 0 l 521 404 l 736 883 q 771 1031 771 961 "},"Z":{"ha":847,"x_min":76,"x_max":771,"o":"m 771 0 l 771 189 l 306 189 l 771 917 l 771 1097 l 76 1099 l 76 910 l 543 910 l 76 181 l 76 0 l 771 0 "},"[":{"ha":372,"x_min":76,"x_max":400,"o":"m 400 -258 l 400 -92 l 257 -92 l 257 1189 l 400 1189 l 400 1356 l 76 1356 l 76 -258 l 400 -258 "},"\\":{"ha":551,"x_min":0,"x_max":551,"o":"m 551 -97 l 160 1194 l 0 1194 l 392 -97 l 551 -97 "},"]":{"ha":372,"x_min":-28,"x_max":296,"o":"m 296 -258 l 296 1356 l -28 1356 l -28 1189 l 115 1189 l 115 -92 l -28 -92 l -28 -258 l 296 -258 "},"^":{"ha":851,"x_min":76,"x_max":775,"o":"m 775 501 l 497 1025 l 353 1025 l 76 501 l 272 501 l 419 779 l 576 501 l 775 501 "},"_":{"ha":847,"x_min":0,"x_max":847,"o":"m 847 -278 l 847 -125 l 0 -125 l 0 -278 l 847 -278 "},"`":{"ha":847,"x_min":133,"x_max":419,"o":"m 419 946 l 243 1161 l 133 1044 l 346 874 l 419 946 "},"a":{"ha":692,"x_min":56,"x_max":622,"o":"m 622 0 l 622 625 q 608 703 622 667 q 567 765 593 739 q 505 805 540 790 q 428 819 469 819 l 258 819 q 117 771 172 819 q 63 638 63 722 l 63 625 l 233 582 q 251 628 236 613 q 304 644 267 644 l 372 644 q 442 574 442 644 l 442 503 l 250 503 q 173 488 208 503 q 111 447 138 472 q 70 385 85 421 q 56 307 56 349 l 56 196 q 70 118 56 154 q 111 56 85 82 q 173 15 138 29 q 250 0 208 0 l 351 0 q 413 14 385 0 q 456 49 442 28 l 476 0 l 622 0 m 442 244 q 372 175 442 175 l 306 175 q 236 244 236 175 l 236 256 q 253 310 236 293 q 306 326 269 326 l 442 326 l 442 244 "},"b":{"ha":726,"x_min":69,"x_max":657,"o":"m 657 194 l 657 625 q 642 703 657 667 q 602 765 628 739 q 541 805 576 790 q 464 819 506 819 l 368 819 q 301 808 332 819 q 250 769 271 796 l 250 1097 l 69 1097 l 69 0 l 215 0 l 233 47 q 286 10 254 21 q 354 0 318 0 l 464 0 q 541 15 506 0 q 602 55 576 29 q 642 117 628 81 q 657 194 657 153 m 476 246 q 407 175 476 175 l 319 175 q 250 246 250 175 l 250 574 q 319 644 250 644 l 407 644 q 476 574 476 644 l 476 246 "},"c":{"ha":715,"x_min":69,"x_max":646,"o":"m 646 192 l 465 238 q 396 175 461 175 l 319 175 q 250 246 250 175 l 250 574 q 319 644 250 644 l 396 644 q 465 582 461 644 l 646 628 q 631 705 646 669 q 591 765 617 740 q 530 805 565 790 q 453 819 494 819 l 263 819 q 185 805 221 819 q 124 765 150 790 q 84 703 99 739 q 69 625 69 667 l 69 194 q 84 117 69 153 q 124 55 99 81 q 185 15 150 29 q 263 0 221 0 l 453 0 q 529 15 494 0 q 590 54 564 29 q 631 115 615 79 q 646 192 646 150 "},"d":{"ha":726,"x_min":69,"x_max":657,"o":"m 657 0 l 657 1097 l 476 1097 l 476 769 q 425 808 456 796 q 358 819 394 819 l 263 819 q 185 805 221 819 q 124 765 150 790 q 84 703 99 739 q 69 625 69 667 l 69 194 q 84 117 69 153 q 124 55 99 81 q 185 15 150 29 q 263 0 221 0 l 375 0 q 492 49 454 0 l 513 0 l 657 0 m 476 246 q 407 175 476 175 l 319 175 q 250 246 250 175 l 250 574 q 319 644 250 644 l 407 644 q 476 574 476 644 l 476 246 "},"e":{"ha":706,"x_min":69,"x_max":636,"o":"m 636 317 l 636 624 q 622 701 636 665 q 581 764 607 738 q 519 805 556 790 q 442 819 483 819 l 263 819 q 185 805 221 819 q 124 764 150 790 q 84 702 99 738 q 69 625 69 667 l 69 194 q 84 117 69 153 q 125 55 99 81 q 188 15 151 29 q 265 0 224 0 l 435 0 q 574 49 519 0 q 629 182 629 97 l 629 194 l 458 238 q 440 191 456 207 q 389 175 425 175 l 321 175 q 250 246 250 175 l 250 317 l 636 317 m 456 575 l 456 493 l 250 493 l 250 575 q 267 628 250 611 q 321 644 283 644 l 386 644 q 456 575 457 644 "},"f":{"ha":483,"x_min":21,"x_max":463,"o":"m 463 921 l 463 1096 l 285 1096 q 208 1081 243 1096 q 146 1040 172 1067 q 105 978 119 1014 q 90 900 90 942 l 90 813 l 21 813 l 21 638 l 90 638 l 90 0 l 271 0 l 271 638 l 449 638 l 449 813 l 271 813 l 271 851 q 340 921 271 921 l 463 921 "},"g":{"ha":726,"x_min":69,"x_max":657,"o":"m 657 -85 l 657 819 l 511 819 l 490 774 q 441 806 474 793 q 372 819 408 819 l 263 819 q 185 805 221 819 q 124 765 150 790 q 84 703 99 739 q 69 626 69 668 l 69 233 q 84 156 69 192 q 124 94 99 119 q 185 53 150 68 q 263 39 221 39 l 358 39 q 425 53 390 39 q 476 89 460 68 l 476 -32 q 407 -103 476 -103 l 332 -103 q 279 -87 294 -103 q 261 -40 264 -71 l 90 -83 l 90 -96 q 145 -229 90 -181 q 285 -278 200 -278 l 463 -278 q 540 -263 504 -278 q 602 -223 576 -249 q 642 -162 628 -197 q 657 -85 657 -126 m 476 285 q 407 215 476 215 l 319 215 q 250 285 250 215 l 250 574 q 319 644 250 644 l 407 644 q 476 574 476 644 l 476 285 "},"h":{"ha":726,"x_min":69,"x_max":657,"o":"m 657 0 l 657 624 q 642 701 657 665 q 601 764 628 738 q 540 805 575 790 q 463 819 504 819 l 368 819 q 301 805 336 819 q 250 769 267 790 l 250 1097 l 69 1097 l 69 0 l 250 0 l 250 574 q 319 644 250 644 l 407 644 q 476 574 476 644 l 476 0 l 657 0 "},"i":{"ha":319,"x_min":69,"x_max":250,"o":"m 250 921 l 250 1096 l 69 1096 l 69 921 l 250 921 m 250 0 l 250 819 l 69 819 l 69 0 l 250 0 "},"j":{"ha":319,"x_min":-56,"x_max":250,"o":"m 250 921 l 250 1096 l 69 1096 l 69 921 l 250 921 m 250 -103 l 250 819 l 69 819 l 69 -33 q 0 -103 69 -103 l -56 -103 l -56 -278 l 69 -278 q 201 -233 153 -278 q 250 -103 250 -187 "},"k":{"ha":726,"x_min":69,"x_max":657,"o":"m 657 0 l 657 51 q 650 97 657 76 q 624 149 643 118 l 429 467 l 606 657 q 645 716 633 689 q 657 774 657 743 l 657 819 l 474 819 l 474 792 q 467 757 474 769 q 442 725 461 744 l 250 517 l 250 1097 l 69 1097 l 69 0 l 250 0 l 250 294 l 296 347 l 456 90 q 474 31 474 63 l 474 -1 l 657 0 "},"l":{"ha":319,"x_min":69,"x_max":250,"o":"m 250 0 l 250 1097 l 69 1097 l 69 0 l 250 0 "},"m":{"ha":1024,"x_min":69,"x_max":954,"o":"m 954 0 l 954 624 q 940 701 954 665 q 899 764 925 738 q 838 805 874 790 q 761 819 803 819 l 714 819 q 623 799 661 819 q 564 746 585 778 q 506 799 543 778 q 415 819 468 819 l 368 819 q 301 805 336 819 q 250 769 267 790 l 250 819 l 69 819 l 69 0 l 250 0 l 250 574 q 319 644 250 644 l 351 644 q 421 574 421 644 l 421 0 l 603 0 l 603 574 q 672 644 603 644 l 704 644 q 774 574 774 644 l 774 0 l 954 0 "},"n":{"ha":699,"x_min":69,"x_max":629,"o":"m 629 0 l 629 624 q 615 701 629 665 q 574 764 600 738 q 513 805 549 790 q 436 819 478 819 l 368 819 q 301 805 336 819 q 250 769 267 790 l 250 819 l 69 819 l 69 0 l 250 0 l 250 574 q 319 644 250 644 l 379 644 q 449 574 449 644 l 449 0 l 629 0 "},"o":{"ha":715,"x_min":69,"x_max":646,"o":"m 646 194 l 646 624 q 631 701 646 665 q 590 764 617 738 q 528 805 564 790 q 451 819 493 819 l 264 819 q 187 805 222 819 q 125 765 151 790 q 84 703 99 739 q 69 625 69 667 l 69 194 q 84 117 69 153 q 125 55 99 81 q 187 15 151 29 q 264 0 222 0 l 451 0 q 528 15 493 0 q 590 55 564 29 q 631 117 617 81 q 646 194 646 153 m 465 246 q 396 175 465 175 l 319 175 q 250 246 250 175 l 250 574 q 319 644 250 644 l 396 644 q 465 574 465 644 l 465 246 "},"p":{"ha":726,"x_min":69,"x_max":657,"o":"m 657 194 l 657 625 q 642 703 657 667 q 602 765 628 739 q 541 805 576 790 q 464 819 506 819 l 354 819 q 287 808 318 819 q 235 771 256 797 l 214 819 l 69 819 l 69 -278 l 250 -278 l 250 50 q 301 12 271 24 q 368 0 332 0 l 464 0 q 541 15 506 0 q 602 55 576 29 q 642 117 628 81 q 657 194 657 153 m 476 246 q 407 176 476 176 l 319 176 q 250 246 250 176 l 250 574 q 319 644 250 644 l 407 644 q 476 574 476 644 l 476 246 "},"q":{"ha":726,"x_min":69,"x_max":657,"o":"m 657 -278 l 657 819 l 513 819 l 492 771 q 440 808 471 797 q 372 819 408 819 l 263 819 q 185 805 221 819 q 124 765 150 790 q 84 703 99 739 q 69 625 69 667 l 69 194 q 84 117 69 153 q 124 55 99 81 q 185 15 150 29 q 263 0 221 0 l 358 0 q 425 12 394 0 q 476 50 456 24 l 476 -278 l 657 -278 m 476 246 q 407 176 476 176 l 319 176 q 250 246 250 176 l 250 574 q 319 644 250 644 l 407 644 q 476 574 476 644 l 476 246 "},"r":{"ha":501,"x_min":69,"x_max":488,"o":"m 488 800 q 452 817 474 811 q 410 822 431 822 l 365 822 q 302 806 338 822 q 250 747 267 789 l 250 819 l 69 819 l 69 0 l 250 0 l 250 574 q 319 644 250 643 l 378 644 q 419 642 407 644 q 446 631 432 639 l 488 800 "},"s":{"ha":715,"x_min":69,"x_max":646,"o":"m 646 194 l 646 249 q 634 323 646 290 q 603 381 622 356 q 558 422 583 406 q 504 449 532 439 l 289 528 q 258 548 265 536 q 250 579 250 560 l 250 588 q 267 629 250 614 q 319 644 283 644 l 396 644 q 465 582 461 644 l 646 628 q 631 705 646 669 q 591 765 617 740 q 530 805 565 790 q 453 819 494 819 l 263 819 q 185 805 221 819 q 124 764 150 790 q 84 702 99 738 q 69 625 69 667 l 69 569 q 83 496 69 529 q 117 438 96 463 q 165 395 139 413 q 217 368 192 378 l 421 293 q 456 272 446 283 q 465 244 465 260 l 465 239 q 396 175 465 175 l 321 175 q 269 190 285 175 q 250 238 253 206 l 69 192 q 85 115 69 150 q 126 54 100 79 q 187 15 151 29 q 264 0 222 0 l 453 0 q 530 15 494 0 q 591 55 565 29 q 631 117 617 81 q 646 194 646 153 "},"t":{"ha":497,"x_min":21,"x_max":463,"o":"m 463 0 l 463 175 l 340 175 q 271 244 271 175 l 271 638 l 449 638 l 449 813 l 271 813 l 271 1026 l 90 981 l 90 813 l 21 813 l 21 638 l 90 638 l 90 196 q 105 118 90 154 q 146 56 119 82 q 208 15 172 29 q 285 0 243 0 l 463 0 "},"u":{"ha":699,"x_min":69,"x_max":629,"o":"m 629 0 l 629 819 l 449 819 l 449 244 q 379 175 449 175 l 319 175 q 250 244 250 175 l 250 819 l 69 819 l 69 196 q 84 118 69 154 q 124 56 99 82 q 185 14 150 29 q 263 -1 221 -1 l 331 -1 q 397 14 363 -1 q 449 50 432 29 l 449 0 l 629 0 "},"v":{"ha":694,"x_min":28,"x_max":667,"o":"m 667 819 l 482 819 l 360 360 q 356 349 358 356 q 347 343 354 343 q 339 349 342 343 q 335 360 336 356 l 213 819 l 28 819 l 258 0 l 438 0 l 667 819 "},"w":{"ha":799,"x_min":28,"x_max":771,"o":"m 771 819 l 586 819 l 526 401 q 524 391 526 397 q 514 385 521 385 q 506 391 508 385 q 501 401 503 397 l 415 663 q 408 676 413 674 q 400 679 404 679 q 392 676 396 679 q 385 663 388 674 l 297 401 q 294 391 296 397 q 285 385 292 385 q 276 391 279 385 q 272 401 274 397 l 213 819 l 28 819 l 161 0 l 313 0 l 388 253 q 400 268 393 268 q 413 253 407 268 l 488 0 l 639 0 l 771 819 "},"x":{"ha":735,"x_min":69,"x_max":665,"o":"m 665 0 l 665 54 q 658 110 665 82 q 636 161 651 138 l 467 413 l 636 663 q 658 713 651 686 q 665 768 665 740 l 665 819 l 485 819 l 485 775 q 481 742 485 760 q 469 713 478 725 l 367 557 l 268 711 q 254 744 258 726 q 250 776 250 763 l 250 819 l 69 819 l 69 768 q 100 663 69 710 l 268 411 l 100 161 q 69 54 69 114 l 69 0 l 250 0 l 250 44 q 254 78 250 60 q 268 111 258 96 l 367 267 l 469 111 q 481 80 478 97 q 485 47 485 63 l 485 0 l 665 0 "},"y":{"ha":694,"x_min":28,"x_max":667,"o":"m 667 819 l 482 819 l 358 346 q 355 335 357 342 q 346 329 353 329 q 338 335 340 329 q 333 346 335 342 l 213 819 l 28 819 l 258 0 l 250 -31 q 157 -103 229 -103 l 101 -103 l 101 -278 l 176 -278 q 251 -267 215 -278 q 318 -235 288 -257 q 372 -180 349 -214 q 408 -99 396 -146 l 667 819 "},"z":{"ha":711,"x_min":69,"x_max":642,"o":"m 642 0 l 642 175 l 300 175 l 642 681 l 642 819 l 69 819 l 69 644 l 413 644 l 69 139 l 69 0 l 642 0 "},"{":{"ha":419,"x_min":21,"x_max":447,"o":"m 447 -258 l 447 -97 l 351 -97 q 299 -43 299 -97 l 299 439 q 281 504 299 483 q 232 539 264 525 q 221 549 221 543 q 232 558 221 554 q 281 593 264 572 q 299 658 299 614 l 299 1142 q 351 1196 299 1193 l 447 1196 l 447 1357 l 282 1357 q 167 1316 207 1357 q 126 1201 126 1275 l 126 699 q 108 617 126 649 q 46 568 90 586 q 21 541 21 558 q 47 513 21 524 q 110 463 94 493 q 126 383 126 432 l 126 -103 q 167 -217 126 -176 q 282 -258 207 -258 l 447 -258 "},"|":{"ha":611,"x_min":229,"x_max":382,"o":"m 382 -97 l 382 1194 l 229 1194 l 229 -97 l 382 -97 "},"}":{"ha":419,"x_min":-28,"x_max":400,"o":"m 374 568 q 311 617 329 586 q 293 699 293 649 l 293 1201 q 253 1316 293 1275 q 138 1357 213 1357 l -28 1357 l -28 1196 l 68 1196 q 122 1142 122 1193 l 122 658 q 139 593 122 614 q 188 558 156 572 q 188 539 211 549 q 139 504 156 525 q 122 439 122 483 l 122 -43 q 68 -97 122 -97 l -28 -97 l -28 -258 l 138 -258 q 253 -217 213 -258 q 293 -103 293 -176 l 293 383 q 309 463 293 432 q 372 513 325 493 q 400 541 400 524 q 374 568 400 558 "},"~":{"ha":815,"x_min":69,"x_max":746,"o":"m 746 582 l 596 582 q 582 524 596 547 q 532 501 568 501 q 469 514 499 501 q 410 542 440 526 q 349 569 381 557 q 278 582 317 582 q 123 529 172 582 q 71 364 74 476 l 69 325 l 217 325 q 285 401 218 403 q 339 389 310 401 q 400 362 368 376 q 466 335 432 347 q 536 322 500 322 q 692 374 643 322 q 744 540 742 426 l 746 582 "},"":{"ha":1389,"x_min":0,"x_max":0,"o":""},"Ä":{"ha":847,"x_min":76,"x_max":771,"o":"m 642 1167 l 642 1326 l 474 1326 l 474 1167 l 642 1167 m 369 1167 l 369 1326 l 204 1326 l 204 1167 l 369 1167 m 771 0 l 518 1097 l 329 1097 l 76 0 l 278 0 l 314 182 l 533 182 l 569 0 l 771 0 m 497 371 l 350 371 l 410 681 q 414 694 411 686 q 424 703 417 703 q 433 694 431 703 q 438 681 436 686 l 497 371 "},"Å":{"ha":847,"x_min":76,"x_max":771,"o":"m 581 1315 q 569 1378 581 1349 q 536 1430 557 1407 q 487 1466 515 1453 q 425 1479 458 1479 q 363 1466 392 1479 q 313 1431 333 1453 q 280 1378 292 1408 q 268 1315 268 1349 q 280 1253 268 1282 q 313 1201 292 1224 q 363 1166 333 1179 q 425 1153 392 1153 q 487 1166 458 1153 q 536 1201 515 1179 q 569 1253 557 1224 q 581 1315 581 1283 m 771 0 l 518 1097 l 329 1097 l 76 0 l 278 0 l 314 182 l 533 182 l 569 0 l 771 0 m 479 1317 q 463 1276 479 1293 q 424 1258 447 1258 q 384 1276 400 1258 q 368 1317 368 1293 q 384 1358 368 1340 q 424 1375 400 1375 q 463 1358 447 1375 q 479 1317 479 1340 m 497 371 l 350 371 l 410 681 q 414 694 411 686 q 424 703 417 703 q 433 694 431 703 q 438 681 436 686 l 497 371 "},"Ç":{"ha":847,"x_min":76,"x_max":771,"o":"m 771 226 l 576 275 q 551 212 576 235 q 479 189 525 189 l 368 189 q 271 286 271 189 l 271 811 q 368 908 271 908 l 479 908 q 551 882 526 908 q 576 819 576 856 l 771 868 q 747 956 767 914 q 694 1028 726 997 q 617 1078 661 1060 q 521 1097 572 1097 l 326 1097 q 228 1078 274 1097 q 149 1024 183 1058 q 96 944 115 990 q 76 847 76 899 l 76 250 q 96 152 76 197 q 149 73 115 107 q 228 19 183 39 q 326 0 274 0 l 365 0 l 346 -111 l 394 -111 q 447 -156 447 -111 q 397 -200 447 -200 q 371 -201 385 -201 l 326 -201 l 326 -278 l 446 -278 q 548 -254 517 -278 q 579 -164 579 -231 q 572 -106 579 -128 q 551 -71 565 -83 q 519 -53 538 -58 q 476 -49 500 -49 l 486 0 l 521 0 q 617 19 572 0 q 694 69 661 38 q 747 141 726 100 q 771 226 767 182 "},"É":{"ha":847,"x_min":76,"x_max":771,"o":"m 625 1322 l 517 1439 l 340 1224 l 413 1151 l 625 1322 m 771 0 l 771 189 l 271 189 l 271 454 l 632 454 l 632 643 l 271 643 l 271 908 l 771 908 l 771 1097 l 76 1097 l 76 0 l 771 0 "},"Ñ":{"ha":847,"x_min":76,"x_max":771,"o":"m 651 1333 l 553 1333 q 543 1296 553 1311 q 510 1281 533 1281 q 468 1289 488 1281 q 428 1307 449 1297 q 387 1325 408 1317 q 340 1333 365 1333 q 237 1299 269 1335 q 201 1189 204 1264 l 201 1163 l 300 1163 q 344 1214 300 1214 q 381 1206 361 1214 q 422 1188 400 1197 q 466 1169 443 1178 q 513 1161 489 1161 q 616 1196 583 1161 q 651 1306 649 1231 l 651 1333 m 771 0 l 771 1097 l 576 1097 l 576 456 l 260 1097 l 76 1097 l 76 0 l 271 0 l 271 639 l 589 0 l 771 0 "},"Ö":{"ha":847,"x_min":76,"x_max":771,"o":"m 644 1163 l 644 1322 l 476 1322 l 476 1163 l 644 1163 m 372 1163 l 372 1322 l 207 1322 l 207 1163 l 372 1163 m 771 250 l 771 847 q 751 944 771 899 q 698 1024 732 990 q 618 1078 664 1058 q 521 1097 572 1097 l 326 1097 q 228 1078 274 1097 q 149 1024 183 1058 q 96 944 115 990 q 76 847 76 899 l 76 250 q 96 151 76 197 q 149 72 115 106 q 228 19 183 39 q 326 0 274 0 l 521 0 q 618 19 572 0 q 698 73 664 39 q 751 152 732 107 q 771 250 771 197 m 576 286 q 551 215 576 240 q 479 189 526 189 l 368 189 q 271 286 271 189 l 271 811 q 368 908 271 908 l 479 908 q 576 811 576 908 l 576 286 "},"Ü":{"ha":847,"x_min":76,"x_max":771,"o":"m 640 1163 l 640 1322 l 472 1322 l 472 1163 l 640 1163 m 368 1163 l 368 1322 l 201 1322 l 201 1163 l 368 1163 m 771 250 l 771 1097 l 576 1097 l 576 286 q 479 189 576 189 l 368 189 q 271 286 271 189 l 271 1097 l 76 1097 l 76 250 q 96 152 76 197 q 149 73 115 107 q 228 19 182 39 q 326 0 274 0 l 521 0 q 618 19 572 0 q 698 73 664 39 q 751 152 732 107 q 771 250 771 197 "},"á":{"ha":692,"x_min":56,"x_max":622,"o":"m 529 1044 l 421 1161 l 244 946 l 317 874 l 529 1044 m 622 0 l 622 625 q 608 703 622 667 q 567 765 593 739 q 505 805 540 790 q 428 819 469 819 l 258 819 q 117 771 172 819 q 63 638 63 722 l 63 625 l 233 582 q 251 628 236 613 q 304 644 267 644 l 372 644 q 442 574 442 644 l 442 503 l 250 503 q 173 488 208 503 q 111 447 138 472 q 70 385 85 421 q 56 307 56 349 l 56 196 q 70 118 56 154 q 111 56 85 82 q 173 15 138 29 q 250 0 208 0 l 351 0 q 413 14 385 0 q 456 49 442 28 l 476 0 l 622 0 m 442 244 q 372 175 442 175 l 306 175 q 236 244 236 175 l 236 256 q 253 310 236 293 q 306 326 269 326 l 442 326 l 442 244 "},"à":{"ha":692,"x_min":56,"x_max":622,"o":"m 464 946 l 288 1161 l 178 1044 l 390 874 l 464 946 m 622 0 l 622 625 q 608 703 622 667 q 567 765 593 739 q 505 805 540 790 q 428 819 469 819 l 258 819 q 117 771 172 819 q 63 638 63 722 l 63 625 l 233 582 q 251 628 236 613 q 304 644 267 644 l 372 644 q 442 574 442 644 l 442 503 l 250 503 q 173 488 208 503 q 111 447 138 472 q 70 385 85 421 q 56 307 56 349 l 56 196 q 70 118 56 154 q 111 56 85 82 q 173 15 138 29 q 250 0 208 0 l 351 0 q 413 14 385 0 q 456 49 442 28 l 476 0 l 622 0 m 442 244 q 372 175 442 175 l 306 175 q 236 244 236 175 l 236 256 q 253 310 236 293 q 306 326 269 326 l 442 326 l 442 244 "},"â":{"ha":692,"x_min":56,"x_max":622,"o":"m 567 910 l 410 1083 l 272 1083 l 115 908 l 257 874 l 340 967 l 425 875 l 567 910 m 622 0 l 622 625 q 608 703 622 667 q 567 765 593 739 q 505 805 540 790 q 428 819 469 819 l 258 819 q 117 771 172 819 q 63 638 63 722 l 63 625 l 233 582 q 251 628 236 613 q 304 644 267 644 l 372 644 q 442 574 442 644 l 442 503 l 250 503 q 173 488 208 503 q 111 447 138 472 q 70 385 85 421 q 56 307 56 349 l 56 196 q 70 118 56 154 q 111 56 85 82 q 173 15 138 29 q 250 0 208 0 l 351 0 q 413 14 385 0 q 456 49 442 28 l 476 0 l 622 0 m 442 244 q 372 175 442 175 l 306 175 q 236 244 236 175 l 236 256 q 253 310 236 293 q 306 326 269 326 l 442 326 l 442 244 "},"ä":{"ha":692,"x_min":56,"x_max":622,"o":"m 569 889 l 569 1047 l 401 1047 l 401 889 l 569 889 m 297 889 l 297 1047 l 131 1047 l 131 889 l 297 889 m 622 0 l 622 625 q 608 703 622 667 q 567 765 593 739 q 505 805 540 790 q 428 819 469 819 l 258 819 q 117 771 172 819 q 63 638 63 722 l 63 625 l 233 582 q 251 628 236 613 q 304 644 267 644 l 372 644 q 442 574 442 644 l 442 503 l 250 503 q 173 488 208 503 q 111 447 138 472 q 70 385 85 421 q 56 307 56 349 l 56 196 q 70 118 56 154 q 111 56 85 82 q 173 15 138 29 q 250 0 208 0 l 351 0 q 413 14 385 0 q 456 49 442 28 l 476 0 l 622 0 m 442 244 q 372 175 442 175 l 306 175 q 236 244 236 175 l 236 256 q 253 310 236 293 q 306 326 269 326 l 442 326 l 442 244 "},"ã":{"ha":692,"x_min":56,"x_max":622,"o":"m 572 1060 l 472 1060 q 463 1022 472 1036 q 431 1007 454 1007 q 389 1015 408 1007 q 349 1033 369 1024 q 308 1051 329 1043 q 260 1060 286 1060 q 157 1025 189 1060 q 122 915 125 990 l 121 889 l 219 889 q 265 940 219 940 q 301 931 282 940 q 341 913 319 922 q 385 894 363 903 q 433 886 408 886 q 537 922 504 886 q 571 1032 569 957 l 572 1060 m 622 0 l 622 625 q 608 703 622 667 q 567 765 593 739 q 505 805 540 790 q 428 819 469 819 l 258 819 q 117 771 172 819 q 63 638 63 722 l 63 625 l 233 582 q 251 628 236 613 q 304 644 267 644 l 372 644 q 442 574 442 644 l 442 503 l 250 503 q 173 488 208 503 q 111 447 138 472 q 70 385 85 421 q 56 307 56 349 l 56 196 q 70 118 56 154 q 111 56 85 82 q 173 15 138 29 q 250 0 208 0 l 351 0 q 413 14 385 0 q 456 49 442 28 l 476 0 l 622 0 m 442 244 q 372 175 442 175 l 306 175 q 236 244 236 175 l 236 256 q 253 310 236 293 q 306 326 269 326 l 442 326 l 442 244 "},"å":{"ha":692,"x_min":56,"x_max":622,"o":"m 508 1038 q 497 1100 508 1071 q 464 1152 485 1129 q 415 1188 443 1175 q 353 1201 386 1201 q 290 1188 319 1201 q 240 1152 261 1175 q 208 1100 219 1129 q 196 1038 196 1071 q 208 975 196 1004 q 240 924 219 946 q 290 888 261 901 q 353 875 319 875 q 415 888 386 875 q 464 924 443 901 q 497 975 485 946 q 508 1038 508 1004 m 622 0 l 622 625 q 608 703 622 667 q 567 765 593 739 q 505 805 540 790 q 428 819 469 819 l 258 819 q 117 771 172 819 q 63 638 63 722 l 63 625 l 233 582 q 251 628 236 613 q 304 644 267 644 l 372 644 q 442 574 442 644 l 442 503 l 250 503 q 173 488 208 503 q 111 447 138 472 q 70 385 85 421 q 56 307 56 349 l 56 196 q 70 118 56 154 q 111 56 85 82 q 173 15 138 29 q 250 0 208 0 l 351 0 q 413 14 385 0 q 456 49 442 28 l 476 0 l 622 0 m 407 1039 q 391 998 407 1015 q 351 981 375 981 q 312 998 328 981 q 296 1039 296 1015 q 312 1079 296 1063 q 351 1096 328 1096 q 391 1079 375 1096 q 407 1039 407 1063 m 442 244 q 372 175 442 175 l 306 175 q 236 244 236 175 l 236 256 q 253 310 236 293 q 306 326 269 326 l 442 326 l 442 244 "},"ç":{"ha":715,"x_min":69,"x_max":646,"o":"m 646 192 l 465 238 q 396 175 461 175 l 319 175 q 250 246 250 175 l 250 574 q 319 644 250 644 l 396 644 q 465 582 461 644 l 646 628 q 631 705 646 669 q 591 765 617 740 q 530 805 565 790 q 453 819 494 819 l 263 819 q 185 805 221 819 q 124 765 150 790 q 84 703 99 739 q 69 625 69 667 l 69 194 q 84 117 69 153 q 124 55 99 81 q 185 15 150 29 q 263 0 221 0 l 282 0 l 263 -111 l 311 -111 q 364 -156 364 -111 q 314 -200 364 -200 q 288 -201 301 -201 l 243 -201 l 243 -278 l 363 -278 q 465 -254 433 -278 q 496 -164 496 -231 q 489 -106 496 -128 q 468 -71 482 -83 q 435 -53 454 -58 q 393 -49 417 -49 l 403 0 l 453 0 q 529 15 494 0 q 590 54 564 29 q 631 115 615 79 q 646 192 646 150 "},"é":{"ha":706,"x_min":69,"x_max":636,"o":"m 539 1044 l 431 1161 l 253 946 l 326 874 l 539 1044 m 636 317 l 636 624 q 622 701 636 665 q 581 764 607 738 q 519 805 556 790 q 442 819 483 819 l 263 819 q 185 805 221 819 q 124 764 150 790 q 84 702 99 738 q 69 625 69 667 l 69 194 q 84 117 69 153 q 125 55 99 81 q 188 15 151 29 q 265 0 224 0 l 435 0 q 574 49 519 0 q 629 182 629 97 l 629 194 l 458 238 q 440 191 456 207 q 389 175 425 175 l 321 175 q 250 246 250 175 l 250 317 l 636 317 m 456 575 l 456 493 l 250 493 l 250 575 q 267 628 250 611 q 321 644 283 644 l 386 644 q 456 575 457 644 "},"è":{"ha":706,"x_min":69,"x_max":636,"o":"m 486 946 l 310 1161 l 200 1044 l 413 874 l 486 946 m 636 317 l 636 624 q 622 701 636 665 q 581 764 607 738 q 519 805 556 790 q 442 819 483 819 l 263 819 q 185 805 221 819 q 124 764 150 790 q 84 702 99 738 q 69 625 69 667 l 69 194 q 84 117 69 153 q 125 55 99 81 q 188 15 151 29 q 265 0 224 0 l 435 0 q 574 49 519 0 q 629 182 629 97 l 629 194 l 458 238 q 440 191 456 207 q 389 175 425 175 l 321 175 q 250 246 250 175 l 250 317 l 636 317 m 456 575 l 456 493 l 250 493 l 250 575 q 267 628 250 611 q 321 644 283 644 l 386 644 q 456 575 457 644 "},"ê":{"ha":706,"x_min":69,"x_max":636,"o":"m 582 910 l 425 1083 l 289 1083 l 131 908 l 272 874 l 357 967 l 440 875 l 582 910 m 636 317 l 636 624 q 622 701 636 665 q 581 764 607 738 q 519 805 556 790 q 442 819 483 819 l 263 819 q 185 805 221 819 q 124 764 150 790 q 84 702 99 738 q 69 625 69 667 l 69 194 q 84 117 69 153 q 125 55 99 81 q 188 15 151 29 q 265 0 224 0 l 435 0 q 574 49 519 0 q 629 182 629 97 l 629 194 l 458 238 q 440 191 456 207 q 389 175 425 175 l 321 175 q 250 246 250 175 l 250 317 l 636 317 m 456 575 l 456 493 l 250 493 l 250 575 q 267 628 250 611 q 321 644 283 644 l 386 644 q 456 575 457 644 "},"ë":{"ha":706,"x_min":69,"x_max":636,"o":"m 576 886 l 576 1044 l 408 1044 l 408 886 l 576 886 m 304 886 l 304 1044 l 138 1044 l 138 886 l 304 886 m 636 317 l 636 624 q 622 701 636 665 q 581 764 607 738 q 519 805 556 790 q 442 819 483 819 l 263 819 q 185 805 221 819 q 124 764 150 790 q 84 702 99 738 q 69 625 69 667 l 69 194 q 84 117 69 153 q 125 55 99 81 q 188 15 151 29 q 265 0 224 0 l 435 0 q 574 49 519 0 q 629 182 629 97 l 629 194 l 458 238 q 440 191 456 207 q 389 175 425 175 l 321 175 q 250 246 250 175 l 250 317 l 636 317 m 456 575 l 456 493 l 250 493 l 250 575 q 267 628 250 611 q 321 644 283 644 l 386 644 q 456 575 457 644 "},"í":{"ha":319,"x_min":22,"x_max":308,"o":"m 308 1044 l 200 1161 l 22 946 l 96 874 l 308 1044 m 250 0 l 250 819 l 69 819 l 69 0 l 250 0 "},"ì":{"ha":319,"x_min":7,"x_max":293,"o":"m 293 946 l 117 1161 l 7 1044 l 219 874 l 293 946 m 250 0 l 250 819 l 69 819 l 69 0 l 250 0 "},"î":{"ha":319,"x_min":-53,"x_max":371,"o":"m 371 908 l 224 1083 l 96 1083 l -53 907 l 81 872 l 160 965 l 238 874 l 371 908 m 250 0 l 250 819 l 69 819 l 69 0 l 250 0 "},"ï":{"ha":319,"x_min":-58,"x_max":379,"o":"m 379 889 l 379 1047 l 211 1047 l 211 889 l 379 889 m 107 889 l 107 1047 l -58 1047 l -58 889 l 107 889 m 250 0 l 250 819 l 69 819 l 69 0 l 250 0 "},"ñ":{"ha":699,"x_min":69,"x_max":629,"o":"m 585 1060 l 485 1060 q 475 1022 485 1036 q 442 1007 465 1007 q 400 1015 419 1007 q 360 1033 381 1024 q 319 1051 340 1043 q 272 1060 297 1060 q 169 1025 201 1060 q 133 915 136 990 l 133 889 l 232 889 q 276 940 232 940 q 313 931 293 940 q 353 913 332 922 q 398 894 375 903 q 444 886 421 886 q 548 922 515 886 q 583 1032 581 957 l 585 1060 m 629 0 l 629 624 q 615 701 629 665 q 574 764 600 738 q 513 805 549 790 q 436 819 478 819 l 368 819 q 301 805 336 819 q 250 769 267 790 l 250 819 l 69 819 l 69 0 l 250 0 l 250 574 q 319 644 250 644 l 379 644 q 449 574 449 644 l 449 0 l 629 0 "},"ó":{"ha":715,"x_min":69,"x_max":646,"o":"m 515 1044 l 406 1161 l 229 946 l 303 874 l 515 1044 m 646 194 l 646 624 q 631 701 646 665 q 590 764 617 738 q 528 805 564 790 q 451 819 493 819 l 264 819 q 187 805 222 819 q 125 765 151 790 q 84 703 99 739 q 69 625 69 667 l 69 194 q 84 117 69 153 q 125 55 99 81 q 187 15 151 29 q 264 0 222 0 l 451 0 q 528 15 493 0 q 590 55 564 29 q 631 117 617 81 q 646 194 646 153 m 465 246 q 396 175 465 175 l 319 175 q 250 246 250 175 l 250 574 q 319 644 250 644 l 396 644 q 465 574 465 644 l 465 246 "},"ò":{"ha":715,"x_min":69,"x_max":646,"o":"m 486 946 l 310 1161 l 201 1044 l 414 874 l 486 946 m 646 194 l 646 624 q 631 701 646 665 q 590 764 617 738 q 528 805 564 790 q 451 819 493 819 l 264 819 q 187 805 222 819 q 125 765 151 790 q 84 703 99 739 q 69 625 69 667 l 69 194 q 84 117 69 153 q 125 55 99 81 q 187 15 151 29 q 264 0 222 0 l 451 0 q 528 15 493 0 q 590 55 564 29 q 631 117 617 81 q 646 194 646 153 m 465 246 q 396 175 465 175 l 319 175 q 250 246 250 175 l 250 574 q 319 644 250 644 l 396 644 q 465 574 465 644 l 465 246 "},"ô":{"ha":715,"x_min":69,"x_max":646,"o":"m 583 910 l 425 1083 l 289 1083 l 132 908 l 274 874 l 357 967 l 442 875 l 583 910 m 646 194 l 646 624 q 631 701 646 665 q 590 764 617 738 q 528 805 564 790 q 451 819 493 819 l 264 819 q 187 805 222 819 q 125 765 151 790 q 84 703 99 739 q 69 625 69 667 l 69 194 q 84 117 69 153 q 125 55 99 81 q 187 15 151 29 q 264 0 222 0 l 451 0 q 528 15 493 0 q 590 55 564 29 q 631 117 617 81 q 646 194 646 153 m 465 246 q 396 175 465 175 l 319 175 q 250 246 250 175 l 250 574 q 319 644 250 644 l 396 644 q 465 574 465 644 l 465 246 "},"ö":{"ha":715,"x_min":69,"x_max":646,"o":"m 576 889 l 576 1047 l 408 1047 l 408 889 l 576 889 m 304 889 l 304 1047 l 139 1047 l 139 889 l 304 889 m 646 194 l 646 624 q 631 701 646 665 q 590 764 617 738 q 528 805 564 790 q 451 819 493 819 l 264 819 q 187 805 222 819 q 125 765 151 790 q 84 703 99 739 q 69 625 69 667 l 69 194 q 84 117 69 153 q 125 55 99 81 q 187 15 151 29 q 264 0 222 0 l 451 0 q 528 15 493 0 q 590 55 564 29 q 631 117 617 81 q 646 194 646 153 m 465 246 q 396 175 465 175 l 319 175 q 250 246 250 175 l 250 574 q 319 644 250 644 l 396 644 q 465 574 465 644 l 465 246 "},"õ":{"ha":715,"x_min":69,"x_max":646,"o":"m 581 1060 l 482 1060 q 472 1022 481 1036 q 439 1007 463 1007 q 397 1015 417 1007 q 358 1033 378 1024 q 316 1051 338 1043 q 269 1060 294 1060 q 166 1025 199 1060 q 131 915 133 990 l 131 889 l 229 889 q 274 940 229 940 q 310 931 290 940 q 350 913 329 922 q 394 894 371 903 q 442 886 417 886 q 545 922 513 886 q 581 1032 578 957 l 581 1060 m 646 194 l 646 624 q 631 701 646 665 q 590 764 617 738 q 528 805 564 790 q 451 819 493 819 l 264 819 q 187 805 222 819 q 125 765 151 790 q 84 703 99 739 q 69 625 69 667 l 69 194 q 84 117 69 153 q 125 55 99 81 q 187 15 151 29 q 264 0 222 0 l 451 0 q 528 15 493 0 q 590 55 564 29 q 631 117 617 81 q 646 194 646 153 m 465 246 q 396 175 465 175 l 319 175 q 250 246 250 175 l 250 574 q 319 644 250 644 l 396 644 q 465 574 465 644 l 465 246 "},"ú":{"ha":699,"x_min":69,"x_max":629,"o":"m 503 1044 l 394 1161 l 218 946 l 290 874 l 503 1044 m 629 0 l 629 819 l 449 819 l 449 244 q 379 175 449 175 l 319 175 q 250 244 250 175 l 250 819 l 69 819 l 69 196 q 84 118 69 154 q 124 56 99 82 q 185 14 150 29 q 263 -1 221 -1 l 331 -1 q 397 14 363 -1 q 449 50 432 29 l 449 0 l 629 0 "},"ù":{"ha":699,"x_min":69,"x_max":629,"o":"m 488 946 l 311 1161 l 203 1044 l 415 874 l 488 946 m 629 0 l 629 819 l 449 819 l 449 244 q 379 175 449 175 l 319 175 q 250 244 250 175 l 250 819 l 69 819 l 69 196 q 84 118 69 154 q 124 56 99 82 q 185 14 150 29 q 263 -1 221 -1 l 331 -1 q 397 14 363 -1 q 449 50 432 29 l 449 0 l 629 0 "},"û":{"ha":699,"x_min":69,"x_max":629,"o":"m 578 910 l 421 1083 l 285 1083 l 126 908 l 268 874 l 353 967 l 436 875 l 578 910 m 629 0 l 629 819 l 449 819 l 449 244 q 379 175 449 175 l 319 175 q 250 244 250 175 l 250 819 l 69 819 l 69 196 q 84 118 69 154 q 124 56 99 82 q 185 14 150 29 q 263 -1 221 -1 l 331 -1 q 397 14 363 -1 q 449 50 432 29 l 449 0 l 629 0 "},"ü":{"ha":699,"x_min":69,"x_max":629,"o":"m 571 889 l 571 1047 l 404 1047 l 404 889 l 571 889 m 300 889 l 300 1047 l 133 1047 l 133 889 l 300 889 m 629 0 l 629 819 l 449 819 l 449 244 q 379 175 449 175 l 319 175 q 250 244 250 175 l 250 819 l 69 819 l 69 196 q 84 118 69 154 q 124 56 99 82 q 185 14 150 29 q 263 -1 221 -1 l 331 -1 q 397 14 363 -1 q 449 50 432 29 l 449 0 l 629 0 "},"†":{"ha":469,"x_min":63,"x_max":407,"o":"m 407 871 l 407 958 l 282 958 l 282 1097 l 188 1097 l 188 958 l 63 958 l 63 871 l 188 871 l 188 411 l 282 411 l 282 871 l 407 871 "},"°":{"ha":557,"x_min":56,"x_max":501,"o":"m 501 876 q 484 964 501 924 q 436 1034 467 1004 q 365 1081 406 1064 q 278 1099 324 1099 q 191 1081 232 1099 q 120 1034 150 1064 q 73 963 90 1004 q 56 876 56 922 q 73 790 56 831 q 120 719 90 749 q 191 672 150 689 q 278 654 232 654 q 365 672 324 654 q 436 719 406 689 q 484 790 467 749 q 501 876 501 831 m 367 878 q 341 814 367 840 q 278 788 315 788 q 214 814 240 788 q 188 878 188 840 q 214 941 188 914 q 278 968 240 968 q 341 941 315 968 q 367 878 367 914 "},"¢":{"ha":715,"x_min":69,"x_max":646,"o":"m 646 374 l 465 419 q 447 372 463 388 q 397 357 432 357 l 321 357 q 250 428 250 357 l 250 756 q 321 826 250 826 l 397 826 q 447 811 432 826 q 465 764 463 796 l 646 810 q 631 887 646 851 q 591 947 617 922 q 530 987 565 972 q 453 1001 494 1001 l 435 1001 l 435 1097 l 279 1097 l 279 1001 l 263 1001 q 185 987 221 1001 q 124 947 150 972 q 84 885 99 921 q 69 807 69 849 l 69 376 q 84 299 69 335 q 124 237 99 263 q 185 197 150 211 q 263 182 221 182 l 279 182 l 279 85 l 435 85 l 435 182 l 453 182 q 529 197 494 182 q 590 236 564 211 q 631 297 615 261 q 646 374 646 332 "},"£":{"ha":842,"x_min":76,"x_max":765,"o":"m 765 869 q 742 956 761 914 q 690 1028 722 997 q 613 1078 657 1060 q 515 1097 568 1097 l 382 1097 q 282 1076 328 1097 q 203 1022 236 1056 q 151 942 169 988 q 132 849 132 897 q 135 803 132 829 q 142 749 138 776 q 151 693 146 721 q 160 643 156 665 l 76 643 l 76 454 l 194 454 q 201 337 206 383 q 179 260 196 290 q 135 214 163 231 q 76 189 108 197 l 76 0 l 751 0 l 751 189 l 311 189 q 315 196 308 192 q 329 206 321 200 q 390 297 378 236 q 386 454 401 358 l 528 454 l 528 643 l 351 643 q 333 737 340 692 q 325 818 325 782 q 351 882 325 856 q 424 908 376 908 l 474 908 q 545 883 521 908 q 571 821 569 858 l 765 869 "},"§":{"ha":681,"x_min":69,"x_max":611,"o":"m 611 908 q 597 985 611 950 q 559 1044 583 1019 q 501 1083 535 1069 q 428 1097 467 1097 l 253 1097 q 179 1083 213 1097 q 122 1044 146 1069 q 83 985 97 1019 q 69 911 69 951 l 69 857 q 72 832 71 844 q 76 808 74 819 q 92 765 82 785 q 124 722 103 744 q 83 660 96 696 q 69 588 69 625 l 69 535 q 108 417 69 468 q 208 343 147 365 l 397 274 q 424 258 413 267 q 435 233 435 250 q 422 188 435 201 q 376 174 408 174 l 306 174 q 263 187 278 174 q 247 233 249 200 l 69 189 q 84 113 69 147 q 123 53 99 78 q 181 14 147 28 q 254 0 214 0 l 428 0 q 501 14 468 0 q 559 53 535 28 q 597 112 583 78 q 611 186 611 146 l 611 240 q 609 265 610 253 q 606 289 608 278 q 590 334 600 313 q 560 376 579 356 q 599 438 586 403 q 611 510 611 472 l 611 560 q 576 678 611 629 q 478 751 540 728 l 279 825 q 247 868 247 836 q 260 910 247 899 q 306 922 274 922 l 375 922 q 417 910 403 922 q 435 864 432 897 l 611 908 m 435 547 q 432 522 435 536 q 424 494 429 507 q 410 472 418 481 q 390 463 401 463 q 373 467 386 463 q 343 478 360 471 q 313 489 328 483 q 292 497 299 494 q 258 516 271 506 q 246 550 246 526 q 247 573 246 558 q 251 602 247 588 q 260 628 254 617 q 279 639 267 639 q 297 635 283 639 q 325 624 310 631 q 356 611 342 617 q 378 603 371 606 q 390 599 385 600 q 400 594 394 597 q 410 590 406 592 q 419 585 415 588 q 431 570 426 578 q 435 547 435 563 "},"•":{"ha":475,"x_min":0,"x_max":336,"o":"m 336 549 q 323 614 336 583 q 287 667 310 644 q 233 703 264 690 q 168 717 203 717 q 103 703 133 717 q 49 667 72 690 q 13 614 26 644 q 0 549 0 583 q 13 483 0 514 q 49 430 26 453 q 103 394 72 407 q 168 381 133 381 q 233 394 203 381 q 287 430 264 407 q 323 483 310 453 q 336 549 336 514 "},"¶":{"ha":653,"x_min":76,"x_max":576,"o":"m 576 0 l 576 1097 l 326 1097 q 228 1078 274 1097 q 149 1024 183 1058 q 96 944 115 990 q 76 847 76 899 l 76 701 q 96 603 76 649 q 149 524 115 557 q 228 471 183 490 q 326 451 274 451 l 382 451 l 382 0 l 576 0 "},"ß":{"ha":707,"x_min":69,"x_max":638,"o":"m 638 194 l 638 394 q 628 466 638 436 q 606 515 619 496 q 575 546 592 535 q 544 564 558 557 q 574 581 558 569 q 604 611 590 592 q 628 660 618 631 q 638 732 638 690 l 638 903 q 623 980 638 944 q 582 1042 608 1015 q 520 1083 556 1068 q 443 1097 485 1097 l 264 1097 q 187 1082 222 1097 q 125 1040 151 1067 q 84 978 99 1014 q 69 900 69 942 l 69 0 l 250 0 l 250 851 q 266 905 250 888 q 319 922 282 922 l 396 922 q 457 853 457 922 l 457 735 q 440 674 457 697 q 388 651 424 651 l 304 651 l 304 476 l 388 476 q 457 407 457 476 l 457 244 q 388 175 457 175 l 304 175 l 304 0 l 443 0 q 520 15 485 0 q 582 56 556 29 q 623 117 608 82 q 638 194 638 153 "},"®":{"ha":1260,"x_min":76,"x_max":1183,"o":"m 1183 547 q 1140 763 1183 663 q 1021 939 1096 864 q 845 1058 946 1014 q 629 1101 744 1101 q 413 1058 514 1101 q 238 939 313 1014 q 119 763 163 864 q 76 547 76 661 q 119 331 76 432 q 238 156 163 231 q 413 38 313 81 q 629 -6 514 -6 q 845 38 744 -6 q 1021 156 946 81 q 1140 331 1096 231 q 1183 547 1183 432 m 1076 547 q 1042 373 1076 454 q 947 231 1007 292 q 804 136 886 171 q 629 101 722 101 q 455 136 536 101 q 313 231 374 171 q 218 373 253 292 q 183 547 183 454 q 218 722 183 640 q 313 865 253 804 q 455 960 374 925 q 629 994 536 994 q 804 960 722 994 q 947 865 886 925 q 1042 722 1007 804 q 1076 547 1076 640 m 867 190 l 757 486 q 838 540 808 500 q 867 647 867 579 l 867 739 q 854 802 867 772 q 819 854 842 832 q 767 889 797 876 q 704 901 738 901 l 417 901 l 417 190 l 543 190 l 543 485 l 624 485 l 732 190 l 867 190 m 740 669 q 678 607 740 607 l 543 607 l 543 779 l 678 779 q 724 763 707 779 q 740 715 740 747 l 740 669 "},"©":{"ha":1260,"x_min":76,"x_max":1183,"o":"m 1183 547 q 1140 763 1183 663 q 1021 939 1096 864 q 845 1058 946 1014 q 629 1101 744 1101 q 413 1058 514 1101 q 238 939 313 1014 q 119 763 163 864 q 76 547 76 661 q 119 331 76 432 q 238 156 163 231 q 413 38 313 81 q 629 -6 514 -6 q 845 38 744 -6 q 1021 156 946 81 q 1140 331 1096 231 q 1183 547 1183 432 m 1076 547 q 1042 373 1076 454 q 947 231 1007 292 q 804 136 886 171 q 629 101 722 101 q 455 136 536 101 q 313 231 374 171 q 218 373 253 292 q 183 547 183 454 q 218 722 183 640 q 313 865 253 804 q 455 960 374 925 q 629 994 536 994 q 804 960 722 994 q 947 865 886 925 q 1042 722 1007 804 q 1076 547 1076 640 m 885 349 l 721 390 q 658 335 719 335 l 590 335 q 542 350 557 335 q 528 399 528 365 l 528 693 q 542 742 528 726 q 590 757 557 757 l 658 757 q 721 701 719 757 l 885 743 q 871 812 885 781 q 834 866 857 843 q 779 902 811 889 q 710 915 747 915 l 539 915 q 413 866 463 915 q 364 740 364 817 l 364 351 q 413 226 364 275 q 539 176 463 176 l 710 176 q 779 189 747 176 q 834 224 811 201 q 871 279 857 247 q 885 349 885 311 "},"™":{"ha":868,"x_min":63,"x_max":806,"o":"m 806 549 l 806 1097 l 715 1097 l 639 882 q 636 876 638 879 q 632 874 635 874 q 628 876 629 874 q 625 882 626 879 l 549 1097 l 458 1097 l 458 549 l 556 549 l 556 810 q 556 815 556 811 q 560 818 557 818 q 564 815 563 818 q 567 811 565 813 l 625 654 q 632 646 625 646 q 640 654 638 646 l 699 811 q 700 817 699 814 q 704 819 701 819 q 708 816 707 819 q 708 810 708 813 l 708 549 l 806 549 m 410 1003 l 410 1097 l 63 1097 l 63 1003 l 188 1003 l 188 549 l 285 549 l 285 1003 l 410 1003 "},"´":{"ha":847,"x_min":231,"x_max":517,"o":"m 517 1044 l 408 1161 l 231 946 l 304 874 l 517 1044 "},"¨":{"ha":847,"x_min":139,"x_max":576,"o":"m 576 889 l 576 1047 l 408 1047 l 408 889 l 576 889 m 304 889 l 304 1047 l 139 1047 l 139 889 l 304 889 "},"≠":{"ha":736,"x_min":76,"x_max":660,"o":"m 660 265 l 660 454 l 419 454 l 476 643 l 660 643 l 660 829 l 532 829 l 589 1018 l 429 1018 l 372 829 l 76 829 l 76 643 l 317 643 l 260 454 l 76 454 l 76 265 l 203 265 l 147 79 l 307 79 l 363 265 l 660 265 "},"Æ":{"ha":1097,"x_min":76,"x_max":1021,"o":"m 1021 0 l 1021 189 l 728 189 l 667 454 l 882 454 l 882 643 l 622 643 l 561 908 l 1021 908 l 1021 1097 l 329 1097 l 76 0 l 278 0 l 314 182 l 533 182 l 569 0 l 1021 0 m 497 371 l 350 371 l 410 681 q 414 694 411 686 q 424 703 417 703 q 433 694 431 703 q 438 681 436 686 l 497 371 "},"Ø":{"ha":847,"x_min":76,"x_max":771,"o":"m 771 250 l 771 847 q 740 969 771 914 q 657 1057 710 1024 l 699 1194 l 539 1194 l 510 1097 l 326 1097 q 228 1078 274 1097 q 149 1024 183 1058 q 96 944 115 990 q 76 847 76 899 l 76 250 q 107 128 76 183 q 189 40 138 74 l 147 -97 l 307 -97 l 336 0 l 521 0 q 618 19 572 0 q 698 73 664 39 q 751 152 732 107 q 771 250 771 197 m 576 790 l 576 286 q 551 215 576 240 q 479 189 526 189 l 394 189 l 576 790 m 453 908 l 271 310 l 271 811 q 368 908 271 908 l 453 908 "},"∞":{"ha":915,"x_min":76,"x_max":839,"o":"m 839 546 q 824 629 839 592 q 783 694 810 667 q 719 736 756 721 q 639 751 682 751 q 536 725 581 751 q 456 657 492 699 q 378 724 422 697 q 276 751 333 751 q 198 737 235 751 q 134 695 161 722 q 92 631 107 668 q 76 549 76 593 q 132 399 76 456 q 276 342 188 342 q 378 369 333 342 q 458 436 424 396 q 538 368 493 394 q 640 342 582 342 q 720 356 683 342 q 783 398 757 371 q 824 463 810 425 q 839 546 839 500 m 688 547 q 671 499 688 517 q 629 482 654 482 q 579 501 601 482 q 538 549 557 521 q 578 594 556 576 q 628 613 600 613 q 671 595 654 613 q 688 547 688 578 m 378 546 q 336 500 358 518 q 286 482 314 482 q 244 499 261 482 q 226 546 226 515 q 243 595 226 578 q 286 613 260 613 q 335 593 313 613 q 378 546 358 574 "},"±":{"ha":736,"x_min":76,"x_max":660,"o":"m 660 601 l 660 785 l 463 785 l 463 985 l 274 985 l 274 785 l 76 785 l 76 601 l 274 601 l 274 401 l 463 401 l 463 601 l 660 601 m 660 106 l 660 294 l 76 294 l 76 106 l 660 106 "},"≤":{"ha":738,"x_min":76,"x_max":661,"o":"m 661 336 l 661 543 l 331 665 l 661 788 l 661 996 l 78 751 l 78 581 l 661 336 m 660 106 l 660 294 l 76 294 l 76 106 l 660 106 "},"≥":{"ha":738,"x_min":76,"x_max":661,"o":"m 660 581 l 660 751 l 76 996 l 76 788 l 407 665 l 76 543 l 76 336 l 660 581 m 661 106 l 661 294 l 78 294 l 78 106 l 661 106 "},"¥":{"ha":847,"x_min":76,"x_max":771,"o":"m 771 285 l 771 451 l 542 451 l 574 521 l 771 521 l 771 688 l 647 688 l 736 883 q 771 1031 771 961 l 771 1097 l 576 1097 l 576 1054 q 572 1010 576 1033 q 558 964 568 986 l 424 650 l 289 964 q 275 1009 279 985 q 271 1054 271 1033 l 271 1097 l 76 1097 l 76 1032 q 84 960 76 996 q 111 883 92 924 l 200 688 l 79 688 l 79 521 l 274 521 l 306 451 l 79 451 l 79 285 l 326 285 l 326 0 l 521 0 l 521 285 l 771 285 "},"µ":{"ha":699,"x_min":69,"x_max":629,"o":"m 629 196 l 629 819 l 449 819 l 449 244 q 379 175 449 175 l 319 175 q 250 244 250 175 l 250 819 l 69 819 l 69 -278 l 250 -278 l 250 50 q 301 14 267 29 q 368 -1 336 -1 l 436 -1 q 513 14 478 -1 q 574 56 549 29 q 615 118 600 82 q 629 196 629 154 "},"∂":{"ha":715,"x_min":69,"x_max":646,"o":"m 646 194 l 646 624 q 633 694 646 661 q 600 753 621 726 l 336 1097 l 121 1097 l 333 819 l 264 819 q 187 805 222 819 q 125 765 151 790 q 84 703 99 739 q 69 625 69 667 l 69 194 q 84 117 69 153 q 125 55 99 81 q 187 15 151 29 q 264 0 222 0 l 451 0 q 528 15 493 0 q 590 55 564 29 q 631 117 617 81 q 646 194 646 153 m 465 246 q 396 175 465 175 l 319 175 q 250 246 250 175 l 250 574 q 319 644 250 644 l 396 644 q 465 574 465 644 l 465 246 "},"∑":{"ha":822,"x_min":76,"x_max":746,"o":"m 746 -276 l 746 -87 l 319 -87 l 669 411 l 319 908 l 746 908 l 746 1097 l 76 1097 l 76 908 l 431 411 l 76 -87 l 76 -276 l 746 -276 "},"∏":{"ha":875,"x_min":69,"x_max":806,"o":"m 806 908 l 806 1097 l 69 1097 l 69 908 l 132 908 l 132 -278 l 326 -278 l 326 908 l 549 908 l 549 -278 l 743 -278 l 743 908 l 806 908 "},"π":{"ha":742,"x_min":63,"x_max":679,"o":"m 679 644 l 679 819 l 63 819 l 63 644 l 111 644 l 111 0 l 292 0 l 292 644 l 450 644 l 450 0 l 631 0 l 631 644 l 679 644 "},"∫":{"ha":493,"x_min":-97,"x_max":590,"o":"m 590 1342 l 483 1342 q 394 1326 436 1342 q 320 1281 353 1310 q 265 1212 288 1251 q 238 1125 243 1172 l 78 -8 q 50 -66 72 -44 q -8 -87 28 -87 l -76 -87 l -97 -240 l 24 -240 q 180 -186 118 -240 q 254 -37 242 -132 l 417 1115 q 501 1189 425 1189 l 569 1189 l 590 1342 "},"ª":{"ha":456,"x_min":35,"x_max":414,"o":"m 414 549 l 414 967 q 377 1061 414 1025 q 283 1097 340 1097 l 169 1097 q 76 1065 113 1097 q 39 976 39 1033 l 39 967 l 154 939 q 166 969 156 958 q 201 979 176 979 l 247 979 q 293 932 293 979 l 293 885 l 165 885 q 72 848 108 885 q 35 754 35 811 l 35 679 q 72 585 35 622 q 165 549 108 549 l 233 549 q 274 558 256 549 q 303 581 293 567 l 317 549 l 414 549 m 293 713 q 247 665 293 665 l 203 665 q 156 713 156 665 l 156 719 q 203 767 156 767 l 293 767 l 293 713 "},"º":{"ha":469,"x_min":42,"x_max":428,"o":"m 428 679 l 428 967 q 391 1060 428 1024 q 297 1097 354 1097 l 172 1097 q 78 1061 115 1097 q 42 967 42 1025 l 42 678 q 78 585 42 621 q 172 549 115 549 l 297 549 q 391 585 354 549 q 428 679 428 622 m 307 713 q 260 665 307 665 l 210 665 q 163 713 163 665 l 163 932 q 210 979 163 979 l 260 979 q 307 932 307 979 l 307 713 "},"Ω":{"ha":847,"x_min":76,"x_max":771,"o":"m 771 0 l 771 189 l 660 189 l 660 194 q 744 281 718 221 q 771 444 771 340 l 771 847 q 751 944 771 899 q 698 1024 732 990 q 618 1078 664 1058 q 521 1097 572 1097 l 326 1097 q 228 1078 274 1097 q 149 1024 183 1058 q 96 944 115 990 q 76 847 76 899 l 76 444 q 103 281 76 340 q 189 193 129 221 l 189 189 l 76 189 l 76 0 l 383 0 l 383 228 q 301 269 331 236 q 271 364 271 301 l 271 811 q 295 883 271 857 q 368 908 319 908 l 479 908 q 576 811 576 908 l 576 364 q 547 269 576 301 q 465 229 518 238 l 465 0 l 771 0 "},"æ":{"ha":1076,"x_min":56,"x_max":1007,"o":"m 1007 317 l 1007 624 q 992 701 1007 665 q 952 764 978 738 q 890 805 926 790 q 813 819 854 819 l 640 819 q 581 809 613 819 q 532 778 549 799 q 482 809 514 799 q 421 819 450 819 l 258 819 q 117 771 172 819 q 63 638 63 722 l 63 625 l 233 582 q 251 628 236 613 q 304 644 267 644 l 372 644 q 440 593 432 644 l 440 503 l 250 503 q 173 488 208 503 q 111 447 138 472 q 70 385 85 421 q 56 307 56 349 l 56 196 q 70 118 56 154 q 111 56 85 82 q 173 15 138 29 q 250 0 208 0 l 388 0 q 422 3 403 0 q 460 14 442 7 q 495 31 479 21 q 519 51 511 40 q 572 14 535 28 q 653 0 610 0 l 806 0 q 946 49 892 0 q 1000 182 1000 97 l 1000 194 l 829 238 q 812 191 826 207 q 760 175 797 175 l 692 175 q 622 229 628 175 l 622 317 l 1007 317 m 826 575 l 826 493 l 622 493 l 622 592 q 692 644 628 644 l 757 644 q 826 575 828 644 m 440 228 q 372 175 435 175 l 306 175 q 236 244 236 175 l 236 256 q 253 310 236 293 q 306 326 269 326 l 440 326 l 440 228 "},"ø":{"ha":715,"x_min":69,"x_max":646,"o":"m 646 194 l 646 624 q 618 728 646 682 q 544 797 590 774 l 581 917 l 443 917 l 413 819 l 264 819 q 187 805 222 819 q 125 765 151 790 q 84 703 99 739 q 69 625 69 667 l 69 194 q 97 91 69 136 q 171 22 125 46 l 135 -97 l 272 -97 l 301 0 l 451 0 q 528 15 493 0 q 590 55 564 29 q 631 117 617 81 q 646 194 646 153 m 360 644 l 250 283 l 250 574 q 319 644 250 644 l 360 644 m 465 246 q 396 175 465 175 l 356 175 l 465 538 l 465 246 "},"¿":{"ha":806,"x_min":76,"x_max":743,"o":"m 575 908 l 575 1097 l 381 1097 l 381 908 l 575 908 m 743 224 l 549 274 q 523 214 546 239 q 451 189 500 189 l 368 189 q 271 286 271 189 l 271 303 q 319 407 271 363 l 501 572 q 554 648 533 601 q 575 743 575 694 l 575 811 l 381 811 l 381 785 q 371 729 381 751 q 335 683 361 707 l 160 525 q 100 442 124 493 q 76 335 76 390 l 76 250 q 96 152 76 197 q 149 73 115 107 q 228 19 183 39 q 326 0 274 0 l 493 0 q 590 19 546 0 q 668 68 635 38 q 721 139 701 99 q 743 224 740 179 "},"¡":{"ha":347,"x_min":76,"x_max":271,"o":"m 271 903 l 271 1097 l 76 1097 l 76 903 l 271 903 m 271 0 l 271 806 l 76 806 l 76 0 l 271 0 "},"¬":{"ha":847,"x_min":76,"x_max":771,"o":"m 771 267 l 771 768 l 76 768 l 76 579 l 576 579 l 576 267 l 771 267 "},"√":{"ha":700,"x_min":56,"x_max":700,"o":"m 700 1194 l 539 1194 l 350 368 l 288 646 l 56 646 l 56 492 l 163 492 l 275 0 l 424 0 l 700 1194 "},"ƒ":{"ha":639,"x_min":-194,"x_max":611,"o":"m 611 1096 l 435 1096 q 355 1081 393 1096 q 286 1040 317 1067 q 234 978 256 1014 q 206 900 213 942 l 189 806 l 119 806 l 88 631 l 157 631 l 40 -33 q -42 -103 28 -103 l -164 -103 l -194 -278 l -17 -278 q 63 -263 25 -278 q 132 -222 101 -249 q 184 -160 163 -196 q 213 -83 206 -125 l 338 631 l 515 631 l 546 806 l 368 806 l 376 851 q 458 921 389 921 l 581 921 l 611 1096 "},"≈":{"ha":739,"x_min":76,"x_max":663,"o":"m 663 661 l 663 847 q 629 810 647 829 q 592 776 611 792 q 551 751 572 761 q 508 742 531 742 q 447 758 476 742 q 385 795 417 775 q 322 832 354 815 q 256 849 290 849 q 158 821 200 849 q 76 746 117 793 l 76 557 q 149 632 108 599 q 239 665 190 665 q 297 649 268 665 q 358 611 326 632 q 422 574 389 590 q 493 557 456 557 q 584 589 544 557 q 663 661 624 621 m 663 346 l 663 533 q 629 495 647 514 q 592 461 611 476 q 551 436 572 446 q 508 426 531 426 q 447 443 478 426 q 385 480 417 460 q 322 517 354 500 q 256 533 290 533 q 158 506 200 533 q 76 431 117 479 l 76 242 q 150 317 108 285 q 239 350 192 350 q 297 333 268 350 q 358 296 326 317 q 422 258 389 275 q 493 242 456 242 q 584 274 544 242 q 663 346 624 306 "},"∆":{"ha":915,"x_min":76,"x_max":839,"o":"m 839 86 q 829 143 839 113 l 574 1001 q 457 1099 547 1099 q 339 1001 368 1099 l 82 139 q 76 96 76 121 q 171 -1 76 -1 l 750 -1 q 839 86 839 -1 m 642 168 l 272 168 l 457 810 l 642 168 "},"«":{"ha":782,"x_min":76,"x_max":706,"o":"m 706 158 l 556 410 l 706 663 l 525 663 l 374 410 l 525 158 l 706 158 m 410 158 l 258 410 l 410 663 l 228 663 l 76 410 l 228 158 l 410 158 "},"»":{"ha":782,"x_min":76,"x_max":706,"o":"m 706 410 l 554 663 l 374 663 l 524 410 l 374 158 l 554 158 l 706 410 m 410 410 l 258 663 l 76 663 l 228 410 l 76 158 l 258 158 l 410 410 "},"…":{"ha":981,"x_min":76,"x_max":904,"o":"m 904 0 l 904 181 l 718 181 l 718 0 l 904 0 m 583 0 l 583 181 l 397 181 l 397 0 l 583 0 m 263 0 l 263 181 l 76 181 l 76 0 l 263 0 "}," ":{"ha":229,"x_min":0,"x_max":0,"o":""},"À":{"ha":847,"x_min":76,"x_max":771,"o":"m 556 1224 l 378 1439 l 269 1322 l 482 1151 l 556 1224 m 771 0 l 518 1097 l 329 1097 l 76 0 l 278 0 l 314 182 l 533 182 l 569 0 l 771 0 m 497 371 l 350 371 l 410 681 q 414 694 411 686 q 424 703 417 703 q 433 694 431 703 q 438 681 436 686 l 497 371 "},"Ã":{"ha":847,"x_min":76,"x_max":771,"o":"m 649 1324 l 549 1324 q 539 1286 549 1301 q 506 1271 529 1271 q 464 1279 483 1271 q 425 1297 444 1288 q 384 1315 406 1307 q 336 1324 363 1324 q 233 1290 265 1325 q 199 1179 200 1254 l 197 1153 l 296 1153 q 340 1204 296 1204 q 376 1196 357 1204 q 417 1178 396 1188 q 462 1160 439 1168 q 508 1151 485 1151 q 613 1186 579 1151 q 647 1296 646 1221 l 649 1324 m 771 0 l 518 1097 l 329 1097 l 76 0 l 278 0 l 314 182 l 533 182 l 569 0 l 771 0 m 497 371 l 350 371 l 410 681 q 414 694 411 686 q 424 703 417 703 q 433 694 431 703 q 438 681 436 686 l 497 371 "},"Õ":{"ha":847,"x_min":76,"x_max":771,"o":"m 647 1325 l 549 1325 q 538 1288 547 1303 q 506 1272 529 1272 q 464 1281 483 1272 q 424 1299 444 1289 q 383 1317 404 1308 q 336 1325 361 1325 q 233 1291 265 1326 q 197 1181 200 1256 l 197 1154 l 296 1154 q 340 1206 296 1206 q 376 1197 357 1206 q 417 1179 396 1189 q 460 1161 438 1169 q 508 1153 483 1153 q 612 1188 579 1153 q 647 1297 644 1222 l 647 1325 m 771 250 l 771 847 q 751 944 771 899 q 698 1024 732 990 q 618 1078 664 1058 q 521 1097 572 1097 l 326 1097 q 228 1078 274 1097 q 149 1024 183 1058 q 96 944 115 990 q 76 847 76 899 l 76 250 q 96 151 76 197 q 149 72 115 106 q 228 19 183 39 q 326 0 274 0 l 521 0 q 618 19 572 0 q 698 73 664 39 q 751 152 732 107 q 771 250 771 197 m 576 286 q 551 215 576 240 q 479 189 526 189 l 368 189 q 271 286 271 189 l 271 811 q 368 908 271 908 l 479 908 q 576 811 576 908 l 576 286 "},"Œ":{"ha":1236,"x_min":76,"x_max":1160,"o":"m 1160 0 l 1160 189 l 757 189 l 757 454 l 1021 454 l 1021 643 l 757 643 l 757 908 l 1160 908 l 1160 1097 l 576 1097 l 576 1061 q 528 1088 558 1079 q 465 1097 497 1097 l 326 1097 q 228 1078 274 1097 q 149 1024 183 1058 q 96 944 115 990 q 76 847 76 899 l 76 250 q 96 151 76 197 q 149 72 115 106 q 228 19 183 39 q 326 0 274 0 l 465 0 q 576 36 532 0 l 576 0 l 1160 0 m 563 286 q 538 215 563 240 q 465 189 513 189 l 368 189 q 271 286 271 189 l 271 811 q 368 908 271 908 l 465 908 q 563 811 563 908 l 563 286 "},"œ":{"ha":1101,"x_min":69,"x_max":1032,"o":"m 1032 317 l 1032 624 q 1017 701 1032 665 q 977 764 1003 738 q 915 805 951 790 q 838 819 879 819 l 658 819 q 556 778 600 819 q 508 809 535 799 q 451 819 481 819 l 264 819 q 187 805 222 819 q 125 765 151 790 q 84 703 99 739 q 69 625 69 667 l 69 194 q 84 117 69 153 q 125 55 99 81 q 187 15 151 29 q 264 0 222 0 l 451 0 q 509 13 481 0 q 556 42 538 25 q 601 13 571 26 q 661 0 631 0 l 831 0 q 970 49 915 0 q 1025 182 1025 97 l 1025 194 l 854 238 q 837 191 851 207 q 785 175 822 175 l 717 175 q 646 246 646 175 l 646 317 l 1032 317 m 851 575 l 851 493 l 646 493 l 646 575 q 663 628 646 611 q 717 644 679 644 l 782 644 q 851 575 853 644 m 465 246 q 396 175 465 175 l 319 175 q 250 246 250 175 l 250 574 q 319 644 250 644 l 396 644 q 465 578 465 644 l 465 574 l 465 538 l 465 246 "},"–":{"ha":615,"x_min":28,"x_max":588,"o":"m 588 382 l 588 571 l 28 571 l 28 382 l 588 382 "},"—":{"ha":940,"x_min":28,"x_max":913,"o":"m 913 382 l 913 571 l 28 571 l 28 382 l 913 382 "},"“":{"ha":585,"x_min":56,"x_max":557,"o":"m 557 1171 l 453 1208 l 306 892 l 476 832 l 557 1171 m 307 1171 l 203 1208 l 56 892 l 226 832 l 307 1171 "},"”":{"ha":599,"x_min":42,"x_max":543,"o":"m 543 1149 l 372 1208 l 292 868 l 397 832 l 543 1149 m 293 1149 l 122 1208 l 42 868 l 147 832 l 293 1149 "},"‘":{"ha":335,"x_min":56,"x_max":307,"o":"m 307 1171 l 203 1208 l 56 892 l 226 832 l 307 1171 "},"’":{"ha":349,"x_min":42,"x_max":293,"o":"m 293 1149 l 122 1208 l 42 868 l 147 832 l 293 1149 "},"÷":{"ha":736,"x_min":76,"x_max":660,"o":"m 465 740 l 465 929 l 271 929 l 271 740 l 465 740 m 660 454 l 660 643 l 76 643 l 76 454 l 660 454 m 465 168 l 465 357 l 271 357 l 271 168 l 465 168 "},"◊":{"ha":736,"x_min":61,"x_max":675,"o":"m 675 553 l 479 1011 q 372 1099 442 1099 q 264 1011 303 1099 l 61 550 l 264 86 q 372 -1 303 -1 q 479 88 442 -1 l 675 553 m 514 550 l 372 199 l 218 547 l 372 892 l 514 550 "},"ÿ":{"ha":694,"x_min":28,"x_max":667,"o":"m 565 890 l 565 1049 l 397 1049 l 397 890 l 565 890 m 293 890 l 293 1049 l 128 1049 l 128 890 l 293 890 m 667 819 l 482 819 l 358 346 q 355 335 357 342 q 346 329 353 329 q 338 335 340 329 q 333 346 335 342 l 213 819 l 28 819 l 258 0 l 250 -31 q 157 -103 229 -103 l 101 -103 l 101 -278 l 176 -278 q 251 -267 215 -278 q 318 -235 288 -257 q 372 -180 349 -214 q 408 -99 396 -146 l 667 819 "},"Ÿ":{"ha":847,"x_min":76,"x_max":771,"o":"m 643 1165 l 643 1325 l 476 1325 l 476 1165 l 643 1165 m 371 1165 l 371 1325 l 206 1325 l 206 1165 l 371 1165 m 771 1031 l 771 1097 l 576 1097 l 576 1054 q 572 1010 576 1033 q 558 964 568 986 l 424 650 l 289 964 q 275 1009 279 985 q 271 1054 271 1033 l 271 1097 l 76 1097 l 76 1032 q 84 960 76 996 q 111 883 92 924 l 326 404 l 326 0 l 521 0 l 521 404 l 736 883 q 771 1031 771 961 "},"⁄":{"ha":551,"x_min":0,"x_max":551,"o":"m 551 1194 l 392 1194 l 0 -97 l 160 -97 l 551 1194 "},"€":{"ha":882,"x_min":56,"x_max":806,"o":"m 806 226 l 611 275 q 585 212 611 235 q 514 189 560 189 l 417 189 q 319 286 319 189 l 319 346 l 528 346 l 528 507 l 319 507 l 319 590 l 528 590 l 528 751 l 319 751 l 319 811 q 417 908 319 908 l 514 908 q 586 882 561 908 q 611 819 611 856 l 806 868 q 781 956 801 914 q 728 1028 761 997 q 651 1078 696 1060 q 556 1097 607 1097 l 375 1097 q 277 1078 322 1097 q 198 1024 232 1058 q 144 944 164 990 q 125 847 125 899 l 125 751 l 56 751 l 56 590 l 125 590 l 125 507 l 56 507 l 56 346 l 125 346 l 125 250 q 144 152 125 197 q 198 73 164 107 q 277 19 232 39 q 375 0 322 0 l 556 0 q 651 19 607 0 q 728 69 696 38 q 781 141 761 100 q 806 226 801 182 "},"‹":{"ha":486,"x_min":76,"x_max":410,"o":"m 410 158 l 258 410 l 410 663 l 228 663 l 76 410 l 228 158 l 410 158 "},"›":{"ha":486,"x_min":76,"x_max":410,"o":"m 410 410 l 258 663 l 76 663 l 228 410 l 76 158 l 258 158 l 410 410 "},"ﬁ":{"ha":803,"x_min":21,"x_max":733,"o":"m 733 921 l 733 1096 l 553 1096 l 553 921 l 733 921 m 733 0 l 733 819 l 553 819 l 553 0 l 733 0 m 463 921 l 463 1096 l 285 1096 q 208 1081 243 1096 q 146 1040 172 1067 q 105 978 119 1014 q 90 900 90 942 l 90 813 l 21 813 l 21 638 l 90 638 l 90 0 l 271 0 l 271 638 l 449 638 l 449 813 l 271 813 l 271 851 q 340 921 271 921 l 463 921 "},"ﬂ":{"ha":803,"x_min":21,"x_max":733,"o":"m 733 0 l 733 1097 l 553 1097 l 553 0 l 733 0 m 463 921 l 463 1096 l 285 1096 q 208 1081 243 1096 q 146 1040 172 1067 q 105 978 119 1014 q 90 900 90 942 l 90 813 l 21 813 l 21 638 l 90 638 l 90 0 l 271 0 l 271 638 l 449 638 l 449 813 l 271 813 l 271 851 q 340 921 271 921 l 463 921 "},"‡":{"ha":469,"x_min":63,"x_max":407,"o":"m 407 550 l 407 638 l 282 638 l 282 871 l 407 871 l 407 958 l 282 958 l 282 1097 l 188 1097 l 188 958 l 63 958 l 63 871 l 188 871 l 188 638 l 63 638 l 63 550 l 188 550 l 188 411 l 282 411 l 282 550 l 407 550 "},"·":{"ha":347,"x_min":76,"x_max":271,"o":"m 271 454 l 271 643 l 76 643 l 76 454 l 271 454 "},"‚":{"ha":349,"x_min":42,"x_max":293,"o":"m 293 149 l 122 208 l 42 -132 l 147 -168 l 293 149 "},"„":{"ha":599,"x_min":42,"x_max":543,"o":"m 543 149 l 372 208 l 292 -132 l 397 -168 l 543 149 m 293 149 l 122 208 l 42 -132 l 147 -168 l 293 149 "},"‰":{"ha":1933,"x_min":69,"x_max":1864,"o":"m 1864 174 l 1864 518 q 1851 586 1864 554 q 1814 642 1838 618 q 1759 679 1790 665 q 1692 693 1728 693 l 1583 693 q 1516 679 1547 693 q 1462 642 1485 665 q 1426 586 1439 618 q 1413 518 1413 554 l 1413 174 q 1426 106 1413 138 q 1462 50 1439 74 q 1516 13 1485 26 q 1583 -1 1547 -1 l 1692 -1 q 1759 13 1728 -1 q 1814 50 1790 26 q 1851 106 1838 74 q 1864 174 1864 138 m 1315 174 l 1315 518 q 1302 586 1315 554 q 1265 642 1289 618 q 1210 679 1242 665 q 1143 693 1179 693 l 1035 693 q 967 679 999 693 q 913 642 936 665 q 877 586 890 618 q 864 518 864 554 l 864 174 q 877 106 864 138 q 913 50 890 74 q 967 13 936 26 q 1035 -1 999 -1 l 1143 -1 q 1210 13 1179 -1 q 1265 50 1242 26 q 1302 106 1289 74 q 1315 174 1315 138 m 935 1099 l 775 1099 l 443 0 l 603 0 l 935 1099 m 521 578 l 521 922 q 508 990 521 958 q 471 1046 494 1022 q 416 1083 447 1069 q 350 1097 385 1097 l 240 1097 q 174 1083 204 1097 q 119 1046 143 1069 q 83 990 96 1022 q 69 922 69 958 l 69 579 q 83 510 69 542 q 119 454 96 478 q 174 417 143 431 q 240 404 204 404 l 350 404 q 416 418 385 404 q 471 456 447 432 q 508 510 494 479 q 521 578 521 542 m 1714 197 q 1665 147 1714 147 l 1610 147 q 1561 197 1561 147 l 1561 494 q 1610 544 1561 544 l 1665 544 q 1714 494 1714 544 l 1714 197 m 1165 197 q 1117 147 1165 147 l 1061 147 q 1013 197 1013 147 l 1013 494 q 1061 544 1013 544 l 1117 544 q 1165 494 1165 544 l 1165 197 m 372 601 q 324 553 372 553 l 267 553 q 218 601 218 553 l 218 899 q 267 949 218 949 l 324 949 q 372 899 372 949 l 372 601 "},"Â":{"ha":847,"x_min":76,"x_max":771,"o":"m 649 1188 l 492 1361 l 356 1361 l 197 1186 l 339 1151 l 424 1244 l 507 1153 l 649 1188 m 771 0 l 518 1097 l 329 1097 l 76 0 l 278 0 l 314 182 l 533 182 l 569 0 l 771 0 m 497 371 l 350 371 l 410 681 q 414 694 411 686 q 424 703 417 703 q 433 694 431 703 q 438 681 436 686 l 497 371 "},"Ê":{"ha":847,"x_min":76,"x_max":771,"o":"m 656 1189 l 499 1363 l 363 1363 l 204 1188 l 346 1153 l 431 1246 l 515 1154 l 656 1189 m 771 0 l 771 189 l 271 189 l 271 454 l 632 454 l 632 643 l 271 643 l 271 908 l 771 908 l 771 1097 l 76 1097 l 76 0 l 771 0 "},"Á":{"ha":847,"x_min":76,"x_max":771,"o":"m 599 1322 l 490 1439 l 314 1224 l 386 1151 l 599 1322 m 771 0 l 518 1097 l 329 1097 l 76 0 l 278 0 l 314 182 l 533 182 l 569 0 l 771 0 m 497 371 l 350 371 l 410 681 q 414 694 411 686 q 424 703 417 703 q 433 694 431 703 q 438 681 436 686 l 497 371 "},"Ë":{"ha":847,"x_min":76,"x_max":771,"o":"m 644 1167 l 644 1326 l 476 1326 l 476 1167 l 644 1167 m 372 1167 l 372 1326 l 206 1326 l 206 1167 l 372 1167 m 771 0 l 771 189 l 271 189 l 271 454 l 632 454 l 632 643 l 271 643 l 271 908 l 771 908 l 771 1097 l 76 1097 l 76 0 l 771 0 "},"È":{"ha":847,"x_min":76,"x_max":771,"o":"m 550 1222 l 374 1438 l 264 1321 l 476 1150 l 550 1222 m 771 0 l 771 189 l 271 189 l 271 454 l 632 454 l 632 643 l 271 643 l 271 908 l 771 908 l 771 1097 l 76 1097 l 76 0 l 771 0 "},"Í":{"ha":347,"x_min":56,"x_max":342,"o":"m 342 1318 l 232 1435 l 56 1219 l 129 1147 l 342 1318 m 271 0 l 271 1097 l 76 1097 l 76 0 l 271 0 "},"Î":{"ha":347,"x_min":-53,"x_max":399,"o":"m 399 1188 l 242 1361 l 106 1361 l -53 1186 l 89 1151 l 174 1244 l 257 1153 l 399 1188 m 271 0 l 271 1097 l 76 1097 l 76 0 l 271 0 "},"Ï":{"ha":347,"x_min":-46,"x_max":392,"o":"m 392 1168 l 392 1328 l 225 1328 l 225 1168 l 392 1168 m 119 1168 l 119 1328 l -46 1328 l -46 1168 l 119 1168 m 271 0 l 271 1097 l 76 1097 l 76 0 l 271 0 "},"Ì":{"ha":347,"x_min":1,"x_max":286,"o":"m 286 1219 l 110 1435 l 1 1318 l 214 1147 l 286 1219 m 271 0 l 271 1097 l 76 1097 l 76 0 l 271 0 "},"Ó":{"ha":847,"x_min":76,"x_max":771,"o":"m 599 1322 l 489 1439 l 313 1224 l 386 1151 l 599 1322 m 771 250 l 771 847 q 751 944 771 899 q 698 1024 732 990 q 618 1078 664 1058 q 521 1097 572 1097 l 326 1097 q 228 1078 274 1097 q 149 1024 183 1058 q 96 944 115 990 q 76 847 76 899 l 76 250 q 96 151 76 197 q 149 72 115 106 q 228 19 183 39 q 326 0 274 0 l 521 0 q 618 19 572 0 q 698 73 664 39 q 751 152 732 107 q 771 250 771 197 m 576 286 q 551 215 576 240 q 479 189 526 189 l 368 189 q 271 286 271 189 l 271 811 q 368 908 271 908 l 479 908 q 576 811 576 908 l 576 286 "},"Ô":{"ha":847,"x_min":76,"x_max":771,"o":"m 649 1188 l 492 1361 l 354 1361 l 197 1186 l 339 1151 l 422 1244 l 507 1153 l 649 1188 m 771 250 l 771 847 q 751 944 771 899 q 698 1024 732 990 q 618 1078 664 1058 q 521 1097 572 1097 l 326 1097 q 228 1078 274 1097 q 149 1024 183 1058 q 96 944 115 990 q 76 847 76 899 l 76 250 q 96 151 76 197 q 149 72 115 106 q 228 19 183 39 q 326 0 274 0 l 521 0 q 618 19 572 0 q 698 73 664 39 q 751 152 732 107 q 771 250 771 197 m 576 286 q 551 215 576 240 q 479 189 526 189 l 368 189 q 271 286 271 189 l 271 811 q 368 908 271 908 l 479 908 q 576 811 576 908 l 576 286 "},"":{"ha":1178,"x_min":35,"x_max":1143,"o":"m 1143 0 l 1143 1110 l 897 1110 l 522 557 l 901 0 l 1143 0 m 447 0 l 68 558 l 444 1110 l 35 1110 l 35 0 l 447 0 "},"Ò":{"ha":847,"x_min":76,"x_max":771,"o":"m 538 1219 l 360 1435 l 251 1318 l 464 1147 l 538 1219 m 771 250 l 771 847 q 751 944 771 899 q 698 1024 732 990 q 618 1078 664 1058 q 521 1097 572 1097 l 326 1097 q 228 1078 274 1097 q 149 1024 183 1058 q 96 944 115 990 q 76 847 76 899 l 76 250 q 96 151 76 197 q 149 72 115 106 q 228 19 183 39 q 326 0 274 0 l 521 0 q 618 19 572 0 q 698 73 664 39 q 751 152 732 107 q 771 250 771 197 m 576 286 q 551 215 576 240 q 479 189 526 189 l 368 189 q 271 286 271 189 l 271 811 q 368 908 271 908 l 479 908 q 576 811 576 908 l 576 286 "},"Ú":{"ha":847,"x_min":76,"x_max":771,"o":"m 607 1318 l 497 1435 l 321 1219 l 394 1147 l 607 1318 m 771 250 l 771 1097 l 576 1097 l 576 286 q 479 189 576 189 l 368 189 q 271 286 271 189 l 271 1097 l 76 1097 l 76 250 q 96 152 76 197 q 149 73 115 107 q 228 19 182 39 q 326 0 274 0 l 521 0 q 618 19 572 0 q 698 73 664 39 q 751 152 732 107 q 771 250 771 197 "},"Û":{"ha":847,"x_min":76,"x_max":771,"o":"m 656 1183 l 497 1357 l 361 1357 l 204 1182 l 346 1147 l 429 1240 l 514 1149 l 656 1183 m 771 250 l 771 1097 l 576 1097 l 576 286 q 479 189 576 189 l 368 189 q 271 286 271 189 l 271 1097 l 76 1097 l 76 250 q 96 152 76 197 q 149 73 115 107 q 228 19 182 39 q 326 0 274 0 l 521 0 q 618 19 572 0 q 698 73 664 39 q 751 152 732 107 q 771 250 771 197 "},"Ù":{"ha":847,"x_min":76,"x_max":771,"o":"m 532 1219 l 356 1435 l 247 1318 l 460 1147 l 532 1219 m 771 250 l 771 1097 l 576 1097 l 576 286 q 479 189 576 189 l 368 189 q 271 286 271 189 l 271 1097 l 76 1097 l 76 250 q 96 152 76 197 q 149 73 115 107 q 228 19 182 39 q 326 0 274 0 l 521 0 q 618 19 572 0 q 698 73 664 39 q 751 152 732 107 q 771 250 771 197 "},"ı":{"ha":319,"x_min":69,"x_max":250,"o":"m 250 0 l 250 819 l 69 819 l 69 0 l 250 0 "},"ˆ":{"ha":847,"x_min":156,"x_max":607,"o":"m 607 910 l 450 1083 l 314 1083 l 156 908 l 297 874 l 382 967 l 465 875 l 607 910 "},"˜":{"ha":847,"x_min":163,"x_max":613,"o":"m 613 1060 l 514 1060 q 504 1022 514 1036 q 471 1007 494 1007 q 429 1015 449 1007 q 390 1033 410 1024 q 348 1051 369 1043 q 301 1060 326 1060 q 198 1025 231 1060 q 163 915 165 990 l 163 889 l 261 889 q 306 940 261 940 q 342 931 322 940 q 383 913 361 922 q 427 894 404 903 q 474 886 450 886 q 577 922 544 886 q 613 1032 610 957 l 613 1060 "},"¯":{"ha":847,"x_min":139,"x_max":564,"o":"m 564 896 l 564 1029 l 139 1029 l 139 896 l 564 896 "},"˘":{"ha":847,"x_min":136,"x_max":581,"o":"m 581 1072 l 474 1072 q 431 1013 461 1025 q 358 1001 401 1001 q 290 1015 315 1001 q 249 1072 264 1029 l 136 1072 q 208 925 147 975 q 364 875 268 875 q 516 926 457 875 q 581 1072 575 976 "},"˙":{"ha":847,"x_min":297,"x_max":492,"o":"m 492 889 l 492 1078 l 297 1078 l 297 889 l 492 889 "},"˚":{"ha":847,"x_min":201,"x_max":514,"o":"m 514 1038 q 502 1100 514 1071 q 469 1152 490 1129 q 420 1188 449 1175 q 358 1201 392 1201 q 296 1188 325 1201 q 246 1152 267 1175 q 213 1100 225 1129 q 201 1038 201 1071 q 213 975 201 1004 q 246 924 225 946 q 296 888 267 901 q 358 875 325 875 q 420 888 392 875 q 469 924 449 901 q 502 975 490 946 q 514 1038 514 1004 m 413 1039 q 397 998 413 1015 q 358 981 382 981 q 319 998 335 981 q 303 1039 303 1015 q 319 1079 303 1063 q 358 1096 335 1096 q 397 1079 382 1096 q 413 1039 413 1063 "},"¸":{"ha":847,"x_min":297,"x_max":550,"o":"m 550 -164 q 543 -106 550 -128 q 522 -71 536 -83 q 490 -53 508 -58 q 447 -49 471 -49 l 463 29 l 340 29 l 317 -111 l 365 -111 q 418 -156 418 -111 q 368 -200 418 -200 q 342 -201 356 -201 l 297 -201 l 297 -278 l 417 -278 q 519 -254 488 -278 q 550 -164 550 -231 "},"˝":{"ha":847,"x_min":190,"x_max":625,"o":"m 625 1071 l 504 1149 l 399 921 l 478 874 l 625 1071 m 417 1071 l 296 1149 l 190 921 l 269 874 l 417 1071 "},"˛":{"ha":847,"x_min":239,"x_max":535,"o":"m 535 -172 q 461 -192 497 -192 q 411 -176 428 -192 q 394 -133 394 -161 q 417 -64 394 -106 q 494 13 439 -22 l 397 19 q 284 -65 329 -11 q 239 -181 239 -119 q 279 -280 239 -243 q 382 -317 319 -317 q 448 -307 417 -317 q 507 -281 479 -297 l 535 -172 "},"ˇ":{"ha":847,"x_min":132,"x_max":583,"o":"m 583 1064 l 442 1099 l 357 1006 l 274 1097 l 132 1063 l 289 889 l 425 889 l 583 1064 "},"¤":{"ha":919,"x_min":76,"x_max":843,"o":"m 843 294 l 719 417 q 745 481 736 449 q 754 549 754 513 q 719 681 754 618 l 843 804 l 715 933 l 592 808 q 461 843 529 843 q 328 808 393 843 l 204 933 l 76 806 l 200 681 q 165 549 165 615 q 175 481 165 514 q 200 418 185 449 l 76 294 l 204 165 l 328 289 q 461 254 393 254 q 528 264 496 254 q 592 289 561 274 l 715 165 l 843 294 m 588 549 q 578 499 588 522 q 551 458 568 475 q 510 431 533 440 q 461 421 488 421 q 369 458 407 421 q 332 550 332 496 q 369 640 332 603 q 458 676 406 676 q 551 640 514 676 q 588 549 588 603 "},"₹":{"ha":874,"x_min":76,"x_max":797,"o":"m 797 856 l 660 856 q 653 896 657 875 q 643 933 650 917 l 757 933 l 797 1097 l 117 1097 l 76 933 l 368 933 q 429 911 406 933 q 461 856 453 889 l 117 856 l 76 694 l 463 694 q 432 639 456 661 q 368 617 408 617 l 160 617 l 160 454 l 285 454 l 451 0 l 660 0 l 490 457 q 613 535 568 476 q 660 694 657 593 l 757 694 l 797 856 "},"⅓":{"ha":1108,"x_min":69,"x_max":1039,"o":"m 1039 167 l 1039 243 q 996 347 1039 308 q 1027 390 1015 364 q 1039 449 1039 417 l 1039 525 q 1026 590 1039 560 q 992 642 1014 619 q 940 678 969 665 q 876 692 910 692 l 763 692 q 651 646 696 692 q 600 529 607 600 l 746 490 q 788 546 746 546 l 853 546 q 894 503 894 546 l 894 461 q 853 418 894 418 l 776 418 l 776 274 l 853 274 q 894 231 894 274 l 894 188 q 853 146 894 146 l 788 146 q 755 158 764 146 q 746 200 746 171 l 600 163 q 613 104 601 133 q 645 52 625 75 q 693 15 665 29 q 754 0 721 0 l 876 0 q 940 13 911 0 q 992 49 969 26 q 1026 101 1014 71 q 1039 167 1039 132 m 675 1099 l 515 1099 l 183 0 l 343 0 l 675 1099 m 219 406 l 219 1097 l 69 1097 l 69 406 l 219 406 "},"⅔":{"ha":1386,"x_min":69,"x_max":1317,"o":"m 1317 167 l 1317 243 q 1275 347 1317 308 q 1306 390 1294 364 q 1317 449 1317 417 l 1317 525 q 1304 590 1317 560 q 1269 642 1292 619 q 1218 678 1247 665 q 1156 692 1189 692 l 1042 692 q 931 646 975 692 q 878 529 886 600 l 1024 490 q 1065 546 1024 546 l 1131 546 q 1172 503 1172 546 l 1172 461 q 1131 418 1172 418 l 1054 418 l 1054 274 l 1131 274 q 1172 231 1172 274 l 1172 188 q 1131 146 1172 146 l 1065 146 q 1033 158 1042 146 q 1024 200 1024 171 l 878 163 q 891 104 879 133 q 923 52 903 75 q 971 15 943 29 q 1033 0 999 0 l 1156 0 q 1219 13 1189 0 q 1270 49 1249 26 q 1304 101 1292 71 q 1317 167 1317 132 m 953 1099 l 794 1099 l 463 0 l 622 0 l 953 1099 m 507 406 l 507 551 l 282 551 q 296 569 281 556 l 442 706 q 492 774 478 739 q 507 850 507 810 l 507 931 q 494 996 507 965 q 460 1049 482 1026 q 408 1084 438 1071 q 344 1097 378 1097 l 232 1097 q 169 1084 199 1097 q 117 1048 139 1071 q 82 996 94 1025 q 69 933 69 967 l 214 896 q 225 940 214 928 q 256 951 236 951 l 321 951 q 363 910 363 951 l 363 868 q 356 835 363 849 q 333 807 350 822 l 144 631 q 90 556 110 599 q 69 471 69 513 l 69 406 l 507 406 "},"℅":{"ha":1389,"x_min":69,"x_max":1319,"o":"m 1319 174 l 1319 525 q 1306 593 1319 561 q 1270 649 1293 625 q 1216 686 1247 672 q 1149 700 1185 700 l 1040 700 q 973 686 1004 700 q 918 649 942 672 q 881 593 894 625 q 868 525 868 561 l 868 174 q 881 106 868 138 q 918 50 894 74 q 973 13 942 26 q 1040 -1 1004 -1 l 1149 -1 q 1216 13 1185 -1 q 1270 50 1247 26 q 1306 106 1293 74 q 1319 174 1319 138 m 940 1099 l 781 1099 l 449 0 l 608 0 l 940 1099 m 525 561 l 382 600 q 326 547 381 547 l 267 547 q 213 607 213 547 l 213 889 q 267 950 213 950 l 326 950 q 382 897 381 950 l 525 936 q 481 1054 524 1008 q 372 1100 439 1100 l 222 1100 q 113 1053 156 1100 q 69 933 69 1007 l 69 563 q 81 496 69 526 q 113 443 93 465 q 161 408 133 421 q 222 396 189 396 l 372 396 q 481 442 439 396 q 525 561 524 489 m 1171 197 q 1122 147 1171 147 l 1067 147 q 1018 197 1018 147 l 1018 501 q 1067 551 1018 551 l 1122 551 q 1171 501 1171 551 l 1171 197 "},"№":{"ha":1479,"x_min":76,"x_max":1403,"o":"m 1403 528 l 1403 901 q 1388 979 1403 943 q 1347 1042 1374 1015 q 1285 1083 1321 1068 q 1207 1097 1249 1097 l 1049 1097 q 972 1083 1007 1097 q 910 1042 936 1068 q 869 981 883 1017 q 854 903 854 944 l 854 528 q 869 450 854 486 q 910 388 883 414 q 972 348 936 363 q 1049 333 1007 333 l 1207 333 q 1285 348 1249 333 q 1347 389 1321 363 q 1388 451 1374 415 q 1403 528 1403 486 m 1375 75 l 1375 249 l 882 249 l 882 75 l 1375 75 m 729 0 l 729 1097 l 535 1097 l 535 479 l 260 1097 l 76 1097 l 76 0 l 271 0 l 271 615 l 547 0 l 729 0 m 1222 579 q 1206 526 1222 543 q 1151 508 1189 508 l 1104 508 q 1035 579 1035 508 l 1035 851 q 1051 906 1035 889 q 1104 922 1068 922 l 1151 922 q 1206 906 1189 922 q 1222 851 1222 889 l 1222 579 "},"Ć":{"ha":847,"x_min":76,"x_max":771,"o":"m 597 1324 l 489 1440 l 311 1225 l 385 1153 l 597 1324 m 771 226 l 576 275 q 551 212 576 235 q 479 189 525 189 l 368 189 q 271 286 271 189 l 271 811 q 368 908 271 908 l 479 908 q 551 882 526 908 q 576 819 576 856 l 771 868 q 747 956 767 914 q 694 1028 726 997 q 617 1078 661 1060 q 521 1097 572 1097 l 326 1097 q 228 1078 274 1097 q 149 1024 183 1058 q 96 944 115 990 q 76 847 76 899 l 76 250 q 96 152 76 197 q 149 73 115 107 q 228 19 183 39 q 326 0 274 0 l 521 0 q 617 19 572 0 q 694 69 661 38 q 747 141 726 100 q 771 226 767 182 "},"ć":{"ha":715,"x_min":69,"x_max":646,"o":"m 517 1044 l 408 1161 l 231 946 l 304 874 l 517 1044 m 646 192 l 465 238 q 396 175 461 175 l 319 175 q 250 246 250 175 l 250 574 q 319 644 250 644 l 396 644 q 465 582 461 644 l 646 628 q 631 705 646 669 q 591 765 617 740 q 530 805 565 790 q 453 819 494 819 l 263 819 q 185 805 221 819 q 124 765 150 790 q 84 703 99 739 q 69 625 69 667 l 69 194 q 84 117 69 153 q 124 55 99 81 q 185 15 150 29 q 263 0 221 0 l 453 0 q 529 15 494 0 q 590 54 564 29 q 631 115 615 79 q 646 192 646 150 "},"Ĺ":{"ha":847,"x_min":76,"x_max":771,"o":"m 525 1322 l 417 1439 l 239 1224 l 313 1151 l 525 1322 m 771 0 l 771 189 l 271 189 l 271 1097 l 76 1097 l 76 0 l 771 0 "},"ĺ":{"ha":319,"x_min":33,"x_max":319,"o":"m 319 1322 l 211 1439 l 33 1224 l 107 1151 l 319 1322 m 250 0 l 250 1097 l 69 1097 l 69 0 l 250 0 "},"Ń":{"ha":847,"x_min":76,"x_max":771,"o":"m 593 1322 l 485 1439 l 307 1224 l 381 1151 l 593 1322 m 771 0 l 771 1097 l 576 1097 l 576 456 l 260 1097 l 76 1097 l 76 0 l 271 0 l 271 639 l 589 0 l 771 0 "},"ń":{"ha":699,"x_min":69,"x_max":629,"o":"m 518 1044 l 410 1161 l 232 946 l 306 874 l 518 1044 m 629 0 l 629 624 q 615 701 629 665 q 574 764 600 738 q 513 805 549 790 q 436 819 478 819 l 368 819 q 301 805 336 819 q 250 769 267 790 l 250 819 l 69 819 l 69 0 l 250 0 l 250 574 q 319 644 250 644 l 379 644 q 449 574 449 644 l 449 0 l 629 0 "},"Ŕ":{"ha":847,"x_min":76,"x_max":771,"o":"m 589 1322 l 481 1439 l 303 1224 l 376 1151 l 589 1322 m 771 0 l 601 457 q 726 539 681 476 q 771 706 771 601 l 771 847 q 751 944 771 899 q 698 1024 732 990 q 618 1078 664 1058 q 521 1097 572 1097 l 76 1097 l 76 0 l 271 0 l 271 454 l 396 454 l 563 0 l 771 0 m 576 740 q 479 643 576 643 l 271 643 l 271 908 l 479 908 q 551 883 525 908 q 576 811 576 858 l 576 740 "},"ŕ":{"ha":501,"x_min":69,"x_max":488,"o":"m 428 1044 l 319 1161 l 142 946 l 215 874 l 428 1044 m 488 800 q 452 817 474 811 q 410 822 431 822 l 365 822 q 302 806 338 822 q 250 747 267 789 l 250 819 l 69 819 l 69 0 l 250 0 l 250 574 q 319 644 250 643 l 378 644 q 419 642 407 644 q 446 631 432 639 l 488 800 "},"Ś":{"ha":847,"x_min":76,"x_max":771,"o":"m 588 1322 l 479 1439 l 301 1224 l 375 1151 l 588 1322 m 771 250 l 771 357 q 720 499 771 443 q 589 586 669 554 l 328 690 q 281 727 292 704 q 271 797 271 750 l 271 811 q 368 908 271 908 l 479 908 q 550 885 526 908 q 576 821 574 861 l 771 869 q 747 955 767 914 q 694 1028 726 996 q 617 1078 661 1060 q 521 1097 574 1097 l 326 1097 q 228 1078 274 1097 q 149 1024 183 1058 q 96 944 115 990 q 76 847 76 899 l 76 765 q 92 674 76 714 q 133 602 107 633 q 192 549 160 571 q 261 514 225 528 l 514 413 q 563 378 550 397 q 576 324 576 360 l 576 286 q 479 189 576 189 l 368 189 q 297 213 321 189 q 271 279 274 236 l 76 231 q 102 140 82 182 q 155 67 122 99 q 231 18 188 36 q 326 0 274 0 l 521 0 q 618 19 572 0 q 698 73 664 39 q 751 152 732 107 q 771 250 771 197 "},"ś":{"ha":715,"x_min":69,"x_max":646,"o":"m 517 1044 l 408 1161 l 231 946 l 304 874 l 517 1044 m 646 194 l 646 249 q 634 323 646 290 q 603 381 622 356 q 558 422 583 406 q 504 449 532 439 l 289 528 q 258 548 265 536 q 250 579 250 560 l 250 588 q 267 629 250 614 q 319 644 283 644 l 396 644 q 465 582 461 644 l 646 628 q 631 705 646 669 q 591 765 617 740 q 530 805 565 790 q 453 819 494 819 l 263 819 q 185 805 221 819 q 124 764 150 790 q 84 702 99 738 q 69 625 69 667 l 69 569 q 83 496 69 529 q 117 438 96 463 q 165 395 139 413 q 217 368 192 378 l 421 293 q 456 272 446 283 q 465 244 465 260 l 465 239 q 396 175 465 175 l 321 175 q 269 190 285 175 q 250 238 253 206 l 69 192 q 85 115 69 150 q 126 54 100 79 q 187 15 151 29 q 264 0 222 0 l 453 0 q 530 15 494 0 q 591 55 565 29 q 631 117 617 81 q 646 194 646 153 "},"Ź":{"ha":847,"x_min":76,"x_max":771,"o":"m 603 1318 l 494 1435 l 317 1219 l 390 1147 l 603 1318 m 771 0 l 771 189 l 306 189 l 771 917 l 771 1097 l 76 1099 l 76 910 l 543 910 l 76 181 l 76 0 l 771 0 "},"ź":{"ha":711,"x_min":69,"x_max":642,"o":"m 538 1044 l 429 1161 l 251 946 l 325 874 l 538 1044 m 642 0 l 642 175 l 300 175 l 642 681 l 642 819 l 69 819 l 69 644 l 413 644 l 69 139 l 69 0 l 642 0 "},"Ẃ":{"ha":847,"x_min":76,"x_max":772,"o":"m 588 1318 l 479 1435 l 301 1219 l 375 1147 l 588 1318 m 772 1097 l 576 1097 l 546 563 q 544 553 546 558 q 538 547 543 547 q 529 553 532 547 q 525 563 526 558 l 440 881 q 435 891 439 886 q 425 896 432 896 q 415 891 418 896 q 410 881 411 886 l 324 563 q 319 553 322 558 q 311 547 317 547 q 304 553 306 547 q 303 563 303 558 l 272 1097 l 76 1097 l 139 0 l 321 0 l 411 329 q 415 340 413 335 q 425 344 418 344 q 435 340 432 344 q 439 329 438 335 l 528 0 l 711 0 l 772 1097 "},"ẃ":{"ha":799,"x_min":28,"x_max":771,"o":"m 557 1044 l 449 1161 l 271 946 l 344 874 l 557 1044 m 771 819 l 586 819 l 526 401 q 524 391 526 397 q 514 385 521 385 q 506 391 508 385 q 501 401 503 397 l 415 663 q 408 676 413 674 q 400 679 404 679 q 392 676 396 679 q 385 663 388 674 l 297 401 q 294 391 296 397 q 285 385 292 385 q 276 391 279 385 q 272 401 274 397 l 213 819 l 28 819 l 161 0 l 313 0 l 388 253 q 400 268 393 268 q 413 253 407 268 l 488 0 l 639 0 l 771 819 "},"Ǽ":{"ha":1097,"x_min":76,"x_max":1021,"o":"m 726 1322 l 618 1439 l 440 1224 l 514 1151 l 726 1322 m 1021 0 l 1021 189 l 728 189 l 667 454 l 882 454 l 882 643 l 622 643 l 561 908 l 1021 908 l 1021 1097 l 329 1097 l 76 0 l 278 0 l 314 182 l 533 182 l 569 0 l 1021 0 m 497 371 l 350 371 l 410 681 q 414 694 411 686 q 424 703 417 703 q 433 694 431 703 q 438 681 436 686 l 497 371 "},"ǽ":{"ha":1076,"x_min":56,"x_max":1007,"o":"m 707 1046 l 599 1163 l 421 947 l 494 875 l 707 1046 m 1007 317 l 1007 624 q 992 701 1007 665 q 952 764 978 738 q 890 805 926 790 q 813 819 854 819 l 640 819 q 581 809 613 819 q 532 778 549 799 q 482 809 514 799 q 421 819 450 819 l 258 819 q 117 771 172 819 q 63 638 63 722 l 63 625 l 233 582 q 251 628 236 613 q 304 644 267 644 l 372 644 q 440 593 432 644 l 440 503 l 250 503 q 173 488 208 503 q 111 447 138 472 q 70 385 85 421 q 56 307 56 349 l 56 196 q 70 118 56 154 q 111 56 85 82 q 173 15 138 29 q 250 0 208 0 l 388 0 q 422 3 403 0 q 460 14 442 7 q 495 31 479 21 q 519 51 511 40 q 572 14 535 28 q 653 0 610 0 l 806 0 q 946 49 892 0 q 1000 182 1000 97 l 1000 194 l 829 238 q 812 191 826 207 q 760 175 797 175 l 692 175 q 622 229 628 175 l 622 317 l 1007 317 m 826 575 l 826 493 l 622 493 l 622 592 q 692 644 628 644 l 757 644 q 826 575 828 644 m 440 228 q 372 175 435 175 l 306 175 q 236 244 236 175 l 236 256 q 253 310 236 293 q 306 326 269 326 l 440 326 l 440 228 "},"Ǿ":{"ha":847,"x_min":76,"x_max":771,"o":"m 588 1318 l 479 1435 l 301 1219 l 375 1147 l 588 1318 m 771 250 l 771 847 q 740 969 771 914 q 657 1057 710 1024 l 699 1194 l 539 1194 l 510 1097 l 326 1097 q 228 1078 274 1097 q 149 1024 183 1058 q 96 944 115 990 q 76 847 76 899 l 76 250 q 107 128 76 183 q 189 40 138 74 l 147 -97 l 307 -97 l 336 0 l 521 0 q 618 19 572 0 q 698 73 664 39 q 751 152 732 107 q 771 250 771 197 m 576 790 l 576 286 q 551 215 576 240 q 479 189 526 189 l 394 189 l 576 790 m 453 908 l 271 310 l 271 811 q 368 908 271 908 l 453 908 "},"ǿ":{"ha":715,"x_min":69,"x_max":646,"o":"m 510 1044 l 401 1161 l 224 946 l 297 874 l 510 1044 m 646 194 l 646 624 q 618 728 646 682 q 544 797 590 774 l 581 917 l 443 917 l 413 819 l 264 819 q 187 805 222 819 q 125 765 151 790 q 84 703 99 739 q 69 625 69 667 l 69 194 q 97 91 69 136 q 171 22 125 46 l 135 -97 l 272 -97 l 301 0 l 451 0 q 528 15 493 0 q 590 55 564 29 q 631 117 617 81 q 646 194 646 153 m 360 644 l 250 283 l 250 574 q 319 644 250 644 l 360 644 m 465 246 q 396 175 465 175 l 356 175 l 465 538 l 465 246 "},"Ǻ":{"ha":847,"x_min":76,"x_max":771,"o":"m 581 1585 l 471 1701 l 294 1486 l 368 1414 l 581 1585 m 771 0 l 519 1092 q 564 1149 547 1115 q 581 1221 581 1182 q 569 1283 581 1254 q 536 1335 557 1313 q 487 1372 515 1358 q 425 1385 458 1385 q 363 1372 392 1385 q 313 1336 333 1358 q 280 1284 292 1314 q 268 1221 268 1254 q 284 1149 268 1182 q 328 1093 300 1115 l 76 0 l 278 0 l 314 182 l 533 182 l 569 0 l 771 0 m 479 1222 q 463 1181 479 1199 q 424 1164 447 1164 q 384 1181 400 1164 q 368 1222 368 1199 q 384 1263 368 1246 q 424 1281 400 1281 q 463 1263 447 1281 q 479 1222 479 1246 m 497 371 l 350 371 l 410 681 q 414 694 411 686 q 424 703 417 703 q 433 694 431 703 q 438 681 436 686 l 497 371 "},"ǻ":{"ha":678,"x_min":56,"x_max":622,"o":"m 507 1401 l 399 1518 l 221 1303 l 294 1231 l 507 1401 m 508 1038 q 497 1100 508 1071 q 464 1152 485 1129 q 415 1188 443 1175 q 353 1201 386 1201 q 290 1188 319 1201 q 240 1152 261 1175 q 208 1100 219 1129 q 196 1038 196 1071 q 208 975 196 1004 q 240 924 219 946 q 290 888 261 901 q 353 875 319 875 q 415 888 386 875 q 464 924 443 901 q 497 975 485 946 q 508 1038 508 1004 m 622 0 l 622 625 q 608 703 622 667 q 567 765 593 739 q 505 805 540 790 q 428 819 469 819 l 258 819 q 117 771 172 819 q 63 638 63 722 l 63 625 l 233 582 q 251 628 236 613 q 304 644 267 644 l 372 644 q 442 574 442 644 l 442 503 l 250 503 q 173 488 208 503 q 111 447 138 472 q 70 385 85 421 q 56 307 56 349 l 56 196 q 70 118 56 154 q 111 56 85 82 q 173 15 138 29 q 250 0 208 0 l 351 0 q 413 14 385 0 q 456 49 442 28 l 476 0 l 622 0 m 407 1039 q 391 998 407 1015 q 351 981 375 981 q 312 998 328 981 q 296 1039 296 1015 q 312 1079 296 1063 q 351 1096 328 1096 q 391 1079 375 1096 q 407 1039 407 1063 m 442 244 q 372 175 442 175 l 306 175 q 236 244 236 175 l 236 256 q 253 310 236 293 q 306 326 269 326 l 442 326 l 442 244 "},"Č":{"ha":847,"x_min":76,"x_max":771,"o":"m 653 1340 l 511 1375 l 428 1282 l 343 1374 l 201 1339 l 358 1165 l 494 1165 l 653 1340 m 771 226 l 576 275 q 551 212 576 235 q 479 189 525 189 l 368 189 q 271 286 271 189 l 271 811 q 368 908 271 908 l 479 908 q 551 882 526 908 q 576 819 576 856 l 771 868 q 747 956 767 914 q 694 1028 726 997 q 617 1078 661 1060 q 521 1097 572 1097 l 326 1097 q 228 1078 274 1097 q 149 1024 183 1058 q 96 944 115 990 q 76 847 76 899 l 76 250 q 96 152 76 197 q 149 73 115 107 q 228 19 183 39 q 326 0 274 0 l 521 0 q 617 19 572 0 q 694 69 661 38 q 747 141 726 100 q 771 226 767 182 "},"č":{"ha":715,"x_min":69,"x_max":646,"o":"m 589 1064 l 447 1099 l 363 1006 l 279 1097 l 138 1063 l 294 889 l 431 889 l 589 1064 m 646 192 l 465 238 q 396 175 461 175 l 319 175 q 250 246 250 175 l 250 574 q 319 644 250 644 l 396 644 q 465 582 461 644 l 646 628 q 631 705 646 669 q 591 765 617 740 q 530 805 565 790 q 453 819 494 819 l 263 819 q 185 805 221 819 q 124 765 150 790 q 84 703 99 739 q 69 625 69 667 l 69 194 q 84 117 69 153 q 124 55 99 81 q 185 15 150 29 q 263 0 221 0 l 453 0 q 529 15 494 0 q 590 54 564 29 q 631 115 615 79 q 646 192 646 150 "},"Ě":{"ha":847,"x_min":76,"x_max":771,"o":"m 658 1342 l 517 1376 l 433 1283 l 349 1375 l 207 1340 l 364 1167 l 500 1167 l 658 1342 m 771 0 l 771 189 l 271 189 l 271 454 l 632 454 l 632 643 l 271 643 l 271 908 l 771 908 l 771 1097 l 76 1097 l 76 0 l 771 0 "},"ě":{"ha":706,"x_min":69,"x_max":636,"o":"m 585 1064 l 443 1099 l 358 1006 l 275 1097 l 133 1063 l 290 889 l 426 889 l 585 1064 m 636 317 l 636 624 q 622 701 636 665 q 581 764 607 738 q 519 805 556 790 q 442 819 483 819 l 263 819 q 185 805 221 819 q 124 764 150 790 q 84 702 99 738 q 69 625 69 667 l 69 194 q 84 117 69 153 q 125 55 99 81 q 188 15 151 29 q 265 0 224 0 l 435 0 q 574 49 519 0 q 629 182 629 97 l 629 194 l 458 238 q 440 191 456 207 q 389 175 425 175 l 321 175 q 250 246 250 175 l 250 317 l 636 317 m 456 575 l 456 493 l 250 493 l 250 575 q 267 628 250 611 q 321 644 283 644 l 386 644 q 456 575 457 644 "},"Ň":{"ha":847,"x_min":76,"x_max":771,"o":"m 651 1340 l 510 1375 l 426 1282 l 342 1374 l 200 1339 l 357 1165 l 493 1165 l 651 1340 m 771 0 l 771 1097 l 576 1097 l 576 456 l 260 1097 l 76 1097 l 76 0 l 271 0 l 271 639 l 589 0 l 771 0 "},"ň":{"ha":699,"x_min":69,"x_max":629,"o":"m 583 1064 l 442 1099 l 357 1006 l 274 1097 l 132 1063 l 289 889 l 425 889 l 583 1064 m 629 0 l 629 624 q 615 701 629 665 q 574 764 600 738 q 513 805 549 790 q 436 819 478 819 l 368 819 q 301 805 336 819 q 250 769 267 790 l 250 819 l 69 819 l 69 0 l 250 0 l 250 574 q 319 644 250 644 l 379 644 q 449 574 449 644 l 449 0 l 629 0 "},"Ř":{"ha":847,"x_min":76,"x_max":771,"o":"m 646 1340 l 504 1375 l 421 1282 l 336 1374 l 194 1339 l 351 1165 l 488 1165 l 646 1340 m 771 0 l 601 457 q 726 539 681 476 q 771 706 771 601 l 771 847 q 751 944 771 899 q 698 1024 732 990 q 618 1078 664 1058 q 521 1097 572 1097 l 76 1097 l 76 0 l 271 0 l 271 454 l 396 454 l 563 0 l 771 0 m 576 740 q 479 643 576 643 l 271 643 l 271 908 l 479 908 q 551 883 525 908 q 576 811 576 858 l 576 740 "},"ř":{"ha":501,"x_min":54,"x_max":506,"o":"m 506 1064 l 364 1099 l 279 1006 l 196 1097 l 54 1063 l 211 889 l 347 889 l 506 1064 m 488 800 q 452 817 474 811 q 410 822 431 822 l 365 822 q 302 806 338 822 q 250 747 267 789 l 250 819 l 69 819 l 69 0 l 250 0 l 250 574 q 319 644 250 643 l 378 644 q 419 642 407 644 q 446 631 432 639 l 488 800 "},"Ť":{"ha":847,"x_min":76,"x_max":771,"o":"m 650 1340 l 508 1375 l 425 1282 l 340 1374 l 199 1339 l 356 1165 l 492 1165 l 650 1340 m 771 908 l 771 1097 l 76 1097 l 76 908 l 326 908 l 326 0 l 521 0 l 521 908 l 771 908 "},"ť":{"ha":585,"x_min":21,"x_max":626,"o":"m 626 1174 l 481 1225 l 417 946 l 504 917 l 626 1174 m 463 0 l 463 175 l 340 175 q 271 244 271 175 l 271 638 l 449 638 l 449 813 l 271 813 l 271 1026 l 90 981 l 90 813 l 21 813 l 21 638 l 90 638 l 90 196 q 105 118 90 154 q 146 56 119 82 q 208 15 172 29 q 285 0 243 0 l 463 0 "},"Ď":{"ha":847,"x_min":76,"x_max":771,"o":"m 639 1340 l 497 1375 l 414 1282 l 329 1374 l 188 1339 l 344 1165 l 481 1165 l 639 1340 m 771 250 l 771 847 q 751 944 771 899 q 698 1024 732 990 q 618 1078 664 1058 q 521 1097 572 1097 l 76 1097 l 76 908 l 132 908 l 132 189 l 76 189 l 76 0 l 521 0 q 618 19 572 0 q 698 73 664 39 q 751 152 732 107 q 771 250 771 197 m 576 286 q 479 189 576 189 l 326 189 l 326 908 l 479 908 q 576 811 576 908 l 576 286 "},"ď":{"ha":949,"x_min":69,"x_max":949,"o":"m 949 1040 l 788 1097 l 717 788 l 813 754 l 949 1040 m 657 0 l 657 1097 l 476 1097 l 476 769 q 425 808 456 796 q 358 819 394 819 l 263 819 q 185 805 221 819 q 124 765 150 790 q 84 703 99 739 q 69 625 69 667 l 69 194 q 84 117 69 153 q 124 55 99 81 q 185 15 150 29 q 263 0 221 0 l 375 0 q 492 49 454 0 l 513 0 l 657 0 m 476 246 q 407 175 476 175 l 319 175 q 250 246 250 175 l 250 574 q 319 644 250 644 l 407 644 q 476 574 476 644 l 476 246 "},"Ģ":{"ha":847,"x_min":76,"x_max":771,"o":"m 771 250 l 771 579 l 438 579 l 438 390 l 576 390 l 576 286 q 479 189 576 189 l 368 189 q 271 286 271 189 l 271 811 q 368 908 271 908 l 479 908 q 551 883 526 908 q 576 824 576 857 l 771 872 q 744 960 764 919 q 691 1032 724 1001 q 615 1080 658 1063 q 521 1097 572 1097 l 326 1097 q 228 1078 274 1097 q 149 1024 183 1058 q 96 944 115 990 q 76 847 76 899 l 76 250 q 96 152 76 197 q 149 73 115 107 q 228 19 183 39 q 326 0 274 0 l 521 0 q 618 19 572 0 q 698 73 664 39 q 751 152 732 107 q 771 250 771 197 m 536 -118 l 374 -61 l 303 -371 l 400 -404 l 536 -118 "},"ģ":{"ha":726,"x_min":69,"x_max":657,"o":"m 513 1188 l 415 1222 l 279 936 l 442 879 l 513 1188 m 657 -85 l 657 819 l 511 819 l 490 774 q 441 806 474 793 q 372 819 408 819 l 263 819 q 185 805 221 819 q 124 765 150 790 q 84 703 99 739 q 69 626 69 668 l 69 233 q 84 156 69 192 q 124 94 99 119 q 185 53 150 68 q 263 39 221 39 l 358 39 q 425 53 390 39 q 476 89 460 68 l 476 -32 q 407 -103 476 -103 l 332 -103 q 279 -87 294 -103 q 261 -40 264 -71 l 90 -83 l 90 -96 q 145 -229 90 -181 q 285 -278 200 -278 l 463 -278 q 540 -263 504 -278 q 602 -223 576 -249 q 642 -162 628 -197 q 657 -85 657 -126 m 476 285 q 407 215 476 215 l 319 215 q 250 285 250 215 l 250 574 q 319 644 250 644 l 407 644 q 476 574 476 644 l 476 285 "},"Ķ":{"ha":847,"x_min":76,"x_max":771,"o":"m 771 0 l 771 74 q 764 133 771 107 q 733 199 757 160 l 492 610 l 711 882 q 758 960 744 924 q 771 1038 771 997 l 771 1097 l 576 1097 l 576 1060 q 570 1012 576 1031 q 542 965 564 993 l 271 628 l 271 1097 l 76 1097 l 76 0 l 271 0 l 271 347 l 357 457 l 556 119 q 572 80 567 100 q 576 40 576 60 l 576 0 l 771 0 m 522 -118 l 360 -61 l 289 -371 l 386 -404 l 522 -118 "},"ķ":{"ha":726,"x_min":69,"x_max":657,"o":"m 657 0 l 657 51 q 650 97 657 76 q 624 149 643 118 l 429 467 l 606 657 q 645 716 633 689 q 657 774 657 743 l 657 819 l 474 819 l 474 792 q 467 757 474 769 q 442 725 461 744 l 250 517 l 250 1097 l 69 1097 l 69 0 l 250 0 l 250 294 l 296 347 l 456 90 q 474 31 474 63 l 474 -1 l 657 0 m 460 -118 l 297 -61 l 226 -371 l 324 -404 l 460 -118 "},"Ļ":{"ha":847,"x_min":76,"x_max":771,"o":"m 771 0 l 771 189 l 271 189 l 271 1097 l 76 1097 l 76 0 l 771 0 m 515 -118 l 353 -61 l 282 -371 l 379 -404 l 515 -118 "},"ļ":{"ha":319,"x_min":33,"x_max":267,"o":"m 250 0 l 250 1097 l 69 1097 l 69 0 l 250 0 m 267 -118 l 104 -61 l 33 -371 l 131 -404 l 267 -118 "},"Ņ":{"ha":847,"x_min":76,"x_max":771,"o":"m 771 0 l 771 1097 l 576 1097 l 576 456 l 260 1097 l 76 1097 l 76 0 l 271 0 l 271 639 l 589 0 l 771 0 m 524 -118 l 361 -61 l 290 -371 l 388 -404 l 524 -118 "},"ņ":{"ha":699,"x_min":69,"x_max":629,"o":"m 629 0 l 629 624 q 615 701 629 665 q 574 764 600 738 q 513 805 549 790 q 436 819 478 819 l 368 819 q 301 805 336 819 q 250 769 267 790 l 250 819 l 69 819 l 69 0 l 250 0 l 250 574 q 319 644 250 644 l 379 644 q 449 574 449 644 l 449 0 l 629 0 m 446 -118 l 283 -61 l 213 -371 l 310 -404 l 446 -118 "},"Ŗ":{"ha":847,"x_min":76,"x_max":771,"o":"m 771 0 l 601 457 q 726 539 681 476 q 771 706 771 601 l 771 847 q 751 944 771 899 q 698 1024 732 990 q 618 1078 664 1058 q 521 1097 572 1097 l 76 1097 l 76 0 l 271 0 l 271 454 l 396 454 l 563 0 l 771 0 m 522 -118 l 360 -61 l 289 -371 l 386 -404 l 522 -118 m 576 740 q 479 643 576 643 l 271 643 l 271 908 l 479 908 q 551 883 525 908 q 576 811 576 858 l 576 740 "},"ŗ":{"ha":501,"x_min":69,"x_max":488,"o":"m 488 800 q 452 817 474 811 q 410 822 431 822 l 365 822 q 302 806 338 822 q 250 747 267 789 l 250 819 l 69 819 l 69 0 l 250 0 l 250 574 q 319 644 250 643 l 378 644 q 419 642 407 644 q 446 631 432 639 l 488 800 m 365 -118 l 203 -61 l 132 -371 l 229 -404 l 365 -118 "},"Ș":{"ha":847,"x_min":76,"x_max":771,"o":"m 771 250 l 771 357 q 720 499 771 443 q 589 586 669 554 l 328 690 q 281 727 292 704 q 271 797 271 750 l 271 811 q 368 908 271 908 l 479 908 q 550 885 526 908 q 576 821 574 861 l 771 869 q 747 955 767 914 q 694 1028 726 996 q 617 1078 661 1060 q 521 1097 574 1097 l 326 1097 q 228 1078 274 1097 q 149 1024 183 1058 q 96 944 115 990 q 76 847 76 899 l 76 765 q 92 674 76 714 q 133 602 107 633 q 192 549 160 571 q 261 514 225 528 l 514 413 q 563 378 550 397 q 576 324 576 360 l 576 286 q 479 189 576 189 l 368 189 q 297 213 321 189 q 271 279 274 236 l 76 231 q 102 140 82 182 q 155 67 122 99 q 231 18 188 36 q 326 0 274 0 l 521 0 q 618 19 572 0 q 698 73 664 39 q 751 152 732 107 q 771 250 771 197 m 535 -118 l 372 -61 l 301 -371 l 399 -404 l 535 -118 "},"ș":{"ha":715,"x_min":69,"x_max":646,"o":"m 646 194 l 646 249 q 634 323 646 290 q 603 381 622 356 q 558 422 583 406 q 504 449 532 439 l 289 528 q 258 548 265 536 q 250 579 250 560 l 250 588 q 267 629 250 614 q 319 644 283 644 l 396 644 q 465 582 461 644 l 646 628 q 631 705 646 669 q 591 765 617 740 q 530 805 565 790 q 453 819 494 819 l 263 819 q 185 805 221 819 q 124 764 150 790 q 84 702 99 738 q 69 625 69 667 l 69 569 q 83 496 69 529 q 117 438 96 463 q 165 395 139 413 q 217 368 192 378 l 421 293 q 456 272 446 283 q 465 244 465 260 l 465 239 q 396 175 465 175 l 321 175 q 269 190 285 175 q 250 238 253 206 l 69 192 q 85 115 69 150 q 126 54 100 79 q 187 15 151 29 q 264 0 222 0 l 453 0 q 530 15 494 0 q 591 55 565 29 q 631 117 617 81 q 646 194 646 153 m 475 -118 l 313 -61 l 242 -371 l 339 -404 l 475 -118 "},"Ț":{"ha":847,"x_min":76,"x_max":771,"o":"m 771 908 l 771 1097 l 76 1097 l 76 908 l 326 908 l 326 0 l 521 0 l 521 908 l 771 908 m 508 -118 l 346 -61 l 275 -371 l 372 -404 l 508 -118 "},"ț":{"ha":497,"x_min":21,"x_max":463,"o":"m 463 0 l 463 175 l 340 175 q 271 244 271 175 l 271 638 l 449 638 l 449 813 l 271 813 l 271 1026 l 90 981 l 90 813 l 21 813 l 21 638 l 90 638 l 90 196 q 105 118 90 154 q 146 56 119 82 q 208 15 172 29 q 285 0 243 0 l 463 0 m 356 -118 l 193 -61 l 122 -371 l 219 -404 l 356 -118 "},"Ş":{"ha":847,"x_min":76,"x_max":771,"o":"m 771 250 l 771 357 q 720 499 771 443 q 589 586 669 554 l 328 690 q 281 727 292 704 q 271 797 271 750 l 271 811 q 368 908 271 908 l 479 908 q 550 885 526 908 q 576 821 574 861 l 771 869 q 747 955 767 914 q 694 1028 726 996 q 617 1078 661 1060 q 521 1097 574 1097 l 326 1097 q 228 1078 274 1097 q 149 1024 183 1058 q 96 944 115 990 q 76 847 76 899 l 76 765 q 92 674 76 714 q 133 602 107 633 q 192 549 160 571 q 261 514 225 528 l 514 413 q 563 378 550 397 q 576 324 576 360 l 576 286 q 479 189 576 189 l 368 189 q 297 213 321 189 q 271 279 274 236 l 76 231 q 102 140 82 182 q 155 67 122 99 q 231 18 188 36 q 326 0 274 0 l 354 0 l 335 -111 l 383 -111 q 436 -156 436 -111 q 386 -200 436 -200 q 360 -201 374 -201 l 315 -201 l 315 -278 l 435 -278 q 537 -254 506 -278 q 568 -164 568 -231 q 561 -106 568 -128 q 540 -71 554 -83 q 508 -53 526 -58 q 465 -49 489 -49 l 475 0 l 521 0 q 618 19 572 0 q 698 73 664 39 q 751 152 732 107 q 771 250 771 197 "},"ş":{"ha":715,"x_min":69,"x_max":646,"o":"m 646 194 l 646 249 q 634 323 646 290 q 603 381 622 356 q 558 422 583 406 q 504 449 532 439 l 289 528 q 258 548 265 536 q 250 579 250 560 l 250 588 q 267 629 250 614 q 319 644 283 644 l 396 644 q 465 582 461 644 l 646 628 q 631 705 646 669 q 591 765 617 740 q 530 805 565 790 q 453 819 494 819 l 263 819 q 185 805 221 819 q 124 764 150 790 q 84 702 99 738 q 69 625 69 667 l 69 569 q 83 496 69 529 q 117 438 96 463 q 165 395 139 413 q 217 368 192 378 l 421 293 q 456 272 446 283 q 465 244 465 260 l 465 239 q 396 175 465 175 l 321 175 q 269 190 285 175 q 250 238 253 206 l 69 192 q 85 115 69 150 q 126 54 100 79 q 187 15 151 29 q 264 0 222 0 l 290 0 l 271 -111 l 319 -111 q 372 -156 372 -111 q 322 -200 372 -200 q 296 -201 310 -201 l 251 -201 l 251 -278 l 371 -278 q 473 -254 442 -278 q 504 -164 504 -231 q 497 -106 504 -128 q 476 -71 490 -83 q 444 -53 463 -58 q 401 -49 425 -49 l 411 0 l 453 0 q 530 15 494 0 q 591 55 565 29 q 631 117 617 81 q 646 194 646 153 "},"Ţ":{"ha":847,"x_min":76,"x_max":771,"o":"m 771 908 l 771 1097 l 76 1097 l 76 908 l 326 908 l 326 0 l 365 0 l 346 -111 l 394 -111 q 447 -156 447 -111 q 397 -200 447 -200 q 371 -201 385 -201 l 326 -201 l 326 -278 l 446 -278 q 548 -254 517 -278 q 579 -164 579 -231 q 572 -106 579 -128 q 551 -71 565 -83 q 519 -53 538 -58 q 476 -49 500 -49 l 486 0 l 521 0 l 521 908 l 771 908 "},"ţ":{"ha":497,"x_min":21,"x_max":463,"o":"m 174 33 l 150 -111 l 201 -111 q 240 -124 228 -111 q 251 -157 251 -136 q 240 -189 251 -178 q 201 -200 229 -200 l 131 -201 l 131 -278 l 250 -278 q 351 -256 319 -278 q 383 -164 383 -235 q 376 -106 383 -128 q 356 -71 369 -83 q 323 -53 342 -58 q 281 -49 304 -49 l 290 0 l 463 0 l 463 175 l 340 175 q 271 244 271 175 l 271 638 l 449 638 l 449 813 l 271 813 l 271 1026 l 90 981 l 90 813 l 21 813 l 21 638 l 90 638 l 90 196 q 113 101 90 143 q 174 33 135 58 "},"Ľ":{"ha":847,"x_min":76,"x_max":771,"o":"m 629 1053 l 467 1108 l 396 800 l 493 767 l 629 1053 m 771 0 l 771 189 l 271 189 l 271 1097 l 76 1097 l 76 0 l 771 0 "},"ľ":{"ha":519,"x_min":69,"x_max":547,"o":"m 547 1056 l 385 1113 l 314 803 l 411 769 l 547 1056 m 250 0 l 250 1097 l 69 1097 l 69 0 l 250 0 "},"ŉ":{"ha":831,"x_min":0,"x_max":761,"o":"m 233 1056 l 71 1113 l 0 803 l 97 769 l 233 1056 m 761 0 l 761 624 q 747 701 761 665 q 706 764 732 738 q 645 805 681 790 q 568 819 610 819 l 500 819 q 433 805 468 819 q 382 769 399 790 l 382 819 l 201 819 l 201 0 l 382 0 l 382 574 q 451 644 382 644 l 511 644 q 581 574 581 644 l 581 0 l 761 0 "},"Ą":{"ha":847,"x_min":76,"x_max":771,"o":"m 771 0 l 518 1097 l 329 1097 l 76 0 l 278 0 l 314 182 l 533 182 l 569 0 l 596 0 q 509 -80 543 -32 q 475 -181 475 -128 q 515 -280 475 -243 q 618 -317 556 -317 q 684 -307 653 -317 q 743 -281 715 -297 l 771 -172 q 697 -192 733 -192 q 647 -176 664 -192 q 631 -133 631 -161 q 649 -70 631 -107 q 711 0 667 -33 l 771 0 m 497 371 l 350 371 l 410 681 q 414 694 411 686 q 424 703 417 703 q 433 694 431 703 q 438 681 436 686 l 497 371 "},"ą":{"ha":692,"x_min":56,"x_max":622,"o":"m 622 0 l 622 625 q 608 703 622 667 q 567 765 593 739 q 505 805 540 790 q 428 819 469 819 l 258 819 q 117 771 172 819 q 63 638 63 722 l 63 625 l 233 582 q 251 628 236 613 q 304 644 267 644 l 372 644 q 442 574 442 644 l 442 503 l 250 503 q 173 488 208 503 q 111 447 138 472 q 70 385 85 421 q 56 307 56 349 l 56 196 q 70 118 56 154 q 111 56 85 82 q 173 15 138 29 q 250 0 208 0 l 351 0 q 413 14 385 0 q 456 49 442 28 l 471 13 q 367 -71 408 -19 q 326 -181 326 -122 q 367 -280 326 -243 q 469 -317 407 -317 q 535 -307 504 -317 q 594 -281 567 -297 l 622 -172 q 549 -192 585 -192 q 499 -176 515 -192 q 482 -133 482 -161 q 500 -70 482 -107 q 563 0 518 -33 l 622 0 m 442 244 q 372 175 442 175 l 306 175 q 236 244 236 175 l 236 256 q 253 310 236 293 q 306 326 269 326 l 442 326 l 442 244 "},"Ę":{"ha":847,"x_min":76,"x_max":771,"o":"m 771 0 l 771 189 l 271 189 l 271 454 l 632 454 l 632 643 l 271 643 l 271 908 l 771 908 l 771 1097 l 76 1097 l 76 0 l 596 0 q 509 -80 543 -32 q 475 -181 475 -128 q 515 -280 475 -243 q 618 -317 556 -317 q 684 -307 653 -317 q 743 -281 715 -297 l 771 -172 q 697 -192 733 -192 q 647 -176 664 -192 q 631 -133 631 -161 q 649 -70 631 -107 q 711 0 667 -33 l 771 0 "},"ę":{"ha":860,"x_min":69,"x_max":636,"o":"m 636 317 l 636 624 q 622 701 636 665 q 581 764 607 738 q 519 805 556 790 q 442 819 483 819 l 263 819 q 185 805 221 819 q 124 764 150 790 q 84 702 99 738 q 69 625 69 667 l 69 194 q 84 117 69 153 q 125 55 99 81 q 188 15 151 29 q 265 0 224 0 l 378 0 q 291 -80 325 -32 q 257 -181 257 -128 q 297 -280 257 -243 q 400 -317 338 -317 q 466 -307 435 -317 q 525 -281 497 -297 l 553 -172 q 479 -192 515 -192 q 429 -176 446 -192 q 413 -133 413 -161 q 434 -65 413 -106 q 510 11 456 -24 q 597 74 564 31 q 629 182 629 117 l 629 194 l 458 238 q 440 191 456 207 q 389 175 425 175 l 321 175 q 250 246 250 175 l 250 317 l 636 317 m 456 575 l 456 493 l 250 493 l 250 575 q 267 628 250 611 q 321 644 283 644 l 386 644 q 456 575 457 644 "},"Į":{"ha":347,"x_min":15,"x_max":311,"o":"m 311 -172 q 238 -192 274 -192 q 188 -176 204 -192 q 171 -133 171 -161 q 189 -70 171 -107 q 251 0 207 -33 l 271 0 l 271 1097 l 76 1097 l 76 0 l 136 0 q 49 -80 83 -32 q 15 -181 15 -128 q 56 -280 15 -243 q 158 -317 96 -317 q 224 -307 193 -317 q 283 -281 256 -297 l 311 -172 "},"į":{"ha":319,"x_min":-6,"x_max":290,"o":"m 250 921 l 250 1096 l 69 1096 l 69 921 l 250 921 m 290 -172 q 217 -192 253 -192 q 167 -176 183 -192 q 150 -133 150 -161 q 168 -70 150 -107 q 231 0 186 -33 l 250 0 l 250 819 l 69 819 l 69 0 l 115 0 q 28 -80 63 -32 q -6 -181 -6 -128 q 35 -280 -6 -243 q 138 -317 75 -317 q 203 -307 172 -317 q 263 -281 235 -297 l 290 -172 "},"Ų":{"ha":847,"x_min":76,"x_max":771,"o":"m 771 250 l 771 1097 l 576 1097 l 576 286 q 479 189 576 189 l 368 189 q 271 286 271 189 l 271 1097 l 76 1097 l 76 250 q 96 152 76 197 q 149 73 115 107 q 228 19 182 39 q 326 0 274 0 l 401 0 q 315 -80 349 -32 q 281 -181 281 -128 q 321 -280 281 -243 q 424 -317 361 -317 q 490 -307 458 -317 q 549 -281 521 -297 l 576 -172 q 503 -192 539 -192 q 453 -176 469 -192 q 436 -133 436 -161 q 454 -70 436 -107 q 517 0 472 -33 l 521 0 q 618 19 572 0 q 698 73 664 39 q 751 152 732 107 q 771 250 771 197 "},"ų":{"ha":699,"x_min":69,"x_max":629,"o":"m 629 0 l 629 819 l 449 819 l 449 244 q 379 175 449 175 l 319 175 q 250 244 250 175 l 250 819 l 69 819 l 69 196 q 84 118 69 154 q 124 56 99 82 q 185 14 150 29 q 263 -1 221 -1 l 331 -1 q 397 14 363 -1 q 449 50 432 29 l 449 0 l 451 0 q 365 -80 399 -32 q 331 -181 331 -128 q 371 -280 331 -243 q 474 -317 411 -317 q 540 -307 508 -317 q 599 -281 571 -297 l 626 -172 q 553 -192 589 -192 q 503 -176 519 -192 q 486 -133 486 -161 q 504 -70 486 -107 q 567 0 522 -33 l 629 0 "},"Ā":{"ha":847,"x_min":76,"x_max":771,"o":"m 633 1168 l 633 1301 l 208 1301 l 208 1168 l 633 1168 m 771 0 l 518 1097 l 329 1097 l 76 0 l 278 0 l 314 182 l 533 182 l 569 0 l 771 0 m 497 371 l 350 371 l 410 681 q 414 694 411 686 q 424 703 417 703 q 433 694 431 703 q 438 681 436 686 l 497 371 "},"ā":{"ha":692,"x_min":56,"x_max":622,"o":"m 557 896 l 557 1029 l 132 1029 l 132 896 l 557 896 m 622 0 l 622 625 q 608 703 622 667 q 567 765 593 739 q 505 805 540 790 q 428 819 469 819 l 258 819 q 117 771 172 819 q 63 638 63 722 l 63 625 l 233 582 q 251 628 236 613 q 304 644 267 644 l 372 644 q 442 574 442 644 l 442 503 l 250 503 q 173 488 208 503 q 111 447 138 472 q 70 385 85 421 q 56 307 56 349 l 56 196 q 70 118 56 154 q 111 56 85 82 q 173 15 138 29 q 250 0 208 0 l 351 0 q 413 14 385 0 q 456 49 442 28 l 476 0 l 622 0 m 442 244 q 372 175 442 175 l 306 175 q 236 244 236 175 l 236 256 q 253 310 236 293 q 306 326 269 326 l 442 326 l 442 244 "},"Ē":{"ha":847,"x_min":76,"x_max":771,"o":"m 632 1168 l 632 1301 l 207 1301 l 207 1168 l 632 1168 m 771 0 l 771 189 l 271 189 l 271 454 l 632 454 l 632 643 l 271 643 l 271 908 l 771 908 l 771 1097 l 76 1097 l 76 0 l 771 0 "},"ē":{"ha":706,"x_min":69,"x_max":636,"o":"m 565 890 l 565 1024 l 140 1024 l 140 890 l 565 890 m 636 317 l 636 624 q 622 701 636 665 q 581 764 607 738 q 519 805 556 790 q 442 819 483 819 l 263 819 q 185 805 221 819 q 124 764 150 790 q 84 702 99 738 q 69 625 69 667 l 69 194 q 84 117 69 153 q 125 55 99 81 q 188 15 151 29 q 265 0 224 0 l 435 0 q 574 49 519 0 q 629 182 629 97 l 629 194 l 458 238 q 440 191 456 207 q 389 175 425 175 l 321 175 q 250 246 250 175 l 250 317 l 636 317 m 456 575 l 456 493 l 250 493 l 250 575 q 267 628 250 611 q 321 644 283 644 l 386 644 q 456 575 457 644 "},"Ī":{"ha":347,"x_min":-39,"x_max":386,"o":"m 386 1168 l 386 1301 l -39 1301 l -39 1168 l 386 1168 m 271 0 l 271 1097 l 76 1097 l 76 0 l 271 0 "},"ī":{"ha":319,"x_min":-53,"x_max":372,"o":"m 372 889 l 372 1022 l -53 1022 l -53 889 l 372 889 m 250 0 l 250 819 l 69 819 l 69 0 l 250 0 "},"Ō":{"ha":847,"x_min":76,"x_max":771,"o":"m 636 1167 l 636 1300 l 211 1300 l 211 1167 l 636 1167 m 771 250 l 771 847 q 751 944 771 899 q 698 1024 732 990 q 618 1078 664 1058 q 521 1097 572 1097 l 326 1097 q 228 1078 274 1097 q 149 1024 183 1058 q 96 944 115 990 q 76 847 76 899 l 76 250 q 96 151 76 197 q 149 72 115 106 q 228 19 183 39 q 326 0 274 0 l 521 0 q 618 19 572 0 q 698 73 664 39 q 751 152 732 107 q 771 250 771 197 m 576 286 q 551 215 576 240 q 479 189 526 189 l 368 189 q 271 286 271 189 l 271 811 q 368 908 271 908 l 479 908 q 576 811 576 908 l 576 286 "},"ō":{"ha":715,"x_min":69,"x_max":646,"o":"m 572 896 l 572 1029 l 147 1029 l 147 896 l 572 896 m 646 194 l 646 624 q 631 701 646 665 q 590 764 617 738 q 528 805 564 790 q 451 819 493 819 l 264 819 q 187 805 222 819 q 125 765 151 790 q 84 703 99 739 q 69 625 69 667 l 69 194 q 84 117 69 153 q 125 55 99 81 q 187 15 151 29 q 264 0 222 0 l 451 0 q 528 15 493 0 q 590 55 564 29 q 631 117 617 81 q 646 194 646 153 m 465 246 q 396 175 465 175 l 319 175 q 250 246 250 175 l 250 574 q 319 644 250 644 l 396 644 q 465 574 465 644 l 465 246 "},"Ū":{"ha":847,"x_min":76,"x_max":771,"o":"m 632 1165 l 632 1299 l 207 1299 l 207 1165 l 632 1165 m 771 250 l 771 1097 l 576 1097 l 576 286 q 479 189 576 189 l 368 189 q 271 286 271 189 l 271 1097 l 76 1097 l 76 250 q 96 152 76 197 q 149 73 115 107 q 228 19 182 39 q 326 0 274 0 l 521 0 q 618 19 572 0 q 698 73 664 39 q 751 152 732 107 q 771 250 771 197 "},"ū":{"ha":699,"x_min":69,"x_max":629,"o":"m 563 889 l 563 1022 l 138 1022 l 138 889 l 563 889 m 629 0 l 629 819 l 449 819 l 449 244 q 379 175 449 175 l 319 175 q 250 244 250 175 l 250 819 l 69 819 l 69 196 q 84 118 69 154 q 124 56 99 82 q 185 14 150 29 q 263 -1 221 -1 l 331 -1 q 397 14 363 -1 q 449 50 432 29 l 449 0 l 629 0 "},"Đ":{"ha":847,"x_min":76,"x_max":771,"o":"m 771 250 l 771 847 q 751 944 771 899 q 698 1024 732 990 q 618 1078 664 1058 q 521 1097 572 1097 l 76 1097 l 76 908 l 132 908 l 132 643 l 76 643 l 76 454 l 132 454 l 132 189 l 76 189 l 76 0 l 521 0 q 618 19 572 0 q 698 73 664 39 q 751 152 732 107 q 771 250 771 197 m 576 286 q 479 189 576 189 l 326 189 l 326 454 l 438 454 l 438 643 l 326 643 l 326 908 l 479 908 q 576 811 576 908 l 576 286 "},"đ":{"ha":726,"x_min":69,"x_max":713,"o":"m 713 889 l 713 1022 l 657 1022 l 657 1097 l 476 1097 l 476 1022 l 288 1022 l 288 889 l 476 889 l 476 769 q 425 808 456 796 q 358 819 394 819 l 263 819 q 185 805 221 819 q 124 765 150 790 q 84 703 99 739 q 69 625 69 667 l 69 194 q 84 117 69 153 q 124 55 99 81 q 185 15 150 29 q 263 0 221 0 l 375 0 q 492 49 454 0 l 513 0 l 657 0 l 657 889 l 713 889 m 476 246 q 407 175 476 175 l 319 175 q 250 246 250 175 l 250 574 q 319 644 250 644 l 407 644 q 476 574 476 644 l 476 246 "},"ĸ":{"ha":726,"x_min":69,"x_max":657,"o":"m 657 0 l 657 51 q 650 97 657 76 q 624 149 643 118 l 429 467 l 606 657 q 645 716 633 689 q 657 774 657 743 l 657 819 l 474 819 l 474 792 q 467 757 474 769 q 442 725 461 744 l 250 517 l 250 819 l 69 819 l 69 0 l 250 0 l 250 294 l 296 347 l 456 90 q 474 31 474 63 l 474 -1 l 657 0 "},"Ĉ":{"ha":847,"x_min":76,"x_max":771,"o":"m 651 1185 l 493 1358 l 357 1358 l 200 1183 l 342 1149 l 425 1242 l 510 1150 l 651 1185 m 771 226 l 576 275 q 551 212 576 235 q 479 189 525 189 l 368 189 q 271 286 271 189 l 271 811 q 368 908 271 908 l 479 908 q 551 882 526 908 q 576 819 576 856 l 771 868 q 747 956 767 914 q 694 1028 726 997 q 617 1078 661 1060 q 521 1097 572 1097 l 326 1097 q 228 1078 274 1097 q 149 1024 183 1058 q 96 944 115 990 q 76 847 76 899 l 76 250 q 96 152 76 197 q 149 73 115 107 q 228 19 183 39 q 326 0 274 0 l 521 0 q 617 19 572 0 q 694 69 661 38 q 747 141 726 100 q 771 226 767 182 "},"ĉ":{"ha":715,"x_min":69,"x_max":646,"o":"m 586 910 l 429 1083 l 293 1083 l 135 908 l 276 874 l 361 967 l 444 875 l 586 910 m 646 192 l 465 238 q 396 175 461 175 l 319 175 q 250 246 250 175 l 250 574 q 319 644 250 644 l 396 644 q 465 582 461 644 l 646 628 q 631 705 646 669 q 591 765 617 740 q 530 805 565 790 q 453 819 494 819 l 263 819 q 185 805 221 819 q 124 765 150 790 q 84 703 99 739 q 69 625 69 667 l 69 194 q 84 117 69 153 q 124 55 99 81 q 185 15 150 29 q 263 0 221 0 l 453 0 q 529 15 494 0 q 590 54 564 29 q 631 115 615 79 q 646 192 646 150 "},"Ĝ":{"ha":847,"x_min":76,"x_max":771,"o":"m 650 1189 l 492 1363 l 356 1363 l 199 1188 l 340 1153 l 424 1246 l 508 1154 l 650 1189 m 771 250 l 771 579 l 438 579 l 438 390 l 576 390 l 576 286 q 479 189 576 189 l 368 189 q 271 286 271 189 l 271 811 q 368 908 271 908 l 479 908 q 551 883 526 908 q 576 824 576 857 l 771 872 q 744 960 764 919 q 691 1032 724 1001 q 615 1080 658 1063 q 521 1097 572 1097 l 326 1097 q 228 1078 274 1097 q 149 1024 183 1058 q 96 944 115 990 q 76 847 76 899 l 76 250 q 96 152 76 197 q 149 73 115 107 q 228 19 183 39 q 326 0 274 0 l 521 0 q 618 19 572 0 q 698 73 664 39 q 751 152 732 107 q 771 250 771 197 "},"ĝ":{"ha":726,"x_min":69,"x_max":657,"o":"m 597 910 l 440 1083 l 304 1083 l 146 908 l 288 874 l 372 967 l 456 875 l 597 910 m 657 -85 l 657 819 l 511 819 l 490 774 q 441 806 474 793 q 372 819 408 819 l 263 819 q 185 805 221 819 q 124 765 150 790 q 84 703 99 739 q 69 626 69 668 l 69 233 q 84 156 69 192 q 124 94 99 119 q 185 53 150 68 q 263 39 221 39 l 358 39 q 425 53 390 39 q 476 89 460 68 l 476 -32 q 407 -103 476 -103 l 332 -103 q 279 -87 294 -103 q 261 -40 264 -71 l 90 -83 l 90 -96 q 145 -229 90 -181 q 285 -278 200 -278 l 463 -278 q 540 -263 504 -278 q 602 -223 576 -249 q 642 -162 628 -197 q 657 -85 657 -126 m 476 285 q 407 215 476 215 l 319 215 q 250 285 250 215 l 250 574 q 319 644 250 644 l 407 644 q 476 574 476 644 l 476 285 "},"Ĥ":{"ha":847,"x_min":76,"x_max":771,"o":"m 653 1186 l 494 1360 l 358 1360 l 201 1185 l 343 1150 l 426 1243 l 511 1151 l 653 1186 m 771 0 l 771 1097 l 576 1097 l 576 643 l 271 643 l 271 1097 l 76 1097 l 76 0 l 271 0 l 271 454 l 576 454 l 576 0 l 771 0 "},"ĥ":{"ha":726,"x_min":69,"x_max":657,"o":"m 594 1188 l 436 1361 l 300 1361 l 143 1186 l 285 1151 l 368 1244 l 453 1153 l 594 1188 m 657 0 l 657 624 q 642 701 657 665 q 601 764 628 738 q 540 805 575 790 q 463 819 504 819 l 368 819 q 301 805 336 819 q 250 769 267 790 l 250 1097 l 69 1097 l 69 0 l 250 0 l 250 574 q 319 644 250 644 l 407 644 q 476 574 476 644 l 476 0 l 657 0 "},"Ĵ":{"ha":847,"x_min":76,"x_max":897,"o":"m 897 1185 l 739 1358 l 603 1358 l 446 1183 l 588 1149 l 671 1242 l 756 1150 l 897 1185 m 771 250 l 771 1097 l 576 1097 l 576 286 q 479 189 576 189 l 368 189 q 296 214 321 189 q 271 275 271 239 l 76 226 q 103 137 82 178 q 156 65 124 96 q 233 17 189 35 q 326 0 276 0 l 521 0 q 618 19 572 0 q 698 73 664 39 q 751 152 732 107 q 771 250 771 197 "},"ĵ":{"ha":319,"x_min":-65,"x_max":386,"o":"m 386 914 l 229 1088 l 93 1088 l -65 913 l 76 878 l 160 971 l 244 879 l 386 914 m 250 -103 l 250 819 l 69 819 l 69 -33 q 0 -103 69 -103 l -56 -103 l -56 -278 l 69 -278 q 201 -233 153 -278 q 250 -103 250 -187 "},"Ŝ":{"ha":847,"x_min":76,"x_max":771,"o":"m 650 1185 l 492 1358 l 356 1358 l 199 1183 l 340 1149 l 424 1242 l 508 1150 l 650 1185 m 771 250 l 771 357 q 720 499 771 443 q 589 586 669 554 l 328 690 q 281 727 292 704 q 271 797 271 750 l 271 811 q 368 908 271 908 l 479 908 q 550 885 526 908 q 576 821 574 861 l 771 869 q 747 955 767 914 q 694 1028 726 996 q 617 1078 661 1060 q 521 1097 574 1097 l 326 1097 q 228 1078 274 1097 q 149 1024 183 1058 q 96 944 115 990 q 76 847 76 899 l 76 765 q 92 674 76 714 q 133 602 107 633 q 192 549 160 571 q 261 514 225 528 l 514 413 q 563 378 550 397 q 576 324 576 360 l 576 286 q 479 189 576 189 l 368 189 q 297 213 321 189 q 271 279 274 236 l 76 231 q 102 140 82 182 q 155 67 122 99 q 231 18 188 36 q 326 0 274 0 l 521 0 q 618 19 572 0 q 698 73 664 39 q 751 152 732 107 q 771 250 771 197 "},"ŝ":{"ha":715,"x_min":69,"x_max":646,"o":"m 581 910 l 424 1083 l 288 1083 l 129 908 l 271 874 l 356 967 l 439 875 l 581 910 m 646 194 l 646 249 q 634 323 646 290 q 603 381 622 356 q 558 422 583 406 q 504 449 532 439 l 289 528 q 258 548 265 536 q 250 579 250 560 l 250 588 q 267 629 250 614 q 319 644 283 644 l 396 644 q 465 582 461 644 l 646 628 q 631 705 646 669 q 591 765 617 740 q 530 805 565 790 q 453 819 494 819 l 263 819 q 185 805 221 819 q 124 764 150 790 q 84 702 99 738 q 69 625 69 667 l 69 569 q 83 496 69 529 q 117 438 96 463 q 165 395 139 413 q 217 368 192 378 l 421 293 q 456 272 446 283 q 465 244 465 260 l 465 239 q 396 175 465 175 l 321 175 q 269 190 285 175 q 250 238 253 206 l 69 192 q 85 115 69 150 q 126 54 100 79 q 187 15 151 29 q 264 0 222 0 l 453 0 q 530 15 494 0 q 591 55 565 29 q 631 117 617 81 q 646 194 646 153 "},"Ŵ":{"ha":847,"x_min":76,"x_max":772,"o":"m 651 1185 l 493 1358 l 357 1358 l 200 1183 l 342 1149 l 425 1242 l 510 1150 l 651 1185 m 772 1097 l 576 1097 l 546 563 q 544 553 546 558 q 538 547 543 547 q 529 553 532 547 q 525 563 526 558 l 440 881 q 435 891 439 886 q 425 896 432 896 q 415 891 418 896 q 410 881 411 886 l 324 563 q 319 553 322 558 q 311 547 317 547 q 304 553 306 547 q 303 563 303 558 l 272 1097 l 76 1097 l 139 0 l 321 0 l 411 329 q 415 340 413 335 q 425 344 418 344 q 435 340 432 344 q 439 329 438 335 l 528 0 l 711 0 l 772 1097 "},"ŵ":{"ha":799,"x_min":28,"x_max":771,"o":"m 626 910 l 469 1083 l 333 1083 l 175 908 l 317 874 l 401 967 l 485 875 l 626 910 m 771 819 l 586 819 l 526 401 q 524 391 526 397 q 514 385 521 385 q 506 391 508 385 q 501 401 503 397 l 415 663 q 408 676 413 674 q 400 679 404 679 q 392 676 396 679 q 385 663 388 674 l 297 401 q 294 391 296 397 q 285 385 292 385 q 276 391 279 385 q 272 401 274 397 l 213 819 l 28 819 l 161 0 l 313 0 l 388 253 q 400 268 393 268 q 413 253 407 268 l 488 0 l 639 0 l 771 819 "},"Ŷ":{"ha":847,"x_min":76,"x_max":771,"o":"m 649 1185 l 490 1358 l 354 1358 l 197 1183 l 339 1149 l 422 1242 l 507 1150 l 649 1185 m 771 1031 l 771 1097 l 576 1097 l 576 1054 q 572 1010 576 1033 q 558 964 568 986 l 424 650 l 289 964 q 275 1009 279 985 q 271 1054 271 1033 l 271 1097 l 76 1097 l 76 1032 q 84 960 76 996 q 111 883 92 924 l 326 404 l 326 0 l 521 0 l 521 404 l 736 883 q 771 1031 771 961 "},"ŷ":{"ha":694,"x_min":28,"x_max":667,"o":"m 568 910 l 411 1083 l 275 1083 l 117 908 l 258 874 l 343 967 l 426 875 l 568 910 m 667 819 l 482 819 l 358 346 q 355 335 357 342 q 346 329 353 329 q 338 335 340 329 q 333 346 335 342 l 213 819 l 28 819 l 258 0 l 250 -31 q 157 -103 229 -103 l 101 -103 l 101 -278 l 176 -278 q 251 -267 215 -278 q 318 -235 288 -257 q 372 -180 349 -214 q 408 -99 396 -146 l 667 819 "},"Ů":{"ha":847,"x_min":76,"x_max":771,"o":"m 579 1311 q 567 1374 579 1344 q 535 1426 556 1403 q 485 1462 514 1449 q 424 1475 457 1475 q 361 1462 390 1475 q 311 1426 332 1449 q 278 1374 290 1404 q 267 1311 267 1344 q 278 1249 267 1278 q 311 1197 290 1219 q 361 1162 332 1175 q 424 1149 390 1149 q 485 1162 457 1149 q 535 1197 514 1175 q 567 1249 556 1219 q 579 1311 579 1279 m 771 250 l 771 1097 l 576 1097 l 576 286 q 479 189 576 189 l 368 189 q 271 286 271 189 l 271 1097 l 76 1097 l 76 250 q 96 152 76 197 q 149 73 115 107 q 228 19 182 39 q 326 0 274 0 l 521 0 q 618 19 572 0 q 698 73 664 39 q 751 152 732 107 q 771 250 771 197 m 478 1313 q 462 1272 478 1289 q 422 1254 446 1254 q 383 1272 399 1254 q 367 1313 367 1289 q 383 1353 367 1336 q 422 1371 399 1371 q 462 1353 446 1371 q 478 1313 478 1336 "},"ů":{"ha":699,"x_min":69,"x_max":629,"o":"m 508 1038 q 497 1100 508 1071 q 464 1152 485 1129 q 415 1188 443 1175 q 353 1201 386 1201 q 290 1188 319 1201 q 240 1152 261 1175 q 208 1100 219 1129 q 196 1038 196 1071 q 208 975 196 1004 q 240 924 219 946 q 290 888 261 901 q 353 875 319 875 q 415 888 386 875 q 464 924 443 901 q 497 975 485 946 q 508 1038 508 1004 m 629 0 l 629 819 l 449 819 l 449 244 q 379 175 449 175 l 319 175 q 250 244 250 175 l 250 819 l 69 819 l 69 196 q 84 118 69 154 q 124 56 99 82 q 185 14 150 29 q 263 -1 221 -1 l 331 -1 q 397 14 363 -1 q 449 50 432 29 l 449 0 l 629 0 m 407 1039 q 392 998 407 1015 q 353 981 376 981 q 313 998 329 981 q 297 1039 297 1015 q 313 1079 297 1063 q 353 1096 329 1096 q 392 1079 376 1096 q 407 1039 407 1063 "},"Ő":{"ha":847,"x_min":76,"x_max":771,"o":"m 688 1336 l 567 1414 l 460 1188 l 540 1140 l 688 1336 m 479 1336 l 358 1414 l 251 1188 l 332 1140 l 479 1336 m 771 250 l 771 847 q 751 944 771 899 q 698 1024 732 990 q 618 1078 664 1058 q 521 1097 572 1097 l 326 1097 q 228 1078 274 1097 q 149 1024 183 1058 q 96 944 115 990 q 76 847 76 899 l 76 250 q 96 151 76 197 q 149 72 115 106 q 228 19 183 39 q 326 0 274 0 l 521 0 q 618 19 572 0 q 698 73 664 39 q 751 152 732 107 q 771 250 771 197 m 576 286 q 551 215 576 240 q 479 189 526 189 l 368 189 q 271 286 271 189 l 271 811 q 368 908 271 908 l 479 908 q 576 811 576 908 l 576 286 "},"ő":{"ha":715,"x_min":69,"x_max":646,"o":"m 618 1071 l 497 1149 l 392 921 l 471 874 l 618 1071 m 410 1071 l 289 1149 l 183 921 l 263 874 l 410 1071 m 646 194 l 646 624 q 631 701 646 665 q 590 764 617 738 q 528 805 564 790 q 451 819 493 819 l 264 819 q 187 805 222 819 q 125 765 151 790 q 84 703 99 739 q 69 625 69 667 l 69 194 q 84 117 69 153 q 125 55 99 81 q 187 15 151 29 q 264 0 222 0 l 451 0 q 528 15 493 0 q 590 55 564 29 q 631 117 617 81 q 646 194 646 153 m 465 246 q 396 175 465 175 l 319 175 q 250 246 250 175 l 250 574 q 319 644 250 644 l 396 644 q 465 574 465 644 l 465 246 "},"Ű":{"ha":847,"x_min":76,"x_max":771,"o":"m 678 1336 l 557 1414 l 450 1188 l 531 1140 l 678 1336 m 469 1336 l 349 1414 l 242 1188 l 322 1140 l 469 1336 m 771 250 l 771 1097 l 576 1097 l 576 286 q 479 189 576 189 l 368 189 q 271 286 271 189 l 271 1097 l 76 1097 l 76 250 q 96 152 76 197 q 149 73 115 107 q 228 19 182 39 q 326 0 274 0 l 521 0 q 618 19 572 0 q 698 73 664 39 q 751 152 732 107 q 771 250 771 197 "},"ű":{"ha":699,"x_min":69,"x_max":629,"o":"m 615 1071 l 494 1149 l 389 921 l 468 874 l 615 1071 m 407 1071 l 286 1149 l 181 921 l 260 874 l 407 1071 m 629 0 l 629 819 l 449 819 l 449 244 q 379 175 449 175 l 319 175 q 250 244 250 175 l 250 819 l 69 819 l 69 196 q 84 118 69 154 q 124 56 99 82 q 185 14 150 29 q 263 -1 221 -1 l 331 -1 q 397 14 363 -1 q 449 50 432 29 l 449 0 l 629 0 "},"Ă":{"ha":847,"x_min":76,"x_max":771,"o":"m 646 1344 l 539 1344 q 497 1287 526 1299 q 422 1275 467 1275 q 354 1289 381 1275 q 314 1344 328 1303 l 201 1344 q 273 1198 213 1247 q 429 1149 333 1149 q 581 1199 522 1149 q 646 1344 640 1250 m 771 0 l 518 1097 l 329 1097 l 76 0 l 278 0 l 314 182 l 533 182 l 569 0 l 771 0 m 497 371 l 350 371 l 410 681 q 414 694 411 686 q 424 703 417 703 q 433 694 431 703 q 438 681 436 686 l 497 371 "},"ă":{"ha":692,"x_min":56,"x_max":622,"o":"m 571 1072 l 464 1072 q 422 1013 451 1025 q 349 1001 392 1001 q 280 1015 306 1001 q 239 1072 254 1029 l 126 1072 q 198 925 138 975 q 354 875 258 875 q 506 926 447 875 q 571 1072 565 976 m 622 0 l 622 625 q 608 703 622 667 q 567 765 593 739 q 505 805 540 790 q 428 819 469 819 l 258 819 q 117 771 172 819 q 63 638 63 722 l 63 625 l 233 582 q 251 628 236 613 q 304 644 267 644 l 372 644 q 442 574 442 644 l 442 503 l 250 503 q 173 488 208 503 q 111 447 138 472 q 70 385 85 421 q 56 307 56 349 l 56 196 q 70 118 56 154 q 111 56 85 82 q 173 15 138 29 q 250 0 208 0 l 351 0 q 413 14 385 0 q 456 49 442 28 l 476 0 l 622 0 m 442 244 q 372 175 442 175 l 306 175 q 236 244 236 175 l 236 256 q 253 310 236 293 q 306 326 269 326 l 442 326 l 442 244 "},"Ĕ":{"ha":847,"x_min":76,"x_max":771,"o":"m 651 1344 l 544 1344 q 502 1287 532 1299 q 428 1275 472 1275 q 360 1289 386 1275 q 319 1344 333 1303 l 207 1344 q 278 1198 218 1247 q 435 1149 339 1149 q 587 1199 528 1149 q 651 1344 646 1250 m 771 0 l 771 189 l 271 189 l 271 454 l 632 454 l 632 643 l 271 643 l 271 908 l 771 908 l 771 1097 l 76 1097 l 76 0 l 771 0 "},"ĕ":{"ha":706,"x_min":69,"x_max":636,"o":"m 582 1072 l 475 1072 q 433 1013 463 1025 q 360 1001 403 1001 q 291 1015 317 1001 q 250 1072 265 1029 l 138 1072 q 209 925 149 975 q 365 875 269 875 q 517 926 458 875 q 582 1072 576 976 m 636 317 l 636 624 q 622 701 636 665 q 581 764 607 738 q 519 805 556 790 q 442 819 483 819 l 263 819 q 185 805 221 819 q 124 764 150 790 q 84 702 99 738 q 69 625 69 667 l 69 194 q 84 117 69 153 q 125 55 99 81 q 188 15 151 29 q 265 0 224 0 l 435 0 q 574 49 519 0 q 629 182 629 97 l 629 194 l 458 238 q 440 191 456 207 q 389 175 425 175 l 321 175 q 250 246 250 175 l 250 317 l 636 317 m 456 575 l 456 493 l 250 493 l 250 575 q 267 628 250 611 q 321 644 283 644 l 386 644 q 456 575 457 644 "},"Ğ":{"ha":847,"x_min":76,"x_max":771,"o":"m 638 1344 l 531 1344 q 488 1287 518 1299 q 414 1275 458 1275 q 346 1289 372 1275 q 306 1344 319 1303 l 193 1344 q 265 1198 204 1247 q 421 1149 325 1149 q 573 1199 514 1149 q 638 1344 632 1250 m 771 250 l 771 579 l 438 579 l 438 390 l 576 390 l 576 286 q 479 189 576 189 l 368 189 q 271 286 271 189 l 271 811 q 368 908 271 908 l 479 908 q 551 883 526 908 q 576 824 576 857 l 771 872 q 744 960 764 919 q 691 1032 724 1001 q 615 1080 658 1063 q 521 1097 572 1097 l 326 1097 q 228 1078 274 1097 q 149 1024 183 1058 q 96 944 115 990 q 76 847 76 899 l 76 250 q 96 152 76 197 q 149 73 115 107 q 228 19 183 39 q 326 0 274 0 l 521 0 q 618 19 572 0 q 698 73 664 39 q 751 152 732 107 q 771 250 771 197 "},"ğ":{"ha":726,"x_min":69,"x_max":657,"o":"m 593 1072 l 486 1072 q 444 1013 474 1025 q 371 1001 414 1001 q 302 1015 328 1001 q 261 1072 276 1029 l 149 1072 q 220 925 160 975 q 376 875 281 875 q 528 926 469 875 q 593 1072 588 976 m 657 -85 l 657 819 l 511 819 l 490 774 q 441 806 474 793 q 372 819 408 819 l 263 819 q 185 805 221 819 q 124 765 150 790 q 84 703 99 739 q 69 626 69 668 l 69 233 q 84 156 69 192 q 124 94 99 119 q 185 53 150 68 q 263 39 221 39 l 358 39 q 425 53 390 39 q 476 89 460 68 l 476 -32 q 407 -103 476 -103 l 332 -103 q 279 -87 294 -103 q 261 -40 264 -71 l 90 -83 l 90 -96 q 145 -229 90 -181 q 285 -278 200 -278 l 463 -278 q 540 -263 504 -278 q 602 -223 576 -249 q 642 -162 628 -197 q 657 -85 657 -126 m 476 285 q 407 215 476 215 l 319 215 q 250 285 250 215 l 250 574 q 319 644 250 644 l 407 644 q 476 574 476 644 l 476 285 "},"Ĭ":{"ha":347,"x_min":-49,"x_max":396,"o":"m 396 1344 l 289 1344 q 247 1287 276 1299 q 172 1275 217 1275 q 104 1289 131 1275 q 64 1344 78 1303 l -49 1344 q 23 1198 -37 1247 q 179 1149 83 1149 q 331 1199 272 1149 q 396 1344 390 1250 m 271 0 l 271 1097 l 76 1097 l 76 0 l 271 0 "},"ĭ":{"ha":319,"x_min":-64,"x_max":381,"o":"m 381 1072 l 274 1072 q 231 1013 261 1025 q 158 1001 201 1001 q 90 1015 115 1001 q 49 1072 64 1029 l -64 1072 q 8 925 -53 975 q 164 875 68 875 q 316 926 257 875 q 381 1072 375 976 m 250 0 l 250 819 l 69 819 l 69 0 l 250 0 "},"Ŏ":{"ha":847,"x_min":76,"x_max":771,"o":"m 649 1344 l 542 1344 q 499 1287 529 1299 q 425 1275 469 1275 q 357 1289 383 1275 q 317 1344 331 1303 l 204 1344 q 276 1198 215 1247 q 432 1149 336 1149 q 584 1199 525 1149 q 649 1344 643 1250 m 771 250 l 771 847 q 751 944 771 899 q 698 1024 732 990 q 618 1078 664 1058 q 521 1097 572 1097 l 326 1097 q 228 1078 274 1097 q 149 1024 183 1058 q 96 944 115 990 q 76 847 76 899 l 76 250 q 96 151 76 197 q 149 72 115 106 q 228 19 183 39 q 326 0 274 0 l 521 0 q 618 19 572 0 q 698 73 664 39 q 751 152 732 107 q 771 250 771 197 m 576 286 q 551 215 576 240 q 479 189 526 189 l 368 189 q 271 286 271 189 l 271 811 q 368 908 271 908 l 479 908 q 576 811 576 908 l 576 286 "},"ŏ":{"ha":715,"x_min":69,"x_max":646,"o":"m 579 1074 l 472 1074 q 429 1015 458 1026 q 356 1003 400 1003 q 288 1017 314 1003 q 246 1074 261 1031 l 135 1074 q 205 926 144 976 q 361 876 265 876 q 513 927 454 876 q 579 1074 572 978 m 646 194 l 646 624 q 631 701 646 665 q 590 764 617 738 q 528 805 564 790 q 451 819 493 819 l 264 819 q 187 805 222 819 q 125 765 151 790 q 84 703 99 739 q 69 625 69 667 l 69 194 q 84 117 69 153 q 125 55 99 81 q 187 15 151 29 q 264 0 222 0 l 451 0 q 528 15 493 0 q 590 55 564 29 q 631 117 617 81 q 646 194 646 153 m 465 246 q 396 175 465 175 l 319 175 q 250 246 250 175 l 250 574 q 319 644 250 644 l 396 644 q 465 574 465 644 l 465 246 "},"Ŭ":{"ha":847,"x_min":76,"x_max":771,"o":"m 649 1344 l 542 1344 q 499 1287 529 1299 q 425 1275 469 1275 q 357 1289 383 1275 q 317 1344 331 1303 l 204 1344 q 276 1198 215 1247 q 432 1149 336 1149 q 584 1199 525 1149 q 649 1344 643 1250 m 771 250 l 771 1097 l 576 1097 l 576 286 q 479 189 576 189 l 368 189 q 271 286 271 189 l 271 1097 l 76 1097 l 76 250 q 96 152 76 197 q 149 73 115 107 q 228 19 182 39 q 326 0 274 0 l 521 0 q 618 19 572 0 q 698 73 664 39 q 751 152 732 107 q 771 250 771 197 "},"ŭ":{"ha":699,"x_min":69,"x_max":629,"o":"m 574 1072 l 467 1072 q 424 1013 454 1025 q 351 1001 394 1001 q 283 1015 308 1001 q 242 1072 257 1029 l 129 1072 q 201 925 140 975 q 357 875 261 875 q 509 926 450 875 q 574 1072 568 976 m 629 0 l 629 819 l 449 819 l 449 244 q 379 175 449 175 l 319 175 q 250 244 250 175 l 250 819 l 69 819 l 69 196 q 84 118 69 154 q 124 56 99 82 q 185 14 150 29 q 263 -1 221 -1 l 331 -1 q 397 14 363 -1 q 449 50 432 29 l 449 0 l 629 0 "},"Ĩ":{"ha":347,"x_min":-51,"x_max":399,"o":"m 399 1340 l 300 1340 q 290 1303 300 1318 q 257 1288 281 1288 q 215 1296 235 1288 q 176 1314 196 1304 q 134 1332 156 1324 q 88 1340 113 1340 q -16 1306 17 1342 q -51 1196 -49 1271 l -51 1169 l 47 1169 q 92 1221 47 1221 q 128 1213 108 1221 q 169 1194 147 1204 q 213 1176 190 1185 q 260 1168 236 1168 q 363 1203 331 1168 q 399 1313 396 1238 l 399 1340 m 271 0 l 271 1097 l 76 1097 l 76 0 l 271 0 "},"ĩ":{"ha":319,"x_min":-65,"x_max":385,"o":"m 385 1063 l 286 1063 q 276 1024 286 1039 q 243 1010 267 1010 q 201 1018 221 1010 q 162 1036 182 1026 q 120 1054 142 1046 q 74 1063 99 1063 q -30 1028 3 1063 q -65 918 -62 993 l -65 892 l 33 892 q 78 943 33 943 q 114 934 94 943 q 155 915 133 925 q 199 897 176 906 q 246 889 222 889 q 349 924 317 889 q 385 1035 382 960 l 385 1063 m 250 0 l 250 819 l 69 819 l 69 0 l 250 0 "},"Ũ":{"ha":847,"x_min":76,"x_max":771,"o":"m 649 1338 l 550 1338 q 540 1300 550 1315 q 507 1285 531 1285 q 465 1293 485 1285 q 426 1311 446 1301 q 384 1329 406 1321 q 338 1338 363 1338 q 234 1303 267 1339 q 199 1193 201 1268 l 199 1167 l 297 1167 q 342 1218 297 1218 q 378 1210 358 1218 q 419 1192 397 1201 q 463 1174 440 1182 q 510 1165 486 1165 q 613 1200 581 1165 q 649 1310 646 1235 l 649 1338 m 771 250 l 771 1097 l 576 1097 l 576 286 q 479 189 576 189 l 368 189 q 271 286 271 189 l 271 1097 l 76 1097 l 76 250 q 96 152 76 197 q 149 73 115 107 q 228 19 182 39 q 326 0 274 0 l 521 0 q 618 19 572 0 q 698 73 664 39 q 751 152 732 107 q 771 250 771 197 "},"ũ":{"ha":699,"x_min":69,"x_max":629,"o":"m 574 1060 l 475 1060 q 465 1022 475 1036 q 432 1007 456 1007 q 390 1015 410 1007 q 351 1033 371 1024 q 309 1051 331 1043 q 263 1060 288 1060 q 159 1025 192 1060 q 124 915 126 990 l 124 889 l 222 889 q 267 940 222 940 q 303 931 283 940 q 344 913 322 922 q 388 894 365 903 q 435 886 411 886 q 538 922 506 886 q 574 1032 571 957 l 574 1060 m 629 0 l 629 819 l 449 819 l 449 244 q 379 175 449 175 l 319 175 q 250 244 250 175 l 250 819 l 69 819 l 69 196 q 84 118 69 154 q 124 56 99 82 q 185 14 150 29 q 263 -1 221 -1 l 331 -1 q 397 14 363 -1 q 449 50 432 29 l 449 0 l 629 0 "},"Ẁ":{"ha":847,"x_min":76,"x_max":772,"o":"m 558 1218 l 382 1433 l 272 1317 l 485 1146 l 558 1218 m 772 1097 l 576 1097 l 546 563 q 544 553 546 558 q 538 547 543 547 q 529 553 532 547 q 525 563 526 558 l 440 881 q 435 891 439 886 q 425 896 432 896 q 415 891 418 896 q 410 881 411 886 l 324 563 q 319 553 322 558 q 311 547 317 547 q 304 553 306 547 q 303 563 303 558 l 272 1097 l 76 1097 l 139 0 l 321 0 l 411 329 q 415 340 413 335 q 425 344 418 344 q 435 340 432 344 q 439 329 438 335 l 528 0 l 711 0 l 772 1097 "},"ẁ":{"ha":799,"x_min":28,"x_max":771,"o":"m 538 946 l 361 1161 l 251 1044 l 464 874 l 538 946 m 771 819 l 586 819 l 526 401 q 524 391 526 397 q 514 385 521 385 q 506 391 508 385 q 501 401 503 397 l 415 663 q 408 676 413 674 q 400 679 404 679 q 392 676 396 679 q 385 663 388 674 l 297 401 q 294 391 296 397 q 285 385 292 385 q 276 391 279 385 q 272 401 274 397 l 213 819 l 28 819 l 161 0 l 313 0 l 388 253 q 400 268 393 268 q 413 253 407 268 l 488 0 l 639 0 l 771 819 "},"Ỳ":{"ha":847,"x_min":76,"x_max":771,"o":"m 554 1218 l 378 1433 l 268 1317 l 481 1146 l 554 1218 m 771 1031 l 771 1097 l 576 1097 l 576 1054 q 572 1010 576 1033 q 558 964 568 986 l 424 650 l 289 964 q 275 1009 279 985 q 271 1054 271 1033 l 271 1097 l 76 1097 l 76 1032 q 84 960 76 996 q 111 883 92 924 l 326 404 l 326 0 l 521 0 l 521 404 l 736 883 q 771 1031 771 961 "},"ỳ":{"ha":694,"x_min":28,"x_max":667,"o":"m 476 946 l 300 1161 l 190 1044 l 403 874 l 476 946 m 667 819 l 482 819 l 358 346 q 355 335 357 342 q 346 329 353 329 q 338 335 340 329 q 333 346 335 342 l 213 819 l 28 819 l 258 0 l 250 -31 q 157 -103 229 -103 l 101 -103 l 101 -278 l 176 -278 q 251 -267 215 -278 q 318 -235 288 -257 q 372 -180 349 -214 q 408 -99 396 -146 l 667 819 "},"Ẅ":{"ha":847,"x_min":76,"x_max":772,"o":"m 642 1167 l 642 1326 l 474 1326 l 474 1167 l 642 1167 m 369 1167 l 369 1326 l 203 1326 l 203 1167 l 369 1167 m 772 1097 l 576 1097 l 546 563 q 544 553 546 558 q 538 547 543 547 q 529 553 532 547 q 525 563 526 558 l 440 881 q 435 891 439 886 q 425 896 432 896 q 415 891 418 896 q 410 881 411 886 l 324 563 q 319 553 322 558 q 311 547 317 547 q 304 553 306 547 q 303 563 303 558 l 272 1097 l 76 1097 l 139 0 l 321 0 l 411 329 q 415 340 413 335 q 425 344 418 344 q 435 340 432 344 q 439 329 438 335 l 528 0 l 711 0 l 772 1097 "},"ẅ":{"ha":799,"x_min":28,"x_max":771,"o":"m 619 889 l 619 1047 l 451 1047 l 451 889 l 619 889 m 347 889 l 347 1047 l 182 1047 l 182 889 l 347 889 m 771 819 l 586 819 l 526 401 q 524 391 526 397 q 514 385 521 385 q 506 391 508 385 q 501 401 503 397 l 415 663 q 408 676 413 674 q 400 679 404 679 q 392 676 396 679 q 385 663 388 674 l 297 401 q 294 391 296 397 q 285 385 292 385 q 276 391 279 385 q 272 401 274 397 l 213 819 l 28 819 l 161 0 l 313 0 l 388 253 q 400 268 393 268 q 413 253 407 268 l 488 0 l 639 0 l 771 819 "},"Ħ":{"ha":861,"x_min":42,"x_max":819,"o":"m 819 758 l 819 911 l 778 911 l 778 1097 l 583 1097 l 583 911 l 278 911 l 278 1097 l 83 1097 l 83 911 l 42 911 l 42 758 l 83 758 l 83 0 l 278 0 l 278 454 l 583 454 l 583 0 l 778 0 l 778 758 l 819 758 m 583 643 l 278 643 l 278 758 l 583 758 l 583 643 "},"ħ":{"ha":740,"x_min":15,"x_max":671,"o":"m 671 0 l 671 624 q 656 701 671 665 q 615 764 642 738 q 553 805 589 790 q 476 819 518 819 l 382 819 q 315 805 350 819 q 264 769 281 790 l 264 896 l 440 896 l 440 1029 l 264 1029 l 264 1097 l 83 1097 l 83 1029 l 15 1029 l 15 896 l 83 896 l 83 0 l 264 0 l 264 574 q 333 644 264 644 l 421 644 q 490 574 490 644 l 490 0 l 671 0 "},"Ŧ":{"ha":847,"x_min":76,"x_max":771,"o":"m 771 908 l 771 1097 l 76 1097 l 76 908 l 326 908 l 326 715 l 146 715 l 146 549 l 326 549 l 326 0 l 521 0 l 521 549 l 688 549 l 688 715 l 521 715 l 521 908 l 771 908 "},"ŧ":{"ha":497,"x_min":21,"x_max":463,"o":"m 463 0 l 463 175 l 340 175 q 271 244 271 175 l 271 363 l 447 363 l 447 521 l 271 521 l 271 638 l 449 638 l 449 813 l 271 813 l 271 1026 l 90 981 l 90 813 l 21 813 l 21 638 l 90 638 l 90 521 l 22 521 l 22 363 l 90 363 l 90 196 q 105 118 90 154 q 146 56 119 82 q 208 15 172 29 q 285 0 243 0 l 463 0 "},"Ŋ":{"ha":847,"x_min":76,"x_max":771,"o":"m 771 0 l 771 29 l 771 1097 l 576 1097 l 576 456 l 260 1097 l 76 1097 l 76 0 l 271 0 l 271 639 l 589 0 l 640 0 l 639 -146 q 627 -214 638 -190 q 586 -237 617 -237 q 546 -214 558 -237 q 533 -150 533 -190 q 533 -137 533 -139 q 533 -137 533 -136 q 532 -137 532 -139 q 532 -125 532 -136 l 401 -125 l 401 -162 q 415 -237 401 -201 q 453 -302 428 -274 q 513 -347 478 -331 q 588 -364 547 -364 q 665 -347 631 -364 q 722 -303 699 -331 q 758 -238 746 -275 q 771 -161 771 -201 l 771 0 "},"ŋ":{"ha":699,"x_min":69,"x_max":629,"o":"m 629 0 l 629 29 l 629 624 q 615 701 629 665 q 574 764 600 738 q 513 805 549 790 q 436 819 478 819 l 368 819 q 301 805 336 819 q 250 769 267 790 l 250 819 l 69 819 l 69 0 l 250 0 l 250 574 q 319 644 250 644 l 379 644 q 449 574 449 644 l 449 0 l 518 0 l 517 -144 q 503 -221 515 -190 q 454 -251 492 -251 q 406 -222 419 -251 q 392 -149 392 -192 l 392 -133 l 279 -132 l 279 -161 q 292 -237 279 -201 q 329 -302 306 -274 q 385 -347 353 -331 q 456 -364 418 -364 q 528 -347 496 -364 q 583 -303 560 -331 q 617 -238 606 -275 q 629 -161 629 -201 l 629 0 "},"Ĳ":{"ha":1111,"x_min":76,"x_max":1035,"o":"m 1035 250 l 1035 1097 l 840 1097 l 840 286 q 743 189 840 189 l 632 189 q 560 214 585 189 q 535 275 535 239 l 340 226 q 367 137 346 178 q 420 65 388 96 q 497 17 453 35 q 590 0 540 0 l 785 0 q 882 19 836 0 q 962 73 928 39 q 1015 152 996 107 q 1035 250 1035 197 m 271 0 l 271 1097 l 76 1097 l 76 0 l 271 0 "},"ĳ":{"ha":628,"x_min":69,"x_max":558,"o":"m 558 921 l 558 1096 l 378 1096 l 378 921 l 558 921 m 250 921 l 250 1096 l 69 1096 l 69 921 l 250 921 m 558 -103 l 558 819 l 378 819 l 378 -33 q 308 -103 378 -103 l 253 -103 l 253 -278 l 378 -278 q 510 -233 461 -278 q 558 -103 558 -187 m 250 0 l 250 819 l 69 819 l 69 0 l 250 0 "},"Ŀ":{"ha":847,"x_min":76,"x_max":771,"o":"m 646 500 l 646 689 l 451 689 l 451 500 l 646 500 m 771 0 l 771 189 l 271 189 l 271 1097 l 76 1097 l 76 0 l 771 0 "},"ŀ":{"ha":531,"x_min":69,"x_max":565,"o":"m 565 499 l 565 688 l 371 688 l 371 499 l 565 499 m 250 0 l 250 1097 l 69 1097 l 69 0 l 250 0 "},"Ḃ":{"ha":847,"x_min":76,"x_max":771,"o":"m 503 1165 l 503 1354 l 308 1354 l 308 1165 l 503 1165 m 771 250 l 771 368 q 761 446 771 415 q 738 497 751 476 q 708 529 724 517 q 678 550 692 542 q 706 569 690 557 q 737 603 722 582 q 761 655 751 624 q 771 732 771 686 l 771 847 q 751 944 771 899 q 698 1024 732 990 q 618 1078 664 1058 q 521 1097 572 1097 l 76 1097 l 76 908 l 132 908 l 132 189 l 76 189 l 76 0 l 521 0 q 618 19 572 0 q 698 73 664 39 q 751 152 732 107 q 771 250 771 197 m 576 739 q 479 642 576 642 l 326 642 l 326 908 l 479 908 q 576 811 576 908 l 576 739 m 576 286 q 551 215 576 240 q 479 189 526 189 l 326 189 l 326 453 l 479 453 q 576 356 576 453 l 576 286 "},"ḃ":{"ha":726,"x_min":69,"x_max":657,"o":"m 524 889 l 524 1078 l 329 1078 l 329 889 l 524 889 m 657 194 l 657 625 q 642 703 657 667 q 602 765 628 739 q 541 805 576 790 q 464 819 506 819 l 368 819 q 301 808 332 819 q 250 769 271 796 l 250 1097 l 69 1097 l 69 0 l 215 0 l 233 47 q 286 10 254 21 q 354 0 318 0 l 464 0 q 541 15 506 0 q 602 55 576 29 q 642 117 628 81 q 657 194 657 153 m 476 246 q 407 175 476 175 l 319 175 q 250 246 250 175 l 250 574 q 319 644 250 644 l 407 644 q 476 574 476 644 l 476 246 "},"Ċ":{"ha":847,"x_min":76,"x_max":771,"o":"m 532 1167 l 532 1356 l 338 1356 l 338 1167 l 532 1167 m 771 226 l 576 275 q 551 212 576 235 q 479 189 525 189 l 368 189 q 271 286 271 189 l 271 811 q 368 908 271 908 l 479 908 q 551 882 526 908 q 576 819 576 856 l 771 868 q 747 956 767 914 q 694 1028 726 997 q 617 1078 661 1060 q 521 1097 572 1097 l 326 1097 q 228 1078 274 1097 q 149 1024 183 1058 q 96 944 115 990 q 76 847 76 899 l 76 250 q 96 152 76 197 q 149 73 115 107 q 228 19 183 39 q 326 0 274 0 l 521 0 q 617 19 572 0 q 694 69 661 38 q 747 141 726 100 q 771 226 767 182 "},"ċ":{"ha":715,"x_min":69,"x_max":646,"o":"m 457 889 l 457 1078 l 263 1078 l 263 889 l 457 889 m 646 192 l 465 238 q 396 175 461 175 l 319 175 q 250 246 250 175 l 250 574 q 319 644 250 644 l 396 644 q 465 582 461 644 l 646 628 q 631 705 646 669 q 591 765 617 740 q 530 805 565 790 q 453 819 494 819 l 263 819 q 185 805 221 819 q 124 765 150 790 q 84 703 99 739 q 69 625 69 667 l 69 194 q 84 117 69 153 q 124 55 99 81 q 185 15 150 29 q 263 0 221 0 l 453 0 q 529 15 494 0 q 590 54 564 29 q 631 115 615 79 q 646 192 646 150 "},"Ḋ":{"ha":847,"x_min":76,"x_max":771,"o":"m 519 1161 l 519 1350 l 325 1350 l 325 1161 l 519 1161 m 771 250 l 771 847 q 751 944 771 899 q 698 1024 732 990 q 618 1078 664 1058 q 521 1097 572 1097 l 76 1097 l 76 908 l 132 908 l 132 189 l 76 189 l 76 0 l 521 0 q 618 19 572 0 q 698 73 664 39 q 751 152 732 107 q 771 250 771 197 m 576 286 q 479 189 576 189 l 326 189 l 326 908 l 479 908 q 576 811 576 908 l 576 286 "},"ḋ":{"ha":726,"x_min":69,"x_max":657,"o":"m 388 889 l 388 1078 l 193 1078 l 193 889 l 388 889 m 657 0 l 657 1097 l 476 1097 l 476 769 q 425 808 456 796 q 358 819 394 819 l 263 819 q 185 805 221 819 q 124 765 150 790 q 84 703 99 739 q 69 625 69 667 l 69 194 q 84 117 69 153 q 124 55 99 81 q 185 15 150 29 q 263 0 221 0 l 375 0 q 492 49 454 0 l 513 0 l 657 0 m 476 246 q 407 175 476 175 l 319 175 q 250 246 250 175 l 250 574 q 319 644 250 644 l 407 644 q 476 574 476 644 l 476 246 "},"Ė":{"ha":847,"x_min":76,"x_max":771,"o":"m 524 1160 l 524 1349 l 329 1349 l 329 1160 l 524 1160 m 771 0 l 771 189 l 271 189 l 271 454 l 632 454 l 632 643 l 271 643 l 271 908 l 771 908 l 771 1097 l 76 1097 l 76 0 l 771 0 "},"ė":{"ha":706,"x_min":69,"x_max":636,"o":"m 449 889 l 449 1078 l 254 1078 l 254 889 l 449 889 m 636 317 l 636 624 q 622 701 636 665 q 581 764 607 738 q 519 805 556 790 q 442 819 483 819 l 263 819 q 185 805 221 819 q 124 764 150 790 q 84 702 99 738 q 69 625 69 667 l 69 194 q 84 117 69 153 q 125 55 99 81 q 188 15 151 29 q 265 0 224 0 l 435 0 q 574 49 519 0 q 629 182 629 97 l 629 194 l 458 238 q 440 191 456 207 q 389 175 425 175 l 321 175 q 250 246 250 175 l 250 317 l 636 317 m 456 575 l 456 493 l 250 493 l 250 575 q 267 628 250 611 q 321 644 283 644 l 386 644 q 456 575 457 644 "},"Ḟ":{"ha":847,"x_min":76,"x_max":771,"o":"m 524 1167 l 524 1356 l 329 1356 l 329 1167 l 524 1167 m 771 908 l 771 1097 l 76 1097 l 76 0 l 271 0 l 271 454 l 632 454 l 632 643 l 271 643 l 271 908 l 771 908 "},"ḟ":{"ha":483,"x_min":21,"x_max":463,"o":"m 368 1164 l 368 1353 l 174 1353 l 174 1164 l 368 1164 m 463 921 l 463 1096 l 285 1096 q 208 1081 243 1096 q 146 1040 172 1067 q 105 978 119 1014 q 90 900 90 942 l 90 813 l 21 813 l 21 638 l 90 638 l 90 0 l 271 0 l 271 638 l 449 638 l 449 813 l 271 813 l 271 851 q 340 921 271 921 l 463 921 "},"Ġ":{"ha":847,"x_min":76,"x_max":771,"o":"m 524 1165 l 524 1354 l 329 1354 l 329 1165 l 524 1165 m 771 250 l 771 579 l 438 579 l 438 390 l 576 390 l 576 286 q 479 189 576 189 l 368 189 q 271 286 271 189 l 271 811 q 368 908 271 908 l 479 908 q 551 883 526 908 q 576 824 576 857 l 771 872 q 744 960 764 919 q 691 1032 724 1001 q 615 1080 658 1063 q 521 1097 572 1097 l 326 1097 q 228 1078 274 1097 q 149 1024 183 1058 q 96 944 115 990 q 76 847 76 899 l 76 250 q 96 152 76 197 q 149 73 115 107 q 228 19 183 39 q 326 0 274 0 l 521 0 q 618 19 572 0 q 698 73 664 39 q 751 152 732 107 q 771 250 771 197 "},"ġ":{"ha":726,"x_min":69,"x_max":657,"o":"m 465 889 l 465 1078 l 271 1078 l 271 889 l 465 889 m 657 -85 l 657 819 l 511 819 l 490 774 q 441 806 474 793 q 372 819 408 819 l 263 819 q 185 805 221 819 q 124 765 150 790 q 84 703 99 739 q 69 626 69 668 l 69 233 q 84 156 69 192 q 124 94 99 119 q 185 53 150 68 q 263 39 221 39 l 358 39 q 425 53 390 39 q 476 89 460 68 l 476 -32 q 407 -103 476 -103 l 332 -103 q 279 -87 294 -103 q 261 -40 264 -71 l 90 -83 l 90 -96 q 145 -229 90 -181 q 285 -278 200 -278 l 463 -278 q 540 -263 504 -278 q 602 -223 576 -249 q 642 -162 628 -197 q 657 -85 657 -126 m 476 285 q 407 215 476 215 l 319 215 q 250 285 250 215 l 250 574 q 319 644 250 644 l 407 644 q 476 574 476 644 l 476 285 "},"İ":{"ha":347,"x_min":76,"x_max":271,"o":"m 271 1161 l 271 1350 l 76 1350 l 76 1161 l 271 1161 m 271 0 l 271 1097 l 76 1097 l 76 0 l 271 0 "},"Ṁ":{"ha":847,"x_min":76,"x_max":771,"o":"m 521 1167 l 521 1356 l 326 1356 l 326 1167 l 521 1167 m 771 0 l 771 1097 l 590 1097 l 436 667 q 431 656 435 664 q 424 649 428 649 q 416 656 419 649 q 411 667 413 664 l 257 1097 l 76 1097 l 76 0 l 271 0 l 271 521 q 272 531 271 525 q 279 538 274 538 q 288 532 285 538 q 292 524 290 526 l 408 210 q 414 199 411 204 q 424 194 417 194 q 433 199 431 194 q 439 210 436 204 l 556 525 q 560 534 557 528 q 568 540 564 540 q 575 533 574 540 q 576 522 576 525 l 576 0 l 771 0 "},"ṁ":{"ha":1024,"x_min":69,"x_max":954,"o":"m 610 889 l 610 1078 l 415 1078 l 415 889 l 610 889 m 954 0 l 954 624 q 940 701 954 665 q 899 764 925 738 q 838 805 874 790 q 761 819 803 819 l 714 819 q 623 799 661 819 q 564 746 585 778 q 506 799 543 778 q 415 819 468 819 l 368 819 q 301 805 336 819 q 250 769 267 790 l 250 819 l 69 819 l 69 0 l 250 0 l 250 574 q 319 644 250 644 l 351 644 q 421 574 421 644 l 421 0 l 603 0 l 603 574 q 672 644 603 644 l 704 644 q 774 574 774 644 l 774 0 l 954 0 "},"Ṗ":{"ha":847,"x_min":76,"x_max":771,"o":"m 499 1165 l 499 1354 l 304 1354 l 304 1165 l 499 1165 m 771 704 l 771 847 q 751 944 771 899 q 698 1024 732 990 q 618 1078 664 1058 q 521 1097 572 1097 l 76 1097 l 76 0 l 271 0 l 271 454 l 521 454 q 618 474 572 454 q 698 527 664 493 q 751 606 732 561 q 771 704 771 651 m 576 740 q 479 643 576 643 l 271 643 l 271 908 l 479 908 q 576 811 576 908 l 576 740 "},"ṗ":{"ha":726,"x_min":69,"x_max":657,"o":"m 464 889 l 464 1078 l 269 1078 l 269 889 l 464 889 m 657 194 l 657 625 q 642 703 657 667 q 602 765 628 739 q 541 805 576 790 q 464 819 506 819 l 354 819 q 287 808 318 819 q 235 771 256 797 l 214 819 l 69 819 l 69 -278 l 250 -278 l 250 50 q 301 12 271 24 q 368 0 332 0 l 464 0 q 541 15 506 0 q 602 55 576 29 q 642 117 628 81 q 657 194 657 153 m 476 246 q 407 176 476 176 l 319 176 q 250 246 250 176 l 250 574 q 319 644 250 644 l 407 644 q 476 574 476 644 l 476 246 "},"Ṡ":{"ha":847,"x_min":76,"x_max":771,"o":"m 526 1165 l 526 1354 l 332 1354 l 332 1165 l 526 1165 m 771 250 l 771 357 q 720 499 771 443 q 589 586 669 554 l 328 690 q 281 727 292 704 q 271 797 271 750 l 271 811 q 368 908 271 908 l 479 908 q 550 885 526 908 q 576 821 574 861 l 771 869 q 747 955 767 914 q 694 1028 726 996 q 617 1078 661 1060 q 521 1097 574 1097 l 326 1097 q 228 1078 274 1097 q 149 1024 183 1058 q 96 944 115 990 q 76 847 76 899 l 76 765 q 92 674 76 714 q 133 602 107 633 q 192 549 160 571 q 261 514 225 528 l 514 413 q 563 378 550 397 q 576 324 576 360 l 576 286 q 479 189 576 189 l 368 189 q 297 213 321 189 q 271 279 274 236 l 76 231 q 102 140 82 182 q 155 67 122 99 q 231 18 188 36 q 326 0 274 0 l 521 0 q 618 19 572 0 q 698 73 664 39 q 751 152 732 107 q 771 250 771 197 "},"ṡ":{"ha":715,"x_min":69,"x_max":646,"o":"m 458 889 l 458 1078 l 264 1078 l 264 889 l 458 889 m 646 194 l 646 249 q 634 323 646 290 q 603 381 622 356 q 558 422 583 406 q 504 449 532 439 l 289 528 q 258 548 265 536 q 250 579 250 560 l 250 588 q 267 629 250 614 q 319 644 283 644 l 396 644 q 465 582 461 644 l 646 628 q 631 705 646 669 q 591 765 617 740 q 530 805 565 790 q 453 819 494 819 l 263 819 q 185 805 221 819 q 124 764 150 790 q 84 702 99 738 q 69 625 69 667 l 69 569 q 83 496 69 529 q 117 438 96 463 q 165 395 139 413 q 217 368 192 378 l 421 293 q 456 272 446 283 q 465 244 465 260 l 465 239 q 396 175 465 175 l 321 175 q 269 190 285 175 q 250 238 253 206 l 69 192 q 85 115 69 150 q 126 54 100 79 q 187 15 151 29 q 264 0 222 0 l 453 0 q 530 15 494 0 q 591 55 565 29 q 631 117 617 81 q 646 194 646 153 "},"Ṫ":{"ha":847,"x_min":76,"x_max":771,"o":"m 521 1167 l 521 1356 l 326 1356 l 326 1167 l 521 1167 m 771 908 l 771 1097 l 76 1097 l 76 908 l 326 908 l 326 0 l 521 0 l 521 908 l 771 908 "},"ṫ":{"ha":497,"x_min":21,"x_max":463,"o":"m 285 1097 l 285 1286 l 90 1286 l 90 1097 l 285 1097 m 463 0 l 463 175 l 340 175 q 271 244 271 175 l 271 638 l 449 638 l 449 813 l 271 813 l 271 1026 l 90 981 l 90 813 l 21 813 l 21 638 l 90 638 l 90 196 q 105 118 90 154 q 146 56 119 82 q 208 15 172 29 q 285 0 243 0 l 463 0 "},"Ż":{"ha":847,"x_min":76,"x_max":771,"o":"m 525 1167 l 525 1356 l 331 1356 l 331 1167 l 525 1167 m 771 0 l 771 189 l 306 189 l 771 917 l 771 1097 l 76 1099 l 76 910 l 543 910 l 76 181 l 76 0 l 771 0 "},"ż":{"ha":711,"x_min":69,"x_max":642,"o":"m 450 889 l 450 1078 l 256 1078 l 256 889 l 450 889 m 642 0 l 642 175 l 300 175 l 642 681 l 642 819 l 69 819 l 69 644 l 413 644 l 69 139 l 69 0 l 642 0 "},"⁊":{"ha":660,"x_min":69,"x_max":590,"o":"m 590 819 l 69 819 l 69 644 l 399 644 l 250 -142 l 439 -142 l 590 674 l 590 819 "},"ſ":{"ha":463,"x_min":21,"x_max":463,"o":"m 463 921 l 463 1096 l 285 1096 q 208 1081 243 1096 q 146 1040 172 1067 q 105 978 119 1014 q 90 900 90 942 l 90 806 l 21 806 l 21 631 l 90 631 l 90 0 l 271 0 l 271 851 q 340 921 271 921 l 463 921 "},"­":{"ha":444,"x_min":28,"x_max":417,"o":"m 417 382 l 417 571 l 28 571 l 28 382 l 417 382 "},"̦":{"ha":1056,"x_min":386,"x_max":619,"o":"m 619 -118 l 457 -61 l 386 -371 l 483 -404 l 619 -118 "},"₽":{"ha":861,"x_min":35,"x_max":785,"o":"m 785 711 l 785 847 q 765 944 785 899 q 712 1024 746 990 q 632 1078 678 1058 q 535 1097 586 1097 l 90 1097 l 90 650 l 35 650 l 35 461 l 90 461 l 90 351 l 35 351 l 35 163 l 90 163 l 90 0 l 285 0 l 285 163 l 563 163 l 563 351 l 285 351 l 285 461 l 535 461 q 632 481 586 461 q 712 534 678 500 q 765 613 746 568 q 785 711 785 658 m 590 747 q 493 650 590 650 l 285 650 l 285 908 l 493 908 q 590 811 590 908 l 590 747 "}}}
